<svg xmlns="http://www.w3.org/2000/svg" width="157" height="43" viewBox="0 0 157 43" fill="none"><path d="M45.9834 5.64062H53.052C54.8486 5.64062 56.1661 6.12167 57.0045 6.96543C57.3859 7.29061 57.6911 7.6964 57.8981 8.15377C58.1052 8.61115 58.209 9.10881 58.2022 9.61117C58.2218 10.0158 58.1815 10.4211 58.0824 10.8138C57.8388 11.4417 57.4722 12.0142 57.0045 12.4974C56.7944 12.6983 56.5513 12.861 56.2858 12.9785C57.105 13.2278 57.8471 13.6831 58.4418 14.3013C58.9209 14.9027 59.1604 15.6242 59.1604 16.7066C59.1688 17.3266 59.0463 17.9414 58.8011 18.5105C58.5021 19.034 58.0934 19.486 57.6034 19.8353C57.0285 20.1648 56.4276 20.4464 55.8068 20.6771C55.0881 20.9176 54.2497 20.9176 53.4113 20.9176H46.0974V5.64062H45.9834ZM52.4531 11.8961C53.0695 11.8927 53.6794 11.7702 54.2497 11.5353C54.4697 11.4227 54.6537 11.2502 54.7808 11.0375C54.9079 10.8249 54.9729 10.5807 54.9683 10.3327C54.9702 10.099 54.9169 9.86823 54.8128 9.6592C54.7087 9.45018 54.5568 9.26887 54.3695 9.13013C54.1316 8.95369 53.859 8.83024 53.5698 8.76802C53.2807 8.70581 52.9816 8.70626 52.6926 8.76935H49.339V12.0164H52.4531V11.8961ZM53.2915 18.0294C53.9079 18.026 54.5178 17.9035 55.0881 17.6687C55.3255 17.5525 55.5152 17.3568 55.6245 17.1154C55.7338 16.8739 55.7559 16.6018 55.687 16.3458C55.6888 16.1121 55.6355 15.8813 55.5314 15.6722C55.4273 15.4632 55.2754 15.2819 55.0881 15.1432C54.5043 14.8119 53.8421 14.6457 53.1717 14.6621H49.2192V18.0294H53.2915Z" fill="#BBCCDB"></path><path d="M63.3555 5.64062H66.7091V21.0379H63.3555V5.64062Z" fill="#BBCCDB"></path><path d="M71.8584 5.64062H74.9744L82.1608 15.1432V5.64062H85.5145V21.0379H82.6399L75.0942 11.2948V21.0379H71.8584V5.64062Z" fill="#BBCCDB"></path><path d="M95.6969 5.52441H98.811L105.404 21.0419H101.927L100.49 17.5505H94.02L92.5828 21.0419H89.1055L95.6969 5.52441ZM99.292 14.6662L97.2539 9.62298L95.2178 14.6662H99.292Z" fill="#BBCCDB"></path><path d="M108.993 5.64062H112.107L119.295 15.1432V5.64062H122.649V21.0379H119.774L112.346 11.2948V21.0379H108.993V5.64062Z" fill="#BBCCDB"></path><path d="M134.868 21.2788C133.803 21.2651 132.749 21.0615 131.754 20.6775C129.87 19.867 128.369 18.3589 127.562 16.4664C127.18 15.468 126.977 14.4093 126.963 13.3396C126.994 11.2367 127.806 9.22111 129.239 7.68735C129.947 6.95226 130.803 6.37756 131.75 6.00175C132.773 5.57099 133.876 5.36592 134.984 5.40045C135.625 5.38055 136.267 5.42081 136.901 5.52071C137.44 5.60838 137.965 5.77025 138.46 6.00175C138.912 6.21734 139.352 6.45891 139.777 6.72526C140.205 7.01103 140.606 7.33568 140.975 7.69511L138.939 10.2167C138.369 9.73661 137.768 9.2947 137.14 8.89383C136.517 8.55207 135.814 8.38586 135.104 8.41279C134.488 8.41627 133.878 8.53876 133.308 8.77357C132.737 8.99257 132.239 9.3675 131.87 9.85592C131.479 10.3308 131.154 10.8568 130.904 11.4193C130.67 11.9919 130.548 12.6044 130.545 13.2232C130.548 13.8811 130.67 14.5331 130.904 15.1474C131.109 15.7332 131.438 16.2668 131.87 16.7108C132.275 17.1691 132.774 17.535 133.332 17.7839C133.889 18.0329 134.494 18.159 135.104 18.1539C135.889 18.1684 136.667 18.004 137.38 17.6729C138.027 17.3017 138.631 16.8579 139.178 16.35L141.336 18.5205L140.138 19.7251C139.686 20.05 139.205 20.3318 138.701 20.5669C138.17 20.8392 137.606 21.0414 137.022 21.1682C136.308 21.2619 135.587 21.3021 134.866 21.2885L134.868 21.2788Z" fill="#BBCCDB"></path><path d="M145.17 5.64062H156.67V8.64909H148.404V11.7759H155.712V14.7824H148.404V18.0294H156.79V21.0379H145.17V5.64062Z" fill="#BBCCDB"></path><path d="M50.2975 36.1928C49.4721 36.2194 48.6518 36.0548 47.9001 35.7117C47.1814 35.4712 46.4628 34.9902 45.7441 34.3889L46.9419 33.066C47.421 33.547 47.9078 33.7876 48.5009 34.1484C49.0711 34.3832 49.6811 34.5057 50.2975 34.5091C50.7981 34.5038 51.2905 34.3802 51.7347 34.1484C51.8915 34.0423 52.0181 33.8971 52.1021 33.7271C52.1861 33.5571 52.2246 33.368 52.2138 33.1785C52.2316 33.009 52.1892 32.8386 52.0941 32.6975C51.9743 32.5772 51.8545 32.3367 51.7347 32.2164L51.0161 31.8537C50.6568 31.7334 50.1777 31.6132 49.8184 31.4929C49.284 31.388 48.7621 31.2267 48.2613 31.0119C47.8652 30.8854 47.4981 30.681 47.1814 30.4106C46.9129 30.1563 46.672 29.8741 46.4628 29.5687C46.2779 29.1536 46.1957 28.6998 46.2232 28.2459C46.2448 27.7963 46.3253 27.3515 46.4628 26.923C46.5826 26.5622 46.9419 26.2014 47.1814 25.9532C47.5419 25.6817 47.9484 25.478 48.3811 25.3518C48.8487 25.2135 49.3313 25.1327 49.8184 25.1113C50.5517 25.1138 51.2798 25.2356 51.9743 25.4721C52.5974 25.748 53.1981 26.0722 53.7709 26.442L52.805 27.8851C52.353 27.5602 51.8718 27.2784 51.3677 27.0433C50.8886 26.8027 50.4018 26.8027 49.9304 26.8027C49.4658 26.7932 49.0084 26.9185 48.6129 27.1635C48.3369 27.4146 48.1651 27.7609 48.1319 28.1334C48.113 28.3414 48.1554 28.5505 48.2536 28.7347C48.3734 28.8549 48.4931 29.0955 48.6129 29.2157C48.8851 29.3581 49.168 29.4787 49.459 29.5765C49.8892 29.7276 50.3295 29.8482 50.7766 29.9373C51.3066 30.0592 51.827 30.22 52.3336 30.4183C52.7169 30.5719 53.0792 30.774 53.4116 31.0196C53.6499 31.2703 53.8516 31.5538 54.0104 31.8615C54.159 32.2467 54.2401 32.6549 54.25 33.0679C54.2393 33.5187 54.1585 33.9651 54.0104 34.3908C53.7691 34.7798 53.4881 35.1425 53.172 35.4732C52.812 35.7442 52.4063 35.9479 51.9743 36.0745C51.3754 36.0725 50.7766 36.1928 50.2975 36.1928Z" fill="#BBCCDB"></path><path d="M56.2861 25.248H58.3223L61.5581 30.299L64.9117 25.248H66.9479V36.0735H65.0315V28.2546L61.6779 33.3055H61.5581L58.2025 28.2546V36.0735H56.2861V25.248Z" fill="#BBCCDB"></path><path d="M73.4154 25.127H75.2139L79.8851 35.9524H77.849L76.771 33.3066H71.7482L70.6703 35.9524H68.7539L73.4154 25.127ZM76.1721 31.7413L74.2558 27.4119L72.4572 31.7413H76.1721Z" fill="#BBCCDB"></path><path d="M81.8019 25.248H86.5948C87.2 25.2689 87.8018 25.3495 88.3914 25.4886C88.8949 25.6517 89.3484 25.9415 89.7089 26.3304C90.003 26.6515 90.2454 27.0167 90.4275 27.4127C90.5756 27.8385 90.6564 28.2848 90.6671 28.7356C90.6453 29.146 90.5646 29.551 90.4275 29.9382C90.3077 30.299 90.0682 30.5395 89.9484 30.9081C89.6952 31.1777 89.4141 31.4196 89.11 31.6296C88.7743 31.8392 88.4116 32.0018 88.0321 32.1126L90.9163 36.1937H88.6309L85.994 32.4656H83.5985V36.1937H81.6821L81.8019 25.248ZM86.4731 30.5473C87.0739 30.5473 87.6727 30.427 88.0321 30.0662C88.3948 29.7199 88.6095 29.2456 88.6309 28.7434C88.6095 28.2412 88.3948 27.7669 88.0321 27.4205C87.5393 27.0815 86.95 26.9127 86.3533 26.9395H83.5985V30.5473H86.4731Z" fill="#BBCCDB"></path><path d="M95.5769 26.9317H92.1035V25.248H100.849V26.9317H97.3735V36.0735H95.4572L95.5769 26.9317Z" fill="#BBCCDB"></path><path d="M112.469 36.1926C111.722 36.2068 110.983 36.0418 110.312 35.7115C108.994 35.1102 107.916 34.1482 107.437 32.8253C107.198 32.1037 106.958 31.3802 107.078 30.6586C107.08 29.9223 107.202 29.1913 107.437 28.494C107.695 27.8275 108.082 27.2188 108.576 26.7028C109.069 26.1869 109.659 25.7738 110.312 25.4874C111.03 25.2469 111.749 25.0064 112.589 25.0064C113.032 24.981 113.476 25.0215 113.907 25.1266L114.985 25.4874C115.344 25.6077 115.584 25.8482 115.951 25.9685C116.19 26.209 116.55 26.4495 116.789 26.69L115.591 28.1332C115.205 27.7437 114.76 27.4165 114.274 27.1633C113.749 26.9172 113.176 26.7938 112.597 26.8025C112.109 26.8239 111.626 26.9047 111.158 27.0431C110.714 27.253 110.309 27.5377 109.96 27.8849C109.611 28.2085 109.361 28.6259 109.241 29.0875C109.104 29.557 109.023 30.0416 109.002 30.5306C109.023 31.0196 109.104 31.5042 109.241 31.9738C109.361 32.4361 109.61 32.8542 109.96 33.1783C110.309 33.5255 110.714 33.8102 111.158 34.0201C111.592 34.2733 112.104 34.3588 112.597 34.2607C113.176 34.2694 113.749 34.146 114.274 33.8999C114.808 33.6186 115.293 33.2532 115.711 32.8175L116.909 34.0201L116.07 34.862C115.711 35.1025 115.472 35.343 115.105 35.4633C114.737 35.5835 114.386 35.824 113.907 35.824C113.428 36.1848 112.941 36.1848 112.469 36.1848V36.1926Z" fill="#BBCCDB"></path><path d="M118.816 25.248H120.613V29.6977H125.765V25.248H127.682V36.0735H125.765V31.5016H120.613V36.0735H118.816V25.248Z" fill="#BBCCDB"></path><path d="M134.269 25.127H136.066L140.739 35.9524H138.703L137.625 33.3066H132.602L131.524 35.9524H129.608L134.269 25.127ZM136.904 31.7413L135.108 27.4119L133.311 31.7413H136.904Z" fill="#BBCCDB"></path><path d="M142.654 25.248H144.571V36.0735H142.654V25.248Z" fill="#BBCCDB"></path><path d="M147.446 25.248H149.123L154.874 32.7042V25.248H156.79V36.0735H155.233L149.362 28.3748V36.0735H147.446V25.248Z" fill="#BBCCDB"></path><path d="M21.8114 35.3511V40.051L17.7372 42.4562L13.7847 40.051V35.3511L17.7372 37.7563L21.8114 35.3511ZM0.00878906 19.112L3.96131 21.5192V29.5766L10.7903 33.6674V38.3576L0.00878906 31.9819V19.112ZM35.4675 19.112V31.9819L24.5662 38.3576V33.6674L31.3933 29.5766V21.5192L35.4675 19.112ZM24.5662 12.7382L28.6385 15.1434V19.8355L21.8114 23.9244V32.0982L17.857 34.5035L13.9044 32.0982V23.9244L6.83781 19.8355V15.1434L10.9101 12.7382L17.7372 16.827L24.5662 12.7382ZM6.83781 23.2028L10.7903 25.608V30.2982L6.83781 27.893V23.2028ZM28.6385 23.2028V27.893L24.686 30.2982V25.608L28.6385 23.2028ZM3.96131 8.65513L8.04134 11.0545L3.96711 13.4597V18.1499L0.0145843 15.7447V11.0545L3.96131 8.65513ZM31.5131 8.65513L35.5873 11.0603V15.7505L31.5131 18.1557V13.4597L27.5528 11.0545L31.5131 8.65513ZM17.7372 8.65513L21.8114 11.0603L17.7372 13.4656L13.7847 11.0603L17.7372 8.65513ZM17.7372 0.595703L28.6385 6.97147L24.686 9.37669L17.857 5.28588L10.9024 9.37669L6.94985 6.97147L17.7372 0.595703Z" fill="#BBCCDB"></path></svg>