<svg xmlns="http://www.w3.org/2000/svg" width="171" height="51" viewBox="0 0 171 51" fill="none"><g clip-path="url(#clip0_203_167)"><path d="M34.4439 24.6238C32.016 22.622 28.6753 21.6211 24.4217 21.6211H17.3272V23.1023H24.2184C27.8365 23.1023 31.1118 23.85 33.1101 25.575C35.1084 27.2999 36.6266 29.8743 36.6266 33.0521C36.6266 36.1163 35.3165 38.3879 33.2378 40.1057C31.1591 41.8236 27.4511 42.5808 23.7383 42.5808H11.7959V44.062H23.8282C28.304 44.062 31.8 43.0895 34.3162 41.1445C36.8324 39.1995 38.0936 36.4634 38.0999 32.9362C38.0999 29.3964 36.8852 26.6264 34.4557 24.6262" fill="#BBCCDB"></path><path d="M33.5546 26.7667C32.0435 25.6215 30.3077 24.6963 25.396 24.6963H14.2812V26.1397C14.2812 26.1397 20.8744 26.0923 25.2115 26.1397C29.3996 26.1846 30.9344 26.6579 32.3438 27.7013C34.1506 29.0359 35.2691 30.6804 35.2691 32.985C35.2691 35.2069 34.1316 36.7709 32.3202 38.1149C30.4662 39.4802 27.6331 39.4968 26.4767 39.5346C26.0416 39.5346 20.4085 39.5346 20.4085 39.5346V40.978C20.4085 40.978 23.2132 41.0159 24.9466 40.978C28.9196 40.8857 31.282 40.6491 33.4766 39.0188C35.5364 37.4855 36.6265 35.4695 36.6265 32.9093C36.6265 29.5399 34.9428 27.8362 33.5523 26.7785" fill="#BBCCDB"></path><path d="M16.6553 31.6711H27.0676V30.8643H16.6553V31.6711Z" fill="#BBCCDB"></path><path d="M20.9492 34.4931H27.0079V33.7998H20.9492V34.4931Z" fill="#BBCCDB"></path><path d="M11.792 31.6711H14.8757V30.8643H11.792V31.6711Z" fill="#BBCCDB"></path><path d="M9.87012 34.55H19.2396V33.7432H9.87012V34.55Z" fill="#BBCCDB"></path><path d="M12.1787 13.8382H15.83V13.1709H12.1787V13.8382Z" fill="#BBCCDB"></path><path d="M9.63672 19.2386H17.9988V18.4648H9.63672V19.2386Z" fill="#BBCCDB"></path><path d="M9.87012 40.8668H18.6862V39.9014H9.87012V40.8668Z" fill="#BBCCDB"></path><path d="M7.67188 44.0033H9.8759V42.6025H7.67188V44.0033Z" fill="#BBCCDB"></path><path d="M13.1807 16.8743H27.0268V16.1006H13.1807V16.8743Z" fill="#BBCCDB"></path><path d="M20.1045 19.2386H26.7639V18.4648H20.1045V19.2386Z" fill="#BBCCDB"></path><path d="M32.8198 28.8209C31.6823 28.1323 30.6915 27.6709 25.9949 27.6709H18.5102V28.6008H25.8412C29.9986 28.6008 31.5783 29.3107 32.0536 29.597C32.9853 30.1507 34.2198 31.0498 34.2198 32.8836C34.2198 34.0667 33.5103 35.529 32.4391 36.1063C31.4742 36.6316 29.7053 37.1025 26.5932 37.1025H7.39551V38.0206H26.6547C30.41 38.0206 31.6989 37.6183 33.0208 36.9156C34.3428 36.2128 35.2296 34.7553 35.2296 32.8931C35.2296 30.8132 34.0282 29.5662 32.8198 28.8351" fill="#BBCCDB"></path><path d="M51.7265 26.746V35.1885H56.3356C58.3284 35.1885 59.8742 34.8068 60.973 34.0433C61.4949 33.7059 61.9213 33.2399 62.2112 32.69C62.5011 32.1401 62.6447 31.5249 62.6284 30.9034C62.6284 28.1302 60.2983 26.7444 55.638 26.746H51.7265ZM51.7265 16.6968V24.2686H55.2123C57.0711 24.2686 58.5325 23.9066 59.5967 23.1825C60.1066 22.8525 60.522 22.3953 60.8018 21.856C61.0817 21.3166 61.2165 20.7137 61.193 20.1065C61.193 17.8255 59.3405 16.685 55.6356 16.685L51.7265 16.6968ZM48.333 37.6778V14.21H56.5792C59.0843 14.21 61.0708 14.7061 62.5385 15.6983C64.0063 16.6905 64.741 17.9832 64.7426 19.5765C64.7603 20.862 64.2827 22.1051 63.4088 23.0477C62.5196 24.0304 61.2939 24.7284 59.7315 25.1417V25.2056C61.6848 25.3933 63.2472 25.9912 64.4186 26.9992C64.9896 27.4798 65.4444 28.0834 65.7491 28.7649C66.0538 29.4463 66.2005 30.1879 66.178 30.9341C66.178 32.9407 65.2888 34.5662 63.5105 35.8109C61.7321 37.0555 59.4887 37.6778 56.7802 37.6778H48.333Z" fill="#BBCCDB"></path><path d="M69.9554 37.679H73.2662V20.9217H69.9554V37.679ZM71.6534 16.665C71.1069 16.6805 70.5717 16.5075 70.1375 16.1752C69.9413 16.0335 69.7819 15.8466 69.6729 15.6305C69.5638 15.4143 69.5082 15.1751 69.5108 14.9329C69.5085 14.6892 69.5641 14.4483 69.673 14.2303C69.782 14.0122 69.9412 13.8232 70.1375 13.6788C70.5697 13.3417 71.1055 13.1652 71.6534 13.1796C72.2107 13.1647 72.7564 13.3409 73.2 13.6788C73.3963 13.8205 73.5562 14.0067 73.6664 14.2223C73.7767 14.4379 73.8342 14.6766 73.8342 14.9187C73.8342 15.1609 73.7767 15.3996 73.6664 15.6151C73.5562 15.8307 73.3963 16.017 73.2 16.1586C72.7588 16.5019 72.212 16.6809 71.6534 16.665Z" fill="#BBCCDB"></path><path d="M87.9253 37.5145C87.137 37.8647 86.1059 38.039 84.8321 38.0374C81.206 38.0374 79.3929 36.4008 79.3929 33.1276V23.2109H75.8457V20.9205H79.3929V16.8293L82.7037 15.9609V20.9299H87.9182V23.2204H82.7108V32.6638C82.7108 33.7854 82.9473 34.5899 83.4203 35.0679C83.8932 35.5458 84.6713 35.7777 85.7662 35.7777C86.5247 35.7981 87.2737 35.6046 87.9276 35.2193V37.5121" fill="#BBCCDB"></path><path d="M118.013 37.6779H114.908V23.1945C114.924 21.791 115.011 20.3892 115.168 18.9945H115.095C114.896 19.7159 114.629 20.4164 114.295 21.0862L105.186 37.6779H103.661L94.5704 21.2069C94.2275 20.4994 93.9596 19.7579 93.7711 18.9945H93.6978C93.8189 20.4006 93.8686 21.8118 93.8468 23.2229V37.6779H90.834V16.0889H94.9606L103.141 31.1425C103.621 31.9703 104.032 32.837 104.368 33.7335H104.479C105.012 32.5504 105.44 31.667 105.763 31.0834L114.109 16.0889H118.013V37.6779Z" fill="#BBCCDB"></path><path d="M134.855 29.2004L129.865 29.7588C128.328 29.9323 127.169 30.2399 126.389 30.6816C125.609 31.1233 125.215 31.9057 125.207 33.0289C125.203 33.4273 125.301 33.8202 125.49 34.1709C125.679 34.5217 125.953 34.819 126.287 35.0354C127.006 35.5544 127.966 35.8131 129.165 35.8115C130.81 35.8115 132.167 35.3454 133.238 34.4131C133.754 33.9799 134.167 33.4359 134.445 32.8215C134.723 32.2071 134.859 31.538 134.843 30.8638L134.855 29.2004ZM138.166 37.6784H134.855V35.0591H134.777C133.335 37.064 131.213 38.0665 128.411 38.0665C126.349 38.0665 124.735 37.6248 123.57 36.7414C123.015 36.3415 122.565 35.812 122.261 35.1988C121.956 34.5857 121.806 33.9074 121.823 33.2229C121.823 30.0916 124.1 28.2689 128.655 27.7546L134.855 27.0448C134.855 24.2054 133.436 22.7817 130.598 22.7738C128.19 22.7494 125.833 23.4691 123.849 24.8348V22.0995C125.883 21.052 128.227 20.5283 130.882 20.5283C135.746 20.5283 138.178 22.6121 138.178 26.7798V37.6784H138.166Z" fill="#BBCCDB"></path><path d="M153.551 23.6322C152.971 23.271 152.135 23.0904 151.044 23.0904C150.37 23.0799 149.702 23.22 149.088 23.5004C148.475 23.7807 147.931 24.1944 147.497 24.7112C146.551 25.7918 146.078 27.2651 146.078 29.1313V37.6732H142.768V20.9206H146.078V24.3729H146.159C146.584 23.2549 147.338 22.2927 148.323 21.6139C149.279 20.9577 150.414 20.6123 151.574 20.6248C152.243 20.6023 152.911 20.6821 153.556 20.8614V23.6322" fill="#BBCCDB"></path><path d="M165.09 37.5145C164.309 37.8647 163.279 38.039 161.999 38.0374C158.373 38.0374 156.56 36.4008 156.56 33.1276V23.2109H153.013V20.9205H156.56V16.8293L159.871 15.9609V20.9299H165.073V23.2204H159.871V32.6638C159.871 33.7854 160.107 34.5899 160.58 35.0679C161.053 35.5458 161.831 35.7777 162.924 35.7777C163.682 35.7987 164.432 35.6052 165.085 35.2193V37.5121" fill="#BBCCDB"></path><path d="M32.3373 10.0876C29.9078 8.08586 26.5671 7.08496 22.3151 7.08496H11.7183V8.56619H22.1236C25.7394 8.56619 29.0147 9.31154 31.013 11.0389C33.0113 12.7662 34.5224 15.35 34.5224 18.516C34.5224 21.5802 33.2099 23.8517 31.1312 25.5696C29.0525 27.2874 25.3445 28.0446 21.6341 28.0446H9.68457V29.5282H21.7287C26.2045 29.5282 29.7013 28.5557 32.219 26.6107C34.7368 24.6657 35.998 21.9288 36.0028 18.4001C36.0028 14.8602 34.788 12.0902 32.3586 10.09" fill="#BBCCDB"></path><path d="M31.4399 12.2345C29.9288 11.0869 28.193 10.1641 23.2813 10.1641H15.1084V11.6074C15.1084 11.6074 18.7644 11.5601 23.0992 11.6074C27.2873 11.6524 28.8244 12.1233 30.2339 13.1668C32.0359 14.5013 33.1568 16.1481 33.1568 18.4528C33.1568 20.6723 32.0193 22.2387 30.2078 23.5803C28.3538 24.9456 25.5208 24.9622 24.3667 25C23.9316 25 18.2986 25 18.2986 25V26.4434C18.2986 26.4434 21.1009 26.4836 22.8343 26.4434C26.8096 26.3559 29.1697 26.1192 31.3643 24.4866C33.4264 22.9557 34.5166 20.9373 34.5166 18.3795C34.5166 15.0053 32.8304 13.3064 31.4423 12.2487" fill="#BBCCDB"></path><path d="M30.7161 14.1401C29.5834 13.4303 28.5878 12.957 23.8936 12.957H18.0123V13.9035H23.7257C27.8831 13.9035 29.458 14.6441 29.9357 14.9375C30.8817 15.5101 32.1019 16.4424 32.1019 18.3425C32.1019 19.5563 31.3925 21.0825 30.3236 21.6811C29.3564 22.2254 27.5898 22.7128 24.4777 22.7128H5.28711V23.6593H24.5487C28.3016 23.6593 29.5881 23.2428 30.9124 22.5117C32.2367 21.7805 33.1235 20.2756 33.1235 18.3472C33.1235 16.1892 31.9198 14.8973 30.709 14.1401" fill="#BBCCDB"></path></g><defs><clipPath id="clip0_203_167"><rect width="169.558" height="49.2166" fill="white" transform="translate(0.799805 0.916992)"></rect></clipPath></defs></svg>