<svg xmlns="http://www.w3.org/2000/svg" width="172" height="43" viewBox="0 0 172 43" fill="none"><path fill-rule="evenodd" clip-rule="evenodd" d="M35.8804 6.94208L36.0962 8.29558C36.258 9.54079 36.339 10.786 36.312 12.0583C36.312 14.8465 35.9883 17.6076 35.341 20.3146C34.4779 23.969 32.9674 27.4611 30.8906 30.6012C28.4901 34.1744 25.0107 37.6664 19.9669 40.5358L19.3465 40.8877L18.7262 40.5358C13.6824 37.7205 10.2029 34.2015 7.80243 30.6012C5.6986 27.4611 4.21513 23.9961 3.35202 20.3146C2.70469 17.6076 2.38102 14.8465 2.38102 12.0583C2.38102 10.8131 2.43497 9.54079 2.5968 8.29558L2.78561 6.94208C2.81258 6.8338 2.81258 6.72552 2.78561 6.61724C2.75863 6.50896 2.73166 6.40068 2.65075 6.31947C2.5968 6.23826 2.51588 6.15706 2.43497 6.10292C2.35405 6.04878 2.24616 6.02171 2.16525 5.99464C2.05736 5.96757 1.94947 5.96757 1.84158 5.99464C1.73369 6.02171 1.6258 6.07585 1.54489 6.12998C1.46397 6.18412 1.38305 6.26534 1.32911 6.34654C1.27517 6.45482 1.24819 6.5631 1.22122 6.67138L1.00545 8.02488C0.843612 9.3513 0.762695 10.7048 0.762695 12.0583C0.762695 14.9818 1.11333 17.8783 1.78764 20.7207C2.24616 22.6426 2.86652 24.5375 3.64872 26.3512C4.43091 28.1649 5.37493 29.8973 6.48079 31.5486C9.01617 35.3384 12.6844 39.047 17.9709 41.9705L18.9689 42.539C19.1038 42.5931 19.2386 42.6202 19.3735 42.6202C19.5083 42.6202 19.6432 42.5931 19.7781 42.539L20.776 41.9705C26.0356 39.0199 29.7308 35.3113 32.2662 31.5486C34.4779 28.2461 36.0692 24.5646 36.9593 20.7207C37.6336 17.8783 37.9573 14.9818 37.9573 12.0583C37.9573 10.7048 37.8764 9.3513 37.7145 7.99781L37.4988 6.64432C37.4718 6.53604 37.4448 6.42775 37.3909 6.31947C37.3369 6.23826 37.256 6.15706 37.1751 6.10292C37.0942 6.04878 36.9863 5.99464 36.8784 5.96757C36.7705 5.9405 36.6626 5.9405 36.5547 5.96757C36.4469 5.99464 36.339 6.02171 36.2311 6.07585C36.1502 6.12999 36.0692 6.2112 36.0153 6.29241C35.9614 6.37362 35.9074 6.48189 35.8804 6.59017V6.94208Z" fill="#BBCCDB"></path><path fill-rule="evenodd" clip-rule="evenodd" d="M7.31742 6.02157L19.401 2.20472L31.7272 6.10278C31.8351 6.12985 31.943 6.12985 32.0509 6.12985C32.1588 6.12985 32.2667 6.10278 32.3746 6.04864C32.4824 5.9945 32.5634 5.94036 32.6443 5.83208C32.7252 5.75087 32.7791 5.64259 32.7791 5.53431C32.8061 5.42603 32.8061 5.31775 32.8061 5.20947C32.8061 5.10119 32.7791 4.99292 32.7252 4.88464C32.6712 4.77636 32.6173 4.69515 32.5364 4.61394C32.4555 4.53273 32.3476 4.47859 32.2397 4.47859L19.6437 0.472245C19.4819 0.418106 19.32 0.418106 19.1582 0.472245L6.8589 4.37031C6.75101 4.39738 6.67009 4.45152 6.5622 4.50566C6.48129 4.58687 6.40037 4.66808 6.3734 4.77635C6.31945 4.88463 6.29248 4.99291 6.29248 5.10119C6.29248 5.20947 6.29248 5.31775 6.31945 5.42603C6.34642 5.53431 6.40037 5.64259 6.45431 5.7238C6.50826 5.80501 6.61615 5.88622 6.72403 5.94036C6.80495 5.9945 6.91284 6.02157 7.0477 6.02157C7.10165 6.04864 7.20953 6.04864 7.31742 6.02157Z" fill="#BBCCDB"></path><path fill-rule="evenodd" clip-rule="evenodd" d="M1.35636 7.18558L18.6455 42.1599C18.6995 42.2952 18.8074 42.4035 18.9152 42.4847C19.185 42.6471 19.5086 42.6471 19.7783 42.4847C19.9132 42.4035 20.0211 42.2952 20.102 42.1599L30.6481 21.7221L30.6751 21.695L37.4181 7.1585C37.4721 7.05022 37.4991 6.94195 37.4991 6.83367C37.4991 6.72539 37.4991 6.61711 37.4451 6.50883C37.4181 6.40055 37.3642 6.29227 37.2833 6.21106C37.2293 6.12985 37.1214 6.04864 37.0405 5.9945C36.9596 5.94036 36.8517 5.91329 36.7169 5.91329C36.609 5.91329 36.5011 5.91329 36.3932 5.94036C36.2853 5.96743 36.1774 6.02157 36.0965 6.10278C36.0156 6.18399 35.9347 6.2652 35.9077 6.37348L29.1647 20.91L19.3468 39.9401L2.78589 6.37348C2.73194 6.29227 2.65103 6.18399 2.59708 6.10278C2.51617 6.02157 2.40828 5.96743 2.30039 5.94036C2.1925 5.88622 2.08461 5.88622 1.97672 5.91329C1.86884 5.91329 1.76095 5.94036 1.65306 5.9945C1.57214 6.04864 1.46425 6.12985 1.41031 6.21106C1.35637 6.29227 1.30242 6.40055 1.27545 6.50883C1.24848 6.61711 1.2215 6.72539 1.24848 6.83367C1.27545 6.96902 1.30242 7.0773 1.35636 7.18558Z" fill="#BBCCDB"></path><path fill-rule="evenodd" clip-rule="evenodd" d="M9.63513 22.7777H28.8932C29.0011 22.7777 29.109 22.7506 29.2169 22.7235C29.3248 22.6965 29.4057 22.6153 29.4597 22.534C29.5406 22.4528 29.5945 22.3716 29.6215 22.2633C29.7024 22.0468 29.7024 21.8302 29.6215 21.6137C29.5945 21.5054 29.5136 21.4242 29.4597 21.343C29.3787 21.2618 29.2978 21.2076 29.2169 21.1535C29.109 21.1264 29.0011 21.0993 28.8932 21.0993H9.63513C9.52724 21.0993 9.41935 21.1264 9.31146 21.1535C9.20357 21.1806 9.12266 21.2618 9.06871 21.343C8.9878 21.4242 8.93385 21.5054 8.90688 21.6137C8.82596 21.8302 8.82596 22.0468 8.90688 22.2633C8.93385 22.3716 8.9878 22.4528 9.06871 22.534C9.14963 22.6153 9.23054 22.6694 9.31146 22.7235C9.41935 22.7506 9.52724 22.7506 9.63513 22.7777ZM63.3097 15.4959H50.7946C50.6867 15.4959 50.5789 15.5229 50.471 15.55C50.3631 15.5771 50.2822 15.6583 50.2282 15.7395C50.1473 15.8207 50.0934 15.9019 50.0664 16.0102C50.0394 16.1185 50.0124 16.2268 50.0124 16.335V26.7569C50.0124 26.8652 50.0394 26.9735 50.0664 27.0818C50.0934 27.1901 50.1473 27.2713 50.2282 27.3525C50.3091 27.4337 50.39 27.4878 50.471 27.542C50.5789 27.569 50.6867 27.5961 50.7946 27.5961H63.3097V29.3557H50.7946C50.6328 29.3557 50.471 29.3286 50.3091 29.3015C50.1473 29.2744 49.9855 29.2203 49.8236 29.1662C49.6618 29.112 49.5269 29.0308 49.3921 28.9496C49.2572 28.8413 49.1493 28.733 49.0145 28.6248C48.7717 28.3811 48.6099 28.1104 48.475 27.8127C48.4211 27.6502 48.3671 27.4878 48.3402 27.3254C48.3132 27.163 48.2862 27.0006 48.2862 26.8382V16.3621C48.2862 16.1997 48.3132 16.0373 48.3402 15.8749C48.3671 15.7124 48.4211 15.55 48.475 15.3876C48.529 15.2252 48.6099 15.0628 48.6908 14.9274C48.7717 14.7921 48.8796 14.6567 49.0145 14.5484C49.1224 14.4401 49.2572 14.3319 49.3921 14.2236C49.5269 14.1424 49.6618 14.0612 49.8236 14.007C49.9855 13.9529 50.1473 13.8987 50.3091 13.8717C50.471 13.8446 50.6328 13.8175 50.7946 13.8175H63.3097V15.4959ZM86.8025 13.7363V15.4959H74.7459V20.6662H84.4289V22.4528H74.7459V27.6232H86.8025V29.3827H73.0736V13.7363H86.8025Z" fill="#BBCCDB"></path><path d="M111.646 16.3895V20.9643C111.646 21.1267 111.619 21.2891 111.592 21.4515C111.565 21.6139 111.511 21.7764 111.457 21.9388C111.403 22.1012 111.322 22.2636 111.241 22.399C111.133 22.5343 111.052 22.6697 110.917 22.7779C110.81 22.8862 110.675 22.9945 110.54 23.1028C110.405 23.184 110.27 23.2652 110.108 23.3193C109.946 23.3735 109.785 23.4276 109.623 23.4818C109.461 23.5088 109.299 23.5359 109.137 23.5359H106.845L111.565 29.3559H109.299L104.606 23.5359H99.1036C98.8339 23.5359 98.5642 23.5088 98.2945 23.4547V29.3559H96.5952V13.7637H109.164C109.326 13.7637 109.488 13.7907 109.65 13.8178C109.812 13.8449 109.973 13.899 110.135 13.9532C110.297 14.0073 110.432 14.0885 110.567 14.1968C110.837 14.3863 111.052 14.6299 111.241 14.9006C111.322 15.036 111.403 15.1984 111.457 15.3608C111.511 15.5232 111.565 15.6856 111.592 15.8481C111.619 16.0375 111.646 16.227 111.646 16.3895ZM99.0767 21.8034H109.137C109.245 21.8034 109.353 21.7764 109.461 21.7493C109.569 21.7222 109.65 21.6681 109.704 21.5598C109.785 21.4786 109.839 21.3974 109.866 21.2891C109.892 21.1808 109.919 21.0725 109.919 20.9643V16.3895C109.919 16.1729 109.839 15.9563 109.704 15.7939C109.569 15.6315 109.353 15.5232 109.137 15.5232H99.0767C98.9688 15.5232 98.8609 15.5503 98.753 15.5774C98.6451 15.6044 98.5642 15.6856 98.5102 15.7668C98.4293 15.8481 98.3754 15.9293 98.3484 16.0375C98.3214 16.1458 98.2945 16.2541 98.2945 16.3624V20.9372C98.2945 21.1537 98.3754 21.3703 98.5642 21.5327C98.6721 21.6952 98.8879 21.8034 99.0767 21.8034Z" fill="#BBCCDB"></path><path fill-rule="evenodd" clip-rule="evenodd" d="M120.654 13.7363H135.705V15.4959H129.043V29.3557H127.343V15.4959H120.654V13.7363ZM144.875 29.3827V13.7634H146.575V29.3827H144.875ZM169.204 13.7363H171.389L165.104 21.5595L171.416 29.3827H169.204L163.594 22.4528H158.739V29.3827H157.04V13.7634H158.766V20.6933H163.621L169.204 13.7363Z" fill="#BBCCDB"></path></svg>