<svg xmlns="http://www.w3.org/2000/svg" width="57" height="57" viewBox="0 0 57 57" fill="none"><rect y="0.630615" width="56.3153" height="56.3153" rx="16.8946" fill="#2E3AA6"></rect><path d="M42.0801 15.7547C39.5194 14.5558 36.7735 13.6725 33.9025 13.1666C33.8502 13.1568 33.798 13.1812 33.7711 13.2301C33.4179 13.871 33.0267 14.7071 32.7528 15.3643C29.6648 14.8926 26.5927 14.8926 23.5681 15.3643C23.2941 14.6925 22.8887 13.871 22.534 13.2301C22.507 13.1829 22.4548 13.1585 22.4025 13.1666C19.5331 13.6709 16.7872 14.5542 14.2249 15.7547C14.2028 15.7645 14.1837 15.7808 14.1711 15.8019C8.96271 23.742 7.53591 31.4869 8.23585 39.1358C8.23902 39.1733 8.2596 39.209 8.28811 39.2318C11.7245 41.8069 15.0532 43.3702 18.3201 44.4064C18.3724 44.4227 18.4278 44.4032 18.461 44.3592C19.2338 43.2824 19.9227 42.1469 20.5133 40.9529C20.5482 40.8829 20.5149 40.8 20.4437 40.7723C19.351 40.3494 18.3106 39.8337 17.3097 39.2481C17.2306 39.2009 17.2242 39.0854 17.2971 39.0301C17.5077 38.869 17.7183 38.7015 17.9194 38.5323C17.9558 38.5014 18.0065 38.4949 18.0493 38.5144C24.6243 41.5776 31.7425 41.5776 38.2399 38.5144C38.2827 38.4932 38.3334 38.4998 38.3713 38.5307C38.5725 38.6998 38.7831 38.869 38.9953 39.0301C39.0681 39.0854 39.0634 39.2009 38.9842 39.2481C37.9834 39.8451 36.943 40.3494 35.8487 40.7707C35.7775 40.7984 35.7458 40.8829 35.7806 40.9529C36.3839 42.1453 37.0728 43.2807 37.8313 44.3576C37.863 44.4032 37.92 44.4227 37.9723 44.4064C41.255 43.3702 44.5837 41.8069 48.0201 39.2318C48.0502 39.209 48.0692 39.1749 48.0724 39.1375C48.91 30.2945 46.6693 22.6131 42.1323 15.8035C42.1212 15.7808 42.1023 15.7645 42.0801 15.7547ZM21.4952 34.4785C19.5157 34.4785 17.8846 32.624 17.8846 30.3466C17.8846 28.0691 19.484 26.2147 21.4952 26.2147C23.5221 26.2147 25.1374 28.0854 25.1057 30.3466C25.1057 32.624 23.5063 34.4785 21.4952 34.4785ZM34.8447 34.4785C32.8652 34.4785 31.2342 32.624 31.2342 30.3466C31.2342 28.0691 32.8336 26.2147 34.8447 26.2147C36.8717 26.2147 38.4869 28.0854 38.4553 30.3466C38.4553 32.624 36.8717 34.4785 34.8447 34.4785Z" fill="white"></path></svg>