<svg xmlns="http://www.w3.org/2000/svg" width="57" height="57" viewBox="0 0 57 57" fill="none"><rect y="0.315308" width="56.3153" height="56.3153" rx="16.8946" fill="white" fill-opacity="0.05"></rect><path fill-rule="evenodd" clip-rule="evenodd" d="M9.02124 28.9585C9.02124 37.6262 14.5039 44.9811 22.1081 47.5757C23.0655 47.7563 23.4144 47.1505 23.4144 46.6301C23.4144 46.1639 23.398 44.9305 23.3886 43.2935C18.0657 44.4788 16.9427 40.6629 16.9427 40.6629C16.0722 38.3959 14.8175 37.7925 14.8175 37.7925C13.08 36.5747 14.9491 36.6 14.9491 36.6C16.8698 36.7385 17.8801 38.6224 17.8801 38.6224C19.5882 41.6205 22.3595 40.7544 23.4497 40.2521C23.6235 38.9837 24.1181 38.1201 24.6644 37.6286C20.4153 37.1336 15.9476 35.4509 15.9476 27.9322C15.9476 25.7893 16.6936 24.0379 17.9177 22.666C17.7215 22.1697 17.0648 20.175 18.1057 17.4745C18.1057 17.4745 19.7128 16.9457 23.3674 19.4848C24.8946 19.05 26.5311 18.832 28.1581 18.8247C29.784 18.832 31.4204 19.05 32.95 19.4848C36.6023 16.9457 38.2071 17.4745 38.2071 17.4745C39.2502 20.175 38.5935 22.1697 38.3974 22.666C39.6238 24.0379 40.3639 25.7893 40.3639 27.9322C40.3639 35.4689 35.8904 37.1276 31.6272 37.6142C32.3144 38.2201 32.9253 39.4174 32.9253 41.2471C32.9253 43.8705 32.903 45.9869 32.903 46.6301C32.903 47.1553 33.2472 47.7648 34.2187 47.5732C41.8159 44.9739 47.2938 37.625 47.2938 28.9585C47.2938 18.1213 38.7251 9.33667 28.1558 9.33667C17.59 9.33667 9.02124 18.1213 9.02124 28.9585Z" fill="white"></path></svg>