<svg xmlns="http://www.w3.org/2000/svg" width="57" height="57" viewBox="0 0 57 57" fill="none"><rect width="56.3153" height="56.3153" rx="16.8946" fill="white" fill-opacity="0.05"></rect><path fill-rule="evenodd" clip-rule="evenodd" d="M18.3978 28.1576C18.3978 22.7672 22.7675 18.3975 28.1579 18.3975C33.5483 18.3975 37.918 22.7672 37.918 28.1576C37.918 33.548 33.5483 37.9177 28.1579 37.9177C22.7675 37.9177 18.3978 33.548 18.3978 28.1576ZM28.1579 34.4931C24.6589 34.4931 21.8224 31.6566 21.8224 28.1576C21.8224 24.6586 24.6589 21.8221 28.1579 21.8221C31.6569 21.8221 34.4934 24.6586 34.4934 28.1576C34.4934 31.6566 31.6569 34.4931 28.1579 34.4931Z" fill="white"></path><path d="M38.3036 20.2926C39.5632 20.2926 40.5844 19.2715 40.5844 18.0119C40.5844 16.7522 39.5632 15.7311 38.3036 15.7311C37.044 15.7311 36.0228 16.7522 36.0228 18.0119C36.0228 19.2715 37.044 20.2926 38.3036 20.2926Z" fill="white"></path><path fill-rule="evenodd" clip-rule="evenodd" d="M28.1579 9.15106C22.996 9.15106 22.3488 9.17294 20.3215 9.26544C18.2985 9.35771 16.9168 9.67904 15.7079 10.1489C14.458 10.6346 13.3981 11.2845 12.3414 12.3411C11.2848 13.3978 10.6349 14.4577 10.1492 15.7076C9.67934 16.9165 9.35802 18.2982 9.26574 20.3212C9.17325 22.3485 9.15137 22.9957 9.15137 28.1576C9.15137 33.3194 9.17325 33.9667 9.26574 35.9939C9.35802 38.017 9.67934 39.3986 10.1492 40.6076C10.6349 41.8574 11.2848 42.9174 12.3414 43.9741C13.3981 45.0307 14.458 45.6806 15.7079 46.1663C16.9168 46.6361 18.2985 46.9574 20.3215 47.0497C22.3488 47.1422 22.996 47.1641 28.1579 47.1641C33.3197 47.1641 33.967 47.1422 35.9942 47.0497C38.0173 46.9574 39.3989 46.6361 40.6079 46.1663C41.8577 45.6806 42.9177 45.0307 43.9744 43.9741C45.031 42.9174 45.6809 41.8574 46.1666 40.6076C46.6364 39.3986 46.9577 38.017 47.05 35.9939C47.1425 33.9667 47.1644 33.3194 47.1644 28.1576C47.1644 22.9957 47.1425 22.3485 47.05 20.3212C46.9577 18.2982 46.6364 16.9165 46.1666 15.7076C45.6809 14.4577 45.031 13.3978 43.9744 12.3411C42.9177 11.2845 41.8577 10.6346 40.6079 10.1489C39.3989 9.67904 38.0173 9.35771 35.9942 9.26544C33.967 9.17294 33.3197 9.15106 28.1579 9.15106ZM28.1579 12.5757C33.2328 12.5757 33.834 12.595 35.8381 12.6865C37.6913 12.771 38.6976 13.0806 39.3674 13.3409C40.2546 13.6857 40.8877 14.0976 41.5528 14.7627C42.2179 15.4278 42.6298 16.0609 42.9746 16.9481C43.2348 17.6178 43.5445 18.6242 43.629 20.4773C43.7204 22.4815 43.7398 23.0826 43.7398 28.1576C43.7398 33.2325 43.7204 33.8337 43.629 35.8378C43.5445 37.691 43.2348 38.6973 42.9746 39.3671C42.6298 40.2542 42.2179 40.8874 41.5528 41.5525C40.8877 42.2176 40.2546 42.6295 39.3674 42.9742C38.6976 43.2345 37.6913 43.5442 35.8381 43.6287C33.8343 43.7201 33.2332 43.7395 28.1579 43.7395C23.0826 43.7395 22.4816 43.7201 20.4776 43.6287C18.6245 43.5442 17.6181 43.2345 16.9484 42.9742C16.0612 42.6295 15.4281 42.2176 14.763 41.5525C14.0979 40.8874 13.686 40.2542 13.3412 39.3671C13.0809 38.6973 12.7713 37.691 12.6868 35.8378C12.5954 33.8337 12.576 33.2325 12.576 28.1576C12.576 23.0826 12.5954 22.4815 12.6868 20.4773C12.7713 18.6242 13.0809 17.6178 13.3412 16.9481C13.686 16.0609 14.0979 15.4278 14.763 14.7627C15.4281 14.0976 16.0612 13.6857 16.9484 13.3409C17.6181 13.0806 18.6245 12.771 20.4776 12.6865C22.4818 12.595 23.0829 12.5757 28.1579 12.5757Z" fill="white"></path></svg>