<svg xmlns="http://www.w3.org/2000/svg" width="57" height="57" viewBox="0 0 57 57" fill="none"><rect x="0.31543" y="0.315308" width="56.3153" height="56.3153" rx="16.8946" fill="#103B41"></rect><path fill-rule="evenodd" clip-rule="evenodd" d="M26.1724 28.5591C26.1724 27.6878 26.8515 26.9293 27.7652 26.9293C28.6823 26.9293 29.4201 27.6913 29.4214 28.6226C29.4628 35.6148 28.3182 41.0851 27.3873 44.4626C27.1805 45.2123 26.5171 45.6974 25.7931 45.6974C24.352 45.6974 24.0141 44.2368 24.2589 43.4819C25.6122 38.5711 26.2499 33.6569 26.1724 28.5591ZM20.5941 28.2981C20.532 24.481 23.4211 21.1507 27.7031 21.1648C31.6334 21.2212 34.8742 24.4668 34.9377 28.478C34.9389 28.5482 34.9401 28.6173 34.9412 28.6852C34.9983 32.0302 35.009 32.6571 34.4516 36.0525C34.3999 36.3876 33.9255 37.6837 32.5554 37.4544C31.6506 37.2957 31.0387 36.3594 31.1853 35.5057C31.7002 32.342 31.6908 31.8372 31.6369 28.9541C31.634 28.799 31.631 28.637 31.6279 28.4674C31.6017 26.3415 29.8179 24.5868 27.6549 24.5515C25.2139 24.5374 23.8762 26.4072 23.9031 28.3087C23.9548 31.8718 23.6273 35.504 22.9123 39.0403C22.7226 39.9572 21.7904 40.5393 20.9561 40.3541C20.0599 40.1601 19.4825 39.2061 19.6721 38.3524C20.3355 35.0623 20.6458 31.6756 20.5941 28.2981ZM17.7394 20.0077C18.3255 19.2809 19.3598 19.1751 20.0769 19.7678C20.7871 20.3604 20.8905 21.4188 20.2493 22.1526C19.015 23.7754 18.3531 25.751 18.3186 27.8536C18.3704 30.7309 18.1376 33.6061 17.6464 36.4192C17.6477 36.7367 17.1651 38.0328 15.7777 37.7858C14.8813 37.6186 14.2866 36.6732 14.4504 35.8194C14.9071 33.2279 15.114 30.5644 15.0709 27.91C15.0282 25.0454 15.9845 22.2302 17.7394 20.0077ZM24.4623 15.7206C25.4897 15.4652 26.5585 15.3417 27.5583 15.3679C34.5915 15.4737 40.3491 21.2354 40.466 28.1979C40.4872 29.583 40.5165 30.0292 40.5039 30.4743C40.4908 30.9357 40.4327 31.3959 40.2738 32.9003C40.2048 33.5529 39.6015 34.468 38.4465 34.3904C37.5418 34.2211 36.8868 33.4464 36.9902 32.5207C37.0472 31.5609 37.0888 31.0712 37.1174 30.7343C37.1721 30.0886 37.1793 30.0046 37.1566 28.2487C37.067 23.091 32.776 18.8311 27.579 18.7518C26.7723 18.7447 25.9931 18.8364 25.1677 19.01C24.2713 19.2217 23.4456 18.6657 23.2301 17.7576C23.0233 16.786 23.5749 15.8688 24.4623 15.7206ZM43.0293 23.4619C43.934 23.2594 44.8052 23.905 45.0035 24.7587C45.4264 26.7269 45.4174 28.2671 45.4085 29.8054L45.4082 29.8557C45.3993 30.7906 44.6408 31.5399 43.7361 31.5399C42.8225 31.5307 42.0898 30.7638 42.0985 29.8289C42.1071 28.1271 42.0985 26.9982 41.7709 25.4812C41.573 24.5731 42.195 23.6647 43.0293 23.4619ZM27.4687 9.57233C33.3228 9.65699 38.8149 12.6437 42.1764 17.5382C42.7625 18.3072 42.5211 19.3515 41.8295 19.893C41.08 20.431 40.0543 20.2454 39.5286 19.4785C36.7774 15.4744 32.2726 12.9682 27.4894 12.9612C23.6052 12.9082 19.9852 14.3808 17.305 17.1148C14.7434 19.7325 13.3733 23.218 13.3633 26.9229L13.3547 28.5895C13.3905 29.5067 12.5962 30.2384 11.7618 30.2384C11.7446 30.2384 11.7274 30.2384 11.7101 30.2313C10.7965 30.2031 10.0811 29.427 10.0466 28.4858L10.0553 26.9688C9.9863 22.3403 11.7081 17.9919 14.9054 14.7201C18.2152 11.325 22.6599 9.51059 27.4687 9.57233ZM37.2161 47.375C36.9741 47.3743 36.7348 47.3237 36.5131 47.2265C36.2925 47.1298 36.094 46.989 35.9299 46.8128L31.7411 42.3568C31.4206 42.0152 31.2483 41.5597 31.2632 41.0914C31.2781 40.6232 31.4783 40.1801 31.82 39.8596C32.1616 39.539 32.6165 39.3673 33.0847 39.3822C33.5529 39.3971 33.996 39.5974 34.3165 39.9389L37.2017 43.0132L43.7792 35.8178C43.9261 35.642 44.1058 35.4963 44.3085 35.3891C44.5212 35.2766 44.7546 35.2087 44.9945 35.1896C45.2343 35.1706 45.4756 35.2008 45.7034 35.2784C45.9311 35.356 46.1406 35.4793 46.319 35.6408C46.4974 35.8023 46.6409 35.9986 46.7406 36.2176C46.8404 36.4365 46.8943 36.6736 46.8992 36.9142C46.904 37.1547 46.8596 37.3938 46.7686 37.6165C46.6814 37.8304 46.553 38.0249 46.3909 38.1892L38.5276 46.7924L38.5253 46.7949C38.3627 46.9745 38.1649 47.1186 37.9441 47.2184C37.7224 47.3186 37.4823 47.3719 37.2389 47.375L37.2277 47.3751L37.2161 47.375ZM37.8571 46.1874L45.738 37.565C45.8219 37.4827 45.8881 37.3841 45.9325 37.2753C45.9769 37.1665 45.9986 37.0497 45.9962 36.9322C45.9958 36.9091 45.9944 36.8861 45.9921 36.8631C45.9943 36.8857 45.9957 36.9084 45.9961 36.9312C45.9985 37.0487 45.9768 37.1655 45.9324 37.2743C45.888 37.3831 45.8218 37.4817 45.7379 37.564L37.857 46.1864C37.7774 46.2746 37.6803 46.3454 37.572 46.3944C37.4637 46.4434 37.3464 46.4694 37.2276 46.4709H37.219C37.1007 46.4705 36.9838 46.4458 36.8756 46.3984C36.7673 46.3509 36.6699 46.2817 36.5895 46.195L32.399 41.7372C32.2681 41.5977 32.188 41.4194 32.1695 41.231C32.1878 41.4198 32.268 41.5984 32.3991 41.7382L36.5896 46.196C36.67 46.2827 36.7674 46.3519 36.8757 46.3994C36.9839 46.4468 37.1008 46.4715 37.219 46.4719H37.2277C37.3465 46.4704 37.4638 46.4444 37.5721 46.3954C37.6804 46.3465 37.7775 46.2756 37.8571 46.1874Z" fill="white"></path></svg>