<svg xmlns="http://www.w3.org/2000/svg" width="172" height="46" viewBox="0 0 172 46" fill="none"><path d="M126.109 23.6218C124.597 23.0723 123.017 22.7182 121.48 22.2355C120.755 22.0248 120.054 21.7367 119.388 21.3759C117.735 20.4319 117.585 18.3145 119.06 17.1021C120.283 16.0938 121.719 16.0207 123.177 16.2489C124.719 16.4883 125.869 17.2697 126.273 18.9371C126.315 19.0321 126.37 19.1211 126.434 19.2018C127.605 19.1829 128.792 19.2762 129.957 19.1514C130.039 18.0423 129.619 16.7568 128.912 15.7913C127.689 14.1214 126.005 13.2707 124.046 12.9644C121.32 12.5485 118.725 12.8522 116.433 14.6117C113.482 16.8803 113.155 21.9695 116.763 24.1285C117.968 24.8507 119.278 25.2527 120.605 25.6409C121.99 26.0404 123.399 26.3971 124.73 26.9529C126.631 27.7393 127.055 29.8063 125.686 31.2859C125.404 31.581 125.077 31.8251 124.716 32.0081C123.268 32.7643 121.732 32.787 120.204 32.3799C118.736 31.9905 117.699 31.083 117.404 29.4597C117.374 29.3567 117.333 29.2574 117.282 29.1635H113.636C113.621 29.4015 113.621 29.6402 113.636 29.8781C113.96 32.3383 115.198 34.1456 117.429 35.0934C120.513 36.4067 123.657 36.3966 126.728 35.0632C129.915 33.6768 131.301 29.6626 129.695 26.6416C128.906 25.1355 127.627 24.1739 126.109 23.6218Z" fill="#FDEAF1"></path><path d="M126.109 23.6218C124.597 23.0723 123.017 22.7182 121.48 22.2355C120.755 22.0248 120.054 21.7367 119.388 21.3759C117.735 20.4319 117.585 18.3145 119.06 17.1021C120.283 16.0938 121.719 16.0207 123.177 16.2489C124.719 16.4883 125.869 17.2697 126.273 18.9371C126.315 19.0321 126.37 19.1211 126.434 19.2018C127.605 19.1829 128.792 19.2762 129.957 19.1514C130.039 18.0423 129.619 16.7568 128.912 15.7913C127.689 14.1214 126.005 13.2707 124.046 12.9644C121.32 12.5485 118.725 12.8522 116.433 14.6117C113.482 16.8803 113.155 21.9695 116.763 24.1285C117.968 24.8507 119.278 25.2527 120.605 25.6409C121.99 26.0404 123.399 26.3971 124.73 26.9529C126.631 27.7393 127.055 29.8063 125.686 31.2859C125.404 31.581 125.077 31.8251 124.716 32.0081C123.268 32.7643 121.732 32.787 120.204 32.3799C118.736 31.9905 117.699 31.083 117.404 29.4597C117.374 29.3567 117.333 29.2574 117.282 29.1635H113.636C113.621 29.4015 113.621 29.6402 113.636 29.8781C113.96 32.3383 115.198 34.1456 117.429 35.0934C120.513 36.4067 123.657 36.3966 126.728 35.0632C129.915 33.6768 131.301 29.6626 129.695 26.6416C128.906 25.1355 127.627 24.1739 126.109 23.6218Z" fill="#BBCCDB"></path><path d="M68.3791 15.3712C66.8986 13.7983 65.0376 13.1606 62.9734 13.1278C60.3072 13.085 57.6398 13.1165 54.9724 13.119C54.7779 13.119 54.5833 13.1555 54.3496 13.1795V35.6034H58.1708V28.0679C58.489 28.0401 58.7166 28.0061 58.9454 28.0036C60.4039 27.9847 61.8661 28.0263 63.3209 27.9456C65.4817 27.8284 67.3942 27.081 68.7683 25.2598C70.0371 23.5798 70.3173 21.62 70.1374 19.5669C69.9943 17.9776 69.4804 16.537 68.3791 15.3712ZM66.2318 21.0276C66.0372 23.2634 64.7206 24.5704 62.5304 24.7078C61.2261 24.7897 59.9157 24.738 58.6077 24.7406C58.4762 24.7269 58.3463 24.7004 58.2198 24.6612V16.537C58.2859 16.4904 58.314 16.4551 58.3421 16.4551C59.9475 16.4853 61.5736 16.3631 63.1533 16.5811C65.5221 16.9151 66.4214 18.7918 66.2293 21.0276H66.2318Z" fill="#FDEAF1"></path><path d="M68.3791 15.3712C66.8986 13.7983 65.0376 13.1606 62.9734 13.1278C60.3072 13.085 57.6398 13.1165 54.9724 13.119C54.7779 13.119 54.5833 13.1555 54.3496 13.1795V35.6034H58.1708V28.0679C58.489 28.0401 58.7166 28.0061 58.9454 28.0036C60.4039 27.9847 61.8661 28.0263 63.3209 27.9456C65.4817 27.8284 67.3942 27.081 68.7683 25.2598C70.0371 23.5798 70.3173 21.62 70.1374 19.5669C69.9943 17.9776 69.4804 16.537 68.3791 15.3712ZM66.2318 21.0276C66.0372 23.2634 64.7206 24.5704 62.5304 24.7078C61.2261 24.7897 59.9157 24.738 58.6077 24.7406C58.4762 24.7269 58.3463 24.7004 58.2198 24.6612V16.537C58.2859 16.4904 58.314 16.4551 58.3421 16.4551C59.9475 16.4853 61.5736 16.3631 63.1533 16.5811C65.5221 16.9151 66.4214 18.7918 66.2293 21.0276H66.2318Z" fill="#BBCCDB"></path><path d="M112.093 18.8428C111.745 18.8201 111.565 18.7987 111.387 18.7974C110.397 18.7974 109.407 18.8188 108.417 18.7861C107.915 18.771 107.577 18.96 107.25 19.3431C105.543 21.3395 103.817 23.317 102.091 25.297C101.968 25.419 101.835 25.5303 101.694 25.6297L101.494 25.5755C101.494 21.4542 101.494 17.3316 101.494 13.1826H97.7451V35.599H101.495V34.9688C101.495 33.5824 101.554 32.1961 101.478 30.8223C101.412 29.6073 102.335 29.1939 102.947 28.4277C103.191 28.7453 103.377 28.9646 103.541 29.2002C104.947 31.2168 106.355 33.2434 107.748 35.2776C107.831 35.4155 107.949 35.5272 108.089 35.6006C108.229 35.674 108.386 35.7061 108.543 35.6935C109.666 35.6796 110.791 35.6935 111.915 35.6859C112.072 35.6859 112.229 35.6507 112.508 35.6179L105.832 26.0658L112.093 18.8428Z" fill="#FDEAF1"></path><path d="M112.093 18.8428C111.745 18.8201 111.565 18.7987 111.387 18.7974C110.397 18.7974 109.407 18.8188 108.417 18.7861C107.915 18.771 107.577 18.96 107.25 19.3431C105.543 21.3395 103.817 23.317 102.091 25.297C101.968 25.419 101.835 25.5303 101.694 25.6297L101.494 25.5755C101.494 21.4542 101.494 17.3316 101.494 13.1826H97.7451V35.599H101.495V34.9688C101.495 33.5824 101.554 32.1961 101.478 30.8223C101.412 29.6073 102.335 29.1939 102.947 28.4277C103.191 28.7453 103.377 28.9646 103.541 29.2002C104.947 31.2168 106.355 33.2434 107.748 35.2776C107.831 35.4155 107.949 35.5272 108.089 35.6006C108.229 35.674 108.386 35.7061 108.543 35.6935C109.666 35.6796 110.791 35.6935 111.915 35.6859C112.072 35.6859 112.229 35.6507 112.508 35.6179L105.832 26.0658L112.093 18.8428Z" fill="#BBCCDB"></path><path d="M171.382 28.2465C171.452 26.3345 171.356 24.5562 170.66 22.8661C169.629 20.3605 167.713 19.0321 165.164 18.6427C161.712 18.1146 158.122 19.6699 156.762 23.6374C156 25.8193 155.933 28.1942 156.569 30.418C157.372 33.2979 159.189 35.1619 162.076 35.7656C164.547 36.2824 166.928 36.0442 169.061 34.523C170.141 33.7516 170.846 32.6854 171.202 31.2284L167.799 30.8339C166.346 32.9072 164.331 33.526 162.342 32.6388C160.69 31.9015 159.797 30.0336 160.006 28.2465H171.382ZM161.612 22.3229C162.958 21.3146 164.933 21.3146 166.279 22.3052C167.292 23.0526 167.963 24.6016 167.672 25.654H160.071C159.791 24.6848 160.514 23.1396 161.615 22.3191L161.612 22.3229Z" fill="#FDEAF1"></path><path d="M171.382 28.2465C171.452 26.3345 171.356 24.5562 170.66 22.8661C169.629 20.3605 167.713 19.0321 165.164 18.6427C161.712 18.1146 158.122 19.6699 156.762 23.6374C156 25.8193 155.933 28.1942 156.569 30.418C157.372 33.2979 159.189 35.1619 162.076 35.7656C164.547 36.2824 166.928 36.0442 169.061 34.523C170.141 33.7516 170.846 32.6854 171.202 31.2284L167.799 30.8339C166.346 32.9072 164.331 33.526 162.342 32.6388C160.69 31.9015 159.797 30.0336 160.006 28.2465H171.382ZM161.612 22.3229C162.958 21.3146 164.933 21.3146 166.279 22.3052C167.292 23.0526 167.963 24.6016 167.672 25.654H160.071C159.791 24.6848 160.514 23.1396 161.615 22.3191L161.612 22.3229Z" fill="#BBCCDB"></path><path d="M144.198 19.7262C142.215 18.4923 140.057 18.3033 137.835 18.7482C135.845 19.1477 134.238 20.1484 133.283 22.0692C133.136 22.4161 133.006 22.7708 132.894 23.1317L136.354 23.6244C137.321 21.7755 138.802 21.3105 140.582 21.5777C141.821 21.7629 142.574 22.6288 142.672 23.9269C142.732 24.7197 142.485 25.1721 141.735 25.3486C140.889 25.5465 140.014 25.6133 139.165 25.7796C137.835 26.0317 136.461 26.1829 135.196 26.6379C132.581 27.5806 131.509 30.7428 132.802 33.2837C133.583 34.8213 134.854 35.6266 136.467 35.8787C138.854 36.2505 140.994 35.8598 142.463 33.6101C142.513 33.5332 142.605 33.4841 142.793 33.329C142.831 34.1596 142.864 34.8767 142.901 35.667C144.124 35.6317 145.258 35.7615 146.393 35.5913C146.412 35.4212 146.432 35.3393 146.432 35.2523C146.432 31.3818 146.48 27.5101 146.407 23.6408C146.363 21.9923 145.617 20.6097 144.198 19.7262ZM141.75 31.9679C140.535 33.1803 139.081 33.4916 137.474 32.9572C136.495 32.6321 136.006 31.9616 135.965 30.9861C135.934 30.5239 136.052 30.0641 136.302 29.6787C136.551 29.2932 136.918 29.0039 137.344 28.8561C137.945 28.6432 138.561 28.4789 139.187 28.3646C140.166 28.1554 141.161 27.9865 142.149 27.7924L142.633 27.6991C142.702 29.267 142.939 30.7869 141.753 31.9679H141.75Z" fill="#FDEAF1"></path><path d="M144.198 19.7262C142.215 18.4923 140.057 18.3033 137.835 18.7482C135.845 19.1477 134.238 20.1484 133.283 22.0692C133.136 22.4161 133.006 22.7708 132.894 23.1317L136.354 23.6244C137.321 21.7755 138.802 21.3105 140.582 21.5777C141.821 21.7629 142.574 22.6288 142.672 23.9269C142.732 24.7197 142.485 25.1721 141.735 25.3486C140.889 25.5465 140.014 25.6133 139.165 25.7796C137.835 26.0317 136.461 26.1829 135.196 26.6379C132.581 27.5806 131.509 30.7428 132.802 33.2837C133.583 34.8213 134.854 35.6266 136.467 35.8787C138.854 36.2505 140.994 35.8598 142.463 33.6101C142.513 33.5332 142.605 33.4841 142.793 33.329C142.831 34.1596 142.864 34.8767 142.901 35.667C144.124 35.6317 145.258 35.7615 146.393 35.5913C146.412 35.4212 146.432 35.3393 146.432 35.2523C146.432 31.3818 146.48 27.5101 146.407 23.6408C146.363 21.9923 145.617 20.6097 144.198 19.7262ZM141.75 31.9679C140.535 33.1803 139.081 33.4916 137.474 32.9572C136.495 32.6321 136.006 31.9616 135.965 30.9861C135.934 30.5239 136.052 30.0641 136.302 29.6787C136.551 29.2932 136.918 29.0039 137.344 28.8561C137.945 28.6432 138.561 28.4789 139.187 28.3646C140.166 28.1554 141.161 27.9865 142.149 27.7924L142.633 27.6991C142.702 29.267 142.939 30.7869 141.753 31.9679H141.75Z" fill="#BBCCDB"></path><path d="M94.2494 23.4048C93.9924 21.0845 92.5804 19.3793 90.4343 18.7693C88.1731 18.1265 85.2512 18.7693 84.0154 21.3127C83.9546 21.4049 83.8836 21.4895 83.8037 21.5647L83.6349 21.5458V18.8487H80.0645V35.6112H83.7119C83.7303 35.3301 83.7609 35.0957 83.7609 34.855C83.7609 31.7974 83.7609 28.7398 83.7609 25.6823C83.7694 23.6972 84.7251 22.3537 86.3855 21.9378C88.0459 21.5219 89.6181 22.1369 90.2079 23.604C90.4991 24.3299 90.5884 25.1806 90.6007 25.9772C90.6447 28.9138 90.6178 31.8504 90.6215 34.7869C90.6215 35.0529 90.657 35.3201 90.6765 35.5873H94.3681V34.8953C94.3681 31.7445 94.3681 28.6075 94.3681 25.463C94.365 24.7752 94.3253 24.0881 94.2494 23.4048Z" fill="#FDEAF1"></path><path d="M94.2494 23.4048C93.9924 21.0845 92.5804 19.3793 90.4343 18.7693C88.1731 18.1265 85.2512 18.7693 84.0154 21.3127C83.9546 21.4049 83.8836 21.4895 83.8037 21.5647L83.6349 21.5458V18.8487H80.0645V35.6112H83.7119C83.7303 35.3301 83.7609 35.0957 83.7609 34.855C83.7609 31.7974 83.7609 28.7398 83.7609 25.6823C83.7694 23.6972 84.7251 22.3537 86.3855 21.9378C88.0459 21.5219 89.6181 22.1369 90.2079 23.604C90.4991 24.3299 90.5884 25.1806 90.6007 25.9772C90.6447 28.9138 90.6178 31.8504 90.6215 34.7869C90.6215 35.0529 90.657 35.3201 90.6765 35.5873H94.3681V34.8953C94.3681 31.7445 94.3681 28.6075 94.3681 25.463C94.365 24.7752 94.3253 24.0881 94.2494 23.4048Z" fill="#BBCCDB"></path><path d="M149.808 35.5437C150.335 35.7529 153.054 35.7214 153.443 35.5109V13.1689H149.808V35.5437Z" fill="#FDEAF1"></path><path d="M149.808 35.5437C150.335 35.7529 153.054 35.7214 153.443 35.5109V13.1689H149.808V35.5437Z" fill="#BBCCDB"></path><path d="M72.9482 35.6092H76.5578V18.8467H72.9482V35.6092Z" fill="#FDEAF1"></path><path d="M72.9482 35.6092H76.5578V18.8467H72.9482V35.6092Z" fill="#BBCCDB"></path><path d="M74.7321 12.0128C73.4693 12.0254 72.5455 12.9442 72.5688 14.1554C72.592 15.3288 73.5562 16.2299 74.7712 16.2173C75.9862 16.2047 76.9149 15.2859 76.9064 14.0886C76.8978 12.8913 75.9544 12.0002 74.7321 12.0128Z" fill="#FDEAF1"></path><path d="M74.7321 12.0128C73.4693 12.0254 72.5455 12.9442 72.5688 14.1554C72.592 15.3288 73.5562 16.2299 74.7712 16.2173C75.9862 16.2047 76.9149 15.2859 76.9064 14.0886C76.8978 12.8913 75.9544 12.0002 74.7321 12.0128Z" fill="#BBCCDB"></path><path d="M43.49 15.7711C41.9921 11.4766 39.2352 7.75318 35.5916 5.10365C31.948 2.45412 27.5931 1.00608 23.1149 0.955078H22.6316C19.7598 0.964152 16.9179 1.5487 14.2681 2.67536C11.6184 3.80202 9.21261 5.44871 7.18825 7.52142C3.09987 11.7075 0.81315 17.3746 0.83116 23.2763C0.840078 26.1984 1.41455 29.0902 2.52178 31.7865C3.62901 34.4828 5.24732 36.9307 7.28429 38.9906C9.32126 41.0505 11.737 42.682 14.3936 43.7918C17.0502 44.9017 19.8957 45.4683 22.7675 45.4592H22.8482C26.3509 45.4642 29.8035 44.6128 32.9154 42.9769C36.0274 41.341 38.7076 38.9684 40.7305 36.0588C42.7534 33.1491 44.0599 29.7876 44.5399 26.257C45.0199 22.7265 44.6594 19.1303 43.4887 15.7711H43.49ZM12.5335 26.6242C11.4396 27.3413 9.87829 27.1994 8.94348 26.2718C8.53817 25.8919 8.24441 25.4049 8.09491 24.8652C7.94541 24.3254 7.94602 23.754 8.09669 23.2146C8.24735 22.6752 8.54216 22.1889 8.94829 21.8098C9.35443 21.4308 9.85597 21.1738 10.3971 21.0675C11.9755 20.7115 13.6628 21.9055 13.899 23.5278C13.9991 24.1238 13.9225 24.7366 13.6788 25.2881C13.4352 25.8396 13.0356 26.3048 12.531 26.6242H12.5335ZM14.474 15.984C14.4402 15.9741 14.4074 15.9608 14.3762 15.9442L14.3492 15.9268L14.3235 15.9093C14.3146 15.9033 14.3063 15.8962 14.2991 15.8882C14.2991 15.8882 14.2991 15.8882 14.2917 15.8882C14.2844 15.8882 14.2771 15.8757 14.2697 15.8695C14.2624 15.8633 14.2697 15.8695 14.2697 15.8695C14.2614 15.8622 14.2536 15.8543 14.2465 15.8458C14.2364 15.8348 14.227 15.8231 14.2183 15.811C14.2127 15.805 14.2077 15.7983 14.2036 15.791C14.1946 15.7792 14.1865 15.7667 14.1792 15.7537C14.1723 15.7433 14.1662 15.7325 14.1608 15.7213C14.14 15.6819 14.124 15.6401 14.1131 15.5968C14.112 15.5906 14.112 15.5843 14.1131 15.5781C14.1054 15.5479 14.1001 15.5171 14.0972 15.486C14.096 15.4661 14.096 15.4461 14.0972 15.4262C14.0959 15.4088 14.0959 15.3914 14.0972 15.374C14.0966 15.3686 14.0966 15.3631 14.0972 15.3578C14.0961 15.3483 14.0961 15.3386 14.0972 15.3291C14.0959 15.3242 14.0959 15.3191 14.0972 15.3142C14.096 15.3072 14.096 15.3 14.0972 15.293C14.0987 15.285 14.1007 15.2771 14.1033 15.2694C14.1059 15.2586 14.1096 15.2482 14.1143 15.2382C14.1138 15.2358 14.1138 15.2332 14.1143 15.2308C14.1157 15.2246 14.1182 15.2186 14.1217 15.2133C14.1368 15.1762 14.157 15.1415 14.1816 15.11L14.2036 15.0826C14.2178 15.0671 14.2329 15.0526 14.2489 15.039C14.2586 15.0301 14.2688 15.0217 14.2795 15.0141L14.3248 14.9843L14.3676 14.9519C14.3975 14.9333 14.4295 14.9187 14.463 14.9083L14.501 14.8971L14.5658 14.8847C14.5829 14.8847 14.6001 14.8847 14.6184 14.8847H14.6723C14.7653 14.8847 14.8619 14.8847 14.9525 14.8847H15.0136H15.2216H15.5447H16.1063C16.6055 14.8847 17.1047 14.8847 17.6052 14.8847C18.0542 14.8847 18.5021 14.8847 18.9511 14.8847C19.2342 14.8847 19.5168 14.8905 19.7991 14.9021C20.4108 14.9892 20.3619 15.9878 19.7501 16.0226C18.0281 16.0367 16.3049 16.0367 14.5805 16.0226C14.5429 16.0138 14.5064 16.0009 14.4716 15.984H14.474ZM15.563 23.8066C15.563 22.2296 15.563 20.6488 15.563 19.0643C15.5539 18.7934 15.6281 18.5264 15.7752 18.3005C15.9224 18.0746 16.1353 17.9011 16.384 17.8043C17.1182 17.4968 18.0432 18.0819 18.0506 18.8949C18.0628 20.5322 18.0506 22.1682 18.0506 23.8054C18.1227 24.5288 17.4608 25.1999 16.7523 25.1351C16.0843 25.1376 15.5178 24.4827 15.5606 23.8066H15.563ZM28.8535 30.9632C26.6144 32.1148 24.0816 32.7872 21.5635 32.5618C19.8505 32.395 18.1301 31.8521 16.745 30.7901C16.2421 30.4602 16.2874 29.6472 16.805 29.3546C17.1047 29.1404 17.5024 29.2139 17.7753 29.4367C19.0857 30.3867 20.7033 30.8436 22.3025 30.8822C24.3263 30.9408 26.3122 30.3319 28.1096 29.423C28.2084 29.3678 28.317 29.3332 28.4291 29.3213C28.5411 29.3094 28.6544 29.3204 28.7623 29.3537C28.8701 29.387 28.9703 29.4419 29.057 29.5152C29.1437 29.5885 29.2151 29.6786 29.2671 29.7804C29.5118 30.2012 29.2842 30.7801 28.8511 30.9632H28.8535ZM30.1089 19.8001C30.0942 21.2792 30.1175 22.7608 30.1004 24.2387C30.1004 25.0069 29.2769 25.6269 28.555 25.4128C28.2928 25.3471 28.0588 25.1962 27.8886 24.9829C27.7183 24.7697 27.6211 24.5058 27.6116 24.2312C27.6018 22.6052 27.6116 20.9791 27.6116 19.3531C27.6003 19.0763 27.6783 18.8034 27.8335 18.5758C27.9887 18.3483 28.2127 18.1785 28.4714 18.0924C28.7302 18.0063 29.0095 18.0085 29.2668 18.0988C29.5242 18.189 29.7456 18.3624 29.8972 18.5924C30.1468 18.941 30.1089 19.3917 30.1089 19.8001ZM31.4708 15.7873C31.3117 16.0363 30.9972 16.0114 30.7439 16.0164C29.1533 15.999 27.5541 16.0239 25.9598 16.0064C25.9186 16.0069 25.8775 16.0023 25.8374 15.9927C25.8018 15.9844 25.7673 15.9719 25.7346 15.9554C25.6706 15.9228 25.614 15.877 25.5682 15.8209C25.5566 15.8072 25.5459 15.7927 25.5364 15.7773C25.525 15.7634 25.5156 15.7479 25.5083 15.7313C25.4989 15.7158 25.4907 15.6995 25.4838 15.6827C25.4764 15.6653 25.4691 15.6491 25.463 15.6317C25.4448 15.5803 25.4332 15.5267 25.4287 15.4723C25.4287 15.4536 25.4287 15.435 25.4287 15.4175C25.4287 15.4001 25.4287 15.3877 25.4287 15.374C25.4287 15.3603 25.4287 15.359 25.4287 15.3528C25.428 15.3462 25.428 15.3395 25.4287 15.3329C25.4287 15.3204 25.4287 15.308 25.4287 15.2955L25.4361 15.2619C25.4592 15.1762 25.5044 15.0984 25.567 15.0365C25.5755 15.0272 25.5849 15.0189 25.5951 15.0116C25.6112 14.9978 25.6284 14.9853 25.6465 14.9743C25.6507 14.97 25.6557 14.9666 25.6612 14.9643L25.6918 14.9469C25.8864 14.8149 26.1421 14.8822 26.3648 14.8585C27.9224 14.8759 29.4812 14.8485 31.0376 14.8685C31.483 14.8535 31.7828 15.4549 31.472 15.7873H31.4708ZM36.5388 26.4412C36.1825 26.7222 35.7682 26.9174 35.327 27.012C34.8859 27.1066 34.4294 27.0981 33.9919 26.9872C33.5545 26.8762 33.1474 26.6658 32.8015 26.3717C32.4555 26.0775 32.1796 25.7074 31.9946 25.2891C31.8095 24.8707 31.7201 24.4151 31.7332 23.9566C31.7462 23.498 31.8613 23.0485 32.0698 22.6417C32.2782 22.235 32.5747 21.8816 32.9368 21.6083C33.2989 21.335 33.7171 21.1488 34.1602 21.0638C35.6285 20.7476 37.1849 21.7411 37.5764 23.2028C37.7402 23.7862 37.7291 24.4061 37.5444 24.9831C37.3598 25.56 37.0101 26.0678 36.54 26.4412H36.5388ZM40.0419 16.2318C39.9501 16.2679 39.8559 16.304 39.7617 16.3376L39.6198 16.3887L39.5586 16.4098L39.2625 16.5094L38.904 16.6339L38.6593 16.7198C38.614 16.7348 38.5712 16.751 38.5271 16.7684C38.4513 16.7958 38.3754 16.8244 38.2995 16.8556L38.1405 16.9215C38.0756 16.9502 38.0096 16.9788 37.9472 17.0087L37.93 17.0162L37.7942 17.0846L37.6449 17.1656C37.3072 18.1317 37.0331 19.1191 36.7321 20.0989C36.3014 19.1415 36.0971 18.0931 35.7386 17.1033C34.8931 16.7784 34.0366 16.4908 33.1923 16.1621C34.028 15.811 34.898 15.5545 35.7435 15.232C36.0518 14.1264 36.3748 13.0221 36.6661 11.9115C36.8349 12.1331 36.8667 12.4207 36.9401 12.6834C37.1237 13.4068 37.35 14.1189 37.5348 14.8423C37.596 14.9955 37.596 15.2258 37.7795 15.2806L37.9667 15.3528C38.1038 15.4038 38.2445 15.4549 38.3827 15.5022L38.7266 15.6192C38.9174 15.684 39.1083 15.7437 39.298 15.8147L39.5525 15.9068L39.8058 16.0052C39.862 16.0276 39.9171 16.0488 39.9734 16.0737L40.0835 16.121L40.1936 16.1708C40.1508 16.1907 40.097 16.2131 40.0431 16.233L40.0419 16.2318Z" fill="#FDEAF1"></path><path d="M43.49 15.7711C41.9921 11.4766 39.2352 7.75318 35.5916 5.10365C31.948 2.45412 27.5931 1.00608 23.1149 0.955078H22.6316C19.7598 0.964152 16.9179 1.5487 14.2681 2.67536C11.6184 3.80202 9.21261 5.44871 7.18825 7.52142C3.09987 11.7075 0.81315 17.3746 0.83116 23.2763C0.840078 26.1984 1.41455 29.0902 2.52178 31.7865C3.62901 34.4828 5.24732 36.9307 7.28429 38.9906C9.32126 41.0505 11.737 42.682 14.3936 43.7918C17.0502 44.9017 19.8957 45.4683 22.7675 45.4592H22.8482C26.3509 45.4642 29.8035 44.6128 32.9154 42.9769C36.0274 41.341 38.7076 38.9684 40.7305 36.0588C42.7534 33.1491 44.0599 29.7876 44.5399 26.257C45.0199 22.7265 44.6594 19.1303 43.4887 15.7711H43.49ZM12.5335 26.6242C11.4396 27.3413 9.87829 27.1994 8.94348 26.2718C8.53817 25.8919 8.24441 25.4049 8.09491 24.8652C7.94541 24.3254 7.94602 23.754 8.09669 23.2146C8.24735 22.6752 8.54216 22.1889 8.94829 21.8098C9.35443 21.4308 9.85597 21.1738 10.3971 21.0675C11.9755 20.7115 13.6628 21.9055 13.899 23.5278C13.9991 24.1238 13.9225 24.7366 13.6788 25.2881C13.4352 25.8396 13.0356 26.3048 12.531 26.6242H12.5335ZM14.474 15.984C14.4402 15.9741 14.4074 15.9608 14.3762 15.9442L14.3492 15.9268L14.3235 15.9093C14.3146 15.9033 14.3063 15.8962 14.2991 15.8882C14.2991 15.8882 14.2991 15.8882 14.2917 15.8882C14.2844 15.8882 14.2771 15.8757 14.2697 15.8695C14.2624 15.8633 14.2697 15.8695 14.2697 15.8695C14.2614 15.8622 14.2536 15.8543 14.2465 15.8458C14.2364 15.8348 14.227 15.8231 14.2183 15.811C14.2127 15.805 14.2077 15.7983 14.2036 15.791C14.1946 15.7792 14.1865 15.7667 14.1792 15.7537C14.1723 15.7433 14.1662 15.7325 14.1608 15.7213C14.14 15.6819 14.124 15.6401 14.1131 15.5968C14.112 15.5906 14.112 15.5843 14.1131 15.5781C14.1054 15.5479 14.1001 15.5171 14.0972 15.486C14.096 15.4661 14.096 15.4461 14.0972 15.4262C14.0959 15.4088 14.0959 15.3914 14.0972 15.374C14.0966 15.3686 14.0966 15.3631 14.0972 15.3578C14.0961 15.3483 14.0961 15.3386 14.0972 15.3291C14.0959 15.3242 14.0959 15.3191 14.0972 15.3142C14.096 15.3072 14.096 15.3 14.0972 15.293C14.0987 15.285 14.1007 15.2771 14.1033 15.2694C14.1059 15.2586 14.1096 15.2482 14.1143 15.2382C14.1138 15.2358 14.1138 15.2332 14.1143 15.2308C14.1157 15.2246 14.1182 15.2186 14.1217 15.2133C14.1368 15.1762 14.157 15.1415 14.1816 15.11L14.2036 15.0826C14.2178 15.0671 14.2329 15.0526 14.2489 15.039C14.2586 15.0301 14.2688 15.0217 14.2795 15.0141L14.3248 14.9843L14.3676 14.9519C14.3975 14.9333 14.4295 14.9187 14.463 14.9083L14.501 14.8971L14.5658 14.8847C14.5829 14.8847 14.6001 14.8847 14.6184 14.8847H14.6723C14.7653 14.8847 14.8619 14.8847 14.9525 14.8847H15.0136H15.2216H15.5447H16.1063C16.6055 14.8847 17.1047 14.8847 17.6052 14.8847C18.0542 14.8847 18.5021 14.8847 18.9511 14.8847C19.2342 14.8847 19.5168 14.8905 19.7991 14.9021C20.4108 14.9892 20.3619 15.9878 19.7501 16.0226C18.0281 16.0367 16.3049 16.0367 14.5805 16.0226C14.5429 16.0138 14.5064 16.0009 14.4716 15.984H14.474ZM15.563 23.8066C15.563 22.2296 15.563 20.6488 15.563 19.0643C15.5539 18.7934 15.6281 18.5264 15.7752 18.3005C15.9224 18.0746 16.1353 17.9011 16.384 17.8043C17.1182 17.4968 18.0432 18.0819 18.0506 18.8949C18.0628 20.5322 18.0506 22.1682 18.0506 23.8054C18.1227 24.5288 17.4608 25.1999 16.7523 25.1351C16.0843 25.1376 15.5178 24.4827 15.5606 23.8066H15.563ZM28.8535 30.9632C26.6144 32.1148 24.0816 32.7872 21.5635 32.5618C19.8505 32.395 18.1301 31.8521 16.745 30.7901C16.2421 30.4602 16.2874 29.6472 16.805 29.3546C17.1047 29.1404 17.5024 29.2139 17.7753 29.4367C19.0857 30.3867 20.7033 30.8436 22.3025 30.8822C24.3263 30.9408 26.3122 30.3319 28.1096 29.423C28.2084 29.3678 28.317 29.3332 28.4291 29.3213C28.5411 29.3094 28.6544 29.3204 28.7623 29.3537C28.8701 29.387 28.9703 29.4419 29.057 29.5152C29.1437 29.5885 29.2151 29.6786 29.2671 29.7804C29.5118 30.2012 29.2842 30.7801 28.8511 30.9632H28.8535ZM30.1089 19.8001C30.0942 21.2792 30.1175 22.7608 30.1004 24.2387C30.1004 25.0069 29.2769 25.6269 28.555 25.4128C28.2928 25.3471 28.0588 25.1962 27.8886 24.9829C27.7183 24.7697 27.6211 24.5058 27.6116 24.2312C27.6018 22.6052 27.6116 20.9791 27.6116 19.3531C27.6003 19.0763 27.6783 18.8034 27.8335 18.5758C27.9887 18.3483 28.2127 18.1785 28.4714 18.0924C28.7302 18.0063 29.0095 18.0085 29.2668 18.0988C29.5242 18.189 29.7456 18.3624 29.8972 18.5924C30.1468 18.941 30.1089 19.3917 30.1089 19.8001ZM31.4708 15.7873C31.3117 16.0363 30.9972 16.0114 30.7439 16.0164C29.1533 15.999 27.5541 16.0239 25.9598 16.0064C25.9186 16.0069 25.8775 16.0023 25.8374 15.9927C25.8018 15.9844 25.7673 15.9719 25.7346 15.9554C25.6706 15.9228 25.614 15.877 25.5682 15.8209C25.5566 15.8072 25.5459 15.7927 25.5364 15.7773C25.525 15.7634 25.5156 15.7479 25.5083 15.7313C25.4989 15.7158 25.4907 15.6995 25.4838 15.6827C25.4764 15.6653 25.4691 15.6491 25.463 15.6317C25.4448 15.5803 25.4332 15.5267 25.4287 15.4723C25.4287 15.4536 25.4287 15.435 25.4287 15.4175C25.4287 15.4001 25.4287 15.3877 25.4287 15.374C25.4287 15.3603 25.4287 15.359 25.4287 15.3528C25.428 15.3462 25.428 15.3395 25.4287 15.3329C25.4287 15.3204 25.4287 15.308 25.4287 15.2955L25.4361 15.2619C25.4592 15.1762 25.5044 15.0984 25.567 15.0365C25.5755 15.0272 25.5849 15.0189 25.5951 15.0116C25.6112 14.9978 25.6284 14.9853 25.6465 14.9743C25.6507 14.97 25.6557 14.9666 25.6612 14.9643L25.6918 14.9469C25.8864 14.8149 26.1421 14.8822 26.3648 14.8585C27.9224 14.8759 29.4812 14.8485 31.0376 14.8685C31.483 14.8535 31.7828 15.4549 31.472 15.7873H31.4708ZM36.5388 26.4412C36.1825 26.7222 35.7682 26.9174 35.327 27.012C34.8859 27.1066 34.4294 27.0981 33.9919 26.9872C33.5545 26.8762 33.1474 26.6658 32.8015 26.3717C32.4555 26.0775 32.1796 25.7074 31.9946 25.2891C31.8095 24.8707 31.7201 24.4151 31.7332 23.9566C31.7462 23.498 31.8613 23.0485 32.0698 22.6417C32.2782 22.235 32.5747 21.8816 32.9368 21.6083C33.2989 21.335 33.7171 21.1488 34.1602 21.0638C35.6285 20.7476 37.1849 21.7411 37.5764 23.2028C37.7402 23.7862 37.7291 24.4061 37.5444 24.9831C37.3598 25.56 37.0101 26.0678 36.54 26.4412H36.5388ZM40.0419 16.2318C39.9501 16.2679 39.8559 16.304 39.7617 16.3376L39.6198 16.3887L39.5586 16.4098L39.2625 16.5094L38.904 16.6339L38.6593 16.7198C38.614 16.7348 38.5712 16.751 38.5271 16.7684C38.4513 16.7958 38.3754 16.8244 38.2995 16.8556L38.1405 16.9215C38.0756 16.9502 38.0096 16.9788 37.9472 17.0087L37.93 17.0162L37.7942 17.0846L37.6449 17.1656C37.3072 18.1317 37.0331 19.1191 36.7321 20.0989C36.3014 19.1415 36.0971 18.0931 35.7386 17.1033C34.8931 16.7784 34.0366 16.4908 33.1923 16.1621C34.028 15.811 34.898 15.5545 35.7435 15.232C36.0518 14.1264 36.3748 13.0221 36.6661 11.9115C36.8349 12.1331 36.8667 12.4207 36.9401 12.6834C37.1237 13.4068 37.35 14.1189 37.5348 14.8423C37.596 14.9955 37.596 15.2258 37.7795 15.2806L37.9667 15.3528C38.1038 15.4038 38.2445 15.4549 38.3827 15.5022L38.7266 15.6192C38.9174 15.684 39.1083 15.7437 39.298 15.8147L39.5525 15.9068L39.8058 16.0052C39.862 16.0276 39.9171 16.0488 39.9734 16.0737L40.0835 16.121L40.1936 16.1708C40.1508 16.1907 40.097 16.2131 40.0431 16.233L40.0419 16.2318Z" fill="#BBCCDB"></path></svg>