<svg xmlns="http://www.w3.org/2000/svg" width="203" height="72" viewBox="0 0 203 72" fill="none"><rect x="0.5" y="0.5" width="202" height="71" rx="14.5" fill="url(#paint0_radial_223_15941)" fill-opacity="0.3"></rect><path d="M32.624 47H45.644V43.64H36.376V27.792H32.624V47ZM53.8902 47.392C57.3062 47.392 60.2182 45.32 61.1422 42.24H57.7262C57.0822 43.64 55.5422 44.592 53.8902 44.592C51.7062 44.592 50.0262 43.136 49.7182 40.924H61.1982L61.4782 40.644V40C61.4782 35.576 58.4542 32.608 53.8902 32.608C49.3262 32.608 46.3022 35.576 46.3022 40C46.3022 44.424 49.3262 47.392 53.8902 47.392ZM49.9422 38.124C50.5862 36.388 52.0142 35.408 53.8902 35.408C55.7662 35.408 57.1942 36.388 57.8382 38.124H49.9422ZM70.2072 47.392C71.8592 47.392 73.6792 46.636 74.7432 45.488V47H78.1032V33H74.7432V34.512C73.6792 33.364 71.8592 32.608 70.2072 32.608C65.8392 32.608 62.9272 35.576 62.9272 40C62.9272 44.424 65.8392 47.392 70.2072 47.392ZM70.5432 44.424C67.9952 44.424 66.2872 42.66 66.2872 40C66.2872 37.34 67.9952 35.576 70.5432 35.576C73.0632 35.576 74.7432 37.34 74.7432 40C74.7432 42.66 73.0632 44.424 70.5432 44.424ZM80.6864 47H84.0464V38.712C84.0464 36.836 85.5304 35.576 87.7704 35.576H88.9184V33C88.5264 32.832 87.9384 32.72 87.4344 32.72C86.1464 32.72 84.7744 33.504 84.0464 34.652V33H80.6864V47ZM90.7216 47H94.0816V38.684C94.0816 36.808 95.4536 35.576 97.4976 35.576C99.5416 35.576 100.914 36.808 100.914 38.684V47H104.274V38.292C104.274 34.876 101.726 32.608 97.8896 32.608C96.5176 32.608 95.0056 33.168 94.0816 34.036V33H90.7216V47ZM113.854 47H117.214V37.564C117.214 36.36 118.222 35.576 119.762 35.576C121.302 35.576 122.31 36.36 122.31 37.564V47H125.67V37.564C125.67 36.36 126.678 35.576 128.218 35.576C129.758 35.576 130.766 36.36 130.766 37.564V47H134.126V37.228C134.126 34.456 131.886 32.608 128.554 32.608C127.014 32.608 125.334 33.28 124.354 34.288C123.402 33.28 121.918 32.608 120.63 32.608C119.286 32.608 118.054 33.196 117.214 34.26V33H113.854V47ZM143.468 47.392C148.032 47.392 151.056 44.424 151.056 40C151.056 35.576 148.032 32.608 143.468 32.608C138.904 32.608 135.88 35.576 135.88 40C135.88 44.424 138.904 47.392 143.468 47.392ZM143.468 44.424C140.92 44.424 139.24 42.66 139.24 40C139.24 37.34 140.92 35.576 143.468 35.576C146.016 35.576 147.696 37.34 147.696 40C147.696 42.66 146.016 44.424 143.468 44.424ZM152.792 47H156.152V38.712C156.152 36.836 157.636 35.576 159.876 35.576H161.024V33C160.632 32.832 160.044 32.72 159.54 32.72C158.252 32.72 156.88 33.504 156.152 34.652V33H152.792V47ZM168.734 47.392C172.15 47.392 175.062 45.32 175.986 42.24H172.57C171.926 43.64 170.386 44.592 168.734 44.592C166.55 44.592 164.87 43.136 164.562 40.924H176.042L176.322 40.644V40C176.322 35.576 173.298 32.608 168.734 32.608C164.17 32.608 161.146 35.576 161.146 40C161.146 44.424 164.17 47.392 168.734 47.392ZM164.786 38.124C165.43 36.388 166.858 35.408 168.734 35.408C170.61 35.408 172.038 36.388 172.682 38.124H164.786Z" fill="white"></path><rect x="0.5" y="0.5" width="202" height="71" rx="14.5" stroke="url(#paint1_radial_223_15941)"></rect><rect x="0.5" y="0.5" width="202" height="71" rx="14.5" stroke="url(#paint2_radial_223_15941)"></rect><rect x="0.5" y="0.5" width="202" height="71" rx="14.5" stroke="url(#paint3_radial_223_15941)" stroke-opacity="0.8"></rect><defs><radialGradient id="paint0_radial_223_15941" cx="0" cy="0" r="1" gradientUnits="userSpaceOnUse" gradientTransform="translate(16.9811) rotate(21.5135) scale(218.202 108.752)"><stop stop-color="white" stop-opacity="0.36"></stop><stop offset="1" stop-color="white" stop-opacity="0"></stop></radialGradient><radialGradient id="paint1_radial_223_15941" cx="0" cy="0" r="1" gradientUnits="userSpaceOnUse" gradientTransform="translate(-55.2397 9.08251) rotate(18.3702) scale(146.043 42.7584)"><stop stop-color="#B5FEFE"></stop><stop offset="1" stop-color="#B5FEFE" stop-opacity="0.06"></stop></radialGradient><radialGradient id="paint2_radial_223_15941" cx="0" cy="0" r="1" gradientUnits="userSpaceOnUse" gradientTransform="translate(262.431 48.1867) rotate(173.17) scale(161.889 42.7123)"><stop stop-color="#B5FEFE"></stop><stop offset="1" stop-color="#1AEEF9" stop-opacity="0"></stop></radialGradient><radialGradient id="paint3_radial_223_15941" cx="0" cy="0" r="1" gradientUnits="userSpaceOnUse" gradientTransform="translate(103.71 -16.4554) rotate(21.018) scale(82.4309 39.7915)"><stop></stop><stop offset="1" stop-color="white" stop-opacity="0"></stop></radialGradient></defs></svg>