<svg xmlns="http://www.w3.org/2000/svg" width="493" height="75" viewBox="0 0 493 75" fill="none"><rect x="0.5" y="0.5" width="492" height="74" rx="14.5" fill="url(#paint0_linear_572_538)"></rect><path d="M56.624 48.5H69.644V45.14H60.376V29.292H56.624V48.5ZM77.8902 48.892C81.3062 48.892 84.2182 46.82 85.1422 43.74H81.7262C81.0822 45.14 79.5422 46.092 77.8902 46.092C75.7062 46.092 74.0262 44.636 73.7182 42.424H85.1982L85.4782 42.144V41.5C85.4782 37.076 82.4542 34.108 77.8902 34.108C73.3262 34.108 70.3022 37.076 70.3022 41.5C70.3022 45.924 73.3262 48.892 77.8902 48.892ZM73.9422 39.624C74.5862 37.888 76.0142 36.908 77.8902 36.908C79.7662 36.908 81.1942 37.888 81.8382 39.624H73.9422ZM92.7501 48.892C93.6741 48.892 94.6261 48.724 95.1301 48.5V46.092H92.6941C91.9661 46.092 91.4621 45.616 91.4621 44.916V37.3H94.9901V34.5H91.4621V29.292H88.1021V34.5H85.8621V37.3H88.1021V44.916C88.1021 47.296 89.9501 48.892 92.7501 48.892ZM96.9208 37.608C99.4128 37.608 101.065 35.928 101.065 33.436V29.292H96.9208V33.436H98.3768C98.3768 34.304 97.7888 34.892 96.9208 34.892V37.608ZM107.068 48.892C110.96 48.892 113.564 47.044 113.564 44.272C113.564 41.724 112.08 40.66 107.404 39.68C105.416 39.232 104.772 38.868 104.772 38.28C104.772 37.468 105.696 36.908 107.068 36.908C108.3 36.908 109.42 37.552 109.84 38.504L112.92 37.748C112.108 35.564 109.756 34.108 107.068 34.108C103.68 34.108 101.412 35.844 101.412 38.448C101.412 40.772 102.7 41.696 106.76 42.62C109.364 43.124 110.204 43.6 110.204 44.272C110.204 45.364 108.944 46.092 107.068 46.092C105.192 46.092 103.848 45.14 103.736 43.74H100.572C100.684 46.82 103.288 48.892 107.068 48.892ZM130.03 48.892C134.454 48.892 137.422 45.924 137.422 41.5C137.422 37.076 134.454 34.108 130.03 34.108C128.322 34.108 126.446 34.892 125.382 36.04V29.292H122.022V48.5H125.382V46.96C126.446 48.108 128.322 48.892 130.03 48.892ZM129.694 45.924C127.118 45.924 125.382 44.16 125.382 41.5C125.382 38.84 127.118 37.076 129.694 37.076C132.326 37.076 134.062 38.84 134.062 41.5C134.062 44.16 132.326 45.924 129.694 45.924ZM152.992 34.5H149.632V42.816C149.632 44.692 148.26 45.924 146.216 45.924C144.172 45.924 142.8 44.692 142.8 42.816V34.5H139.44V43.208C139.44 46.624 141.988 48.892 145.824 48.892C147.196 48.892 148.708 48.332 149.632 47.464V48.5H152.992V34.5ZM155.573 32.372H158.933V29.292H155.573V32.372ZM155.573 48.5H158.933V34.5H155.573V48.5ZM161.78 48.5H165.14V29.292H161.78V48.5ZM174.546 48.892C176.254 48.892 178.13 48.108 179.194 46.96V48.5H182.554V29.292H179.194V36.04C178.13 34.892 176.254 34.108 174.546 34.108C170.122 34.108 167.154 37.076 167.154 41.5C167.154 45.924 170.122 48.892 174.546 48.892ZM174.882 45.924C172.25 45.924 170.514 44.16 170.514 41.5C170.514 38.84 172.25 37.076 174.882 37.076C177.458 37.076 179.194 38.84 179.194 41.5C179.194 44.16 177.458 45.924 174.882 45.924ZM198.242 48.892C199.166 48.892 200.118 48.724 200.622 48.5V46.092H198.186C197.458 46.092 196.954 45.616 196.954 44.916V37.3H200.482V34.5H196.954V29.292H193.594V34.5H191.354V37.3H193.594V44.916C193.594 47.296 195.442 48.892 198.242 48.892ZM202.686 48.5H206.046V40.184C206.046 38.308 207.418 37.076 209.462 37.076C211.506 37.076 212.878 38.308 212.878 40.184V48.5H216.238V39.792C216.238 36.376 213.69 34.108 209.854 34.108C208.482 34.108 206.97 34.668 206.046 35.536V29.292H202.686V48.5ZM225.574 48.892C228.99 48.892 231.902 46.82 232.826 43.74H229.41C228.766 45.14 227.226 46.092 225.574 46.092C223.39 46.092 221.71 44.636 221.402 42.424H232.882L233.162 42.144V41.5C233.162 37.076 230.138 34.108 225.574 34.108C221.01 34.108 217.986 37.076 217.986 41.5C217.986 45.924 221.01 48.892 225.574 48.892ZM221.626 39.624C222.27 37.888 223.698 36.908 225.574 36.908C227.45 36.908 228.878 37.888 229.522 39.624H221.626ZM244.948 48.5H248.364L250.744 39.456L253.152 48.5H256.568L261.384 34.5H257.856L254.916 44.692L252.312 34.5H249.176L246.572 44.692L243.632 34.5H240.104L244.948 48.5ZM268.914 48.892C272.33 48.892 275.242 46.82 276.166 43.74H272.75C272.106 45.14 270.566 46.092 268.914 46.092C266.73 46.092 265.05 44.636 264.742 42.424H276.222L276.502 42.144V41.5C276.502 37.076 273.478 34.108 268.914 34.108C264.35 34.108 261.326 37.076 261.326 41.5C261.326 45.924 264.35 48.892 268.914 48.892ZM264.966 39.624C265.61 37.888 267.038 36.908 268.914 36.908C270.79 36.908 272.218 37.888 272.862 39.624H264.966ZM286.519 48.892C290.943 48.892 293.911 45.924 293.911 41.5C293.911 37.076 290.943 34.108 286.519 34.108C284.811 34.108 282.935 34.892 281.871 36.04V29.292H278.511V48.5H281.871V46.96C282.935 48.108 284.811 48.892 286.519 48.892ZM286.183 45.924C283.607 45.924 281.871 44.16 281.871 41.5C281.871 38.84 283.607 37.076 286.183 37.076C288.815 37.076 290.551 38.84 290.551 41.5C290.551 44.16 288.815 45.924 286.183 45.924ZM303.013 48.892C307.661 48.892 310.769 46.652 310.769 43.292C310.769 41.192 309.425 39.204 307.381 38.336C309.089 37.356 310.237 35.62 310.237 34.024C310.237 30.944 307.353 28.9 303.013 28.9C298.869 28.9 296.125 31.532 296.125 35.452H299.289C299.289 33.296 300.773 31.868 303.013 31.868C305.337 31.868 306.905 32.904 306.905 34.444C306.905 35.956 305.337 36.964 303.013 36.964H301.221V39.932H303.013C305.701 39.932 307.493 41.136 307.493 42.928C307.493 44.72 305.701 45.924 303.013 45.924C300.521 45.924 298.869 44.692 298.869 42.816H295.649C295.649 46.456 298.589 48.892 303.013 48.892ZM326.184 48.892C327.108 48.892 328.06 48.724 328.564 48.5V46.092H326.128C325.4 46.092 324.896 45.616 324.896 44.916V37.3H328.424V34.5H324.896V29.292H321.536V34.5H319.296V37.3H321.536V44.916C321.536 47.296 323.384 48.892 326.184 48.892ZM337.109 48.892C341.673 48.892 344.697 45.924 344.697 41.5C344.697 37.076 341.673 34.108 337.109 34.108C332.545 34.108 329.521 37.076 329.521 41.5C329.521 45.924 332.545 48.892 337.109 48.892ZM337.109 45.924C334.561 45.924 332.881 44.16 332.881 41.5C332.881 38.84 334.561 37.076 337.109 37.076C339.657 37.076 341.337 38.84 341.337 41.5C341.337 44.16 339.657 45.924 337.109 45.924ZM353.482 54.1C358.186 54.1 360.818 51.524 360.818 46.96V34.5H357.458V35.872C356.422 34.808 354.714 34.108 353.174 34.108C348.946 34.108 346.146 36.992 346.146 41.304C346.146 45.616 348.946 48.5 353.174 48.5C354.714 48.5 356.422 47.8 357.458 46.736V46.96C357.458 49.62 356.03 51.132 353.482 51.132C351.606 51.132 350.094 50.068 349.674 48.5H346.314C346.79 51.86 349.646 54.1 353.482 54.1ZM353.51 45.532C351.102 45.532 349.506 43.852 349.506 41.304C349.506 38.756 351.102 37.076 353.51 37.076C355.89 37.076 357.458 38.756 357.458 41.304C357.458 43.852 355.89 45.532 353.51 45.532ZM370.14 48.892C373.556 48.892 376.468 46.82 377.392 43.74H373.976C373.332 45.14 371.792 46.092 370.14 46.092C367.956 46.092 366.276 44.636 365.968 42.424H377.448L377.728 42.144V41.5C377.728 37.076 374.704 34.108 370.14 34.108C365.576 34.108 362.552 37.076 362.552 41.5C362.552 45.924 365.576 48.892 370.14 48.892ZM366.192 39.624C366.836 37.888 368.264 36.908 370.14 36.908C372.016 36.908 373.444 37.888 374.088 39.624H366.192ZM385 48.892C385.924 48.892 386.876 48.724 387.38 48.5V46.092H384.944C384.216 46.092 383.712 45.616 383.712 44.916V37.3H387.24V34.5H383.712V29.292H380.352V34.5H378.112V37.3H380.352V44.916C380.352 47.296 382.2 48.892 385 48.892ZM389.444 48.5H392.804V40.184C392.804 38.308 394.176 37.076 396.22 37.076C398.264 37.076 399.636 38.308 399.636 40.184V48.5H402.996V39.792C402.996 36.376 400.448 34.108 396.612 34.108C395.24 34.108 393.728 34.668 392.804 35.536V29.292H389.444V48.5ZM412.332 48.892C415.748 48.892 418.66 46.82 419.584 43.74H416.168C415.524 45.14 413.984 46.092 412.332 46.092C410.148 46.092 408.468 44.636 408.16 42.424H419.64L419.92 42.144V41.5C419.92 37.076 416.896 34.108 412.332 34.108C407.768 34.108 404.744 37.076 404.744 41.5C404.744 45.924 407.768 48.892 412.332 48.892ZM408.384 39.624C409.028 37.888 410.456 36.908 412.332 36.908C414.208 36.908 415.636 37.888 416.28 39.624H408.384ZM421.929 48.5H425.289V40.212C425.289 38.336 426.773 37.076 429.013 37.076H430.161V34.5C429.769 34.332 429.181 34.22 428.677 34.22C427.389 34.22 426.017 35.004 425.289 36.152V34.5H421.929V48.5ZM432.825 41.892H435.793L436.381 29.292H432.237L432.825 41.892ZM432.237 48.5H436.381V44.356H432.237V48.5Z" fill="#0E0E18"></path><rect x="0.5" y="0.5" width="492" height="74" rx="14.5" stroke="url(#paint1_radial_572_538)"></rect><rect x="0.5" y="0.5" width="492" height="74" rx="14.5" stroke="url(#paint2_radial_572_538)"></rect><defs><linearGradient id="paint0_linear_572_538" x1="-1304.5" y1="-168.414" x2="340.212" y2="718.61" gradientUnits="userSpaceOnUse"><stop stop-color="#0338D1"></stop><stop offset="0.38297" stop-color="#1CFCFC"></stop><stop offset="0.6239" stop-color="#36FCFC"></stop><stop offset="0.885417" stop-color="#0495E7"></stop></linearGradient><radialGradient id="paint1_radial_572_538" cx="0" cy="0" r="1" gradientUnits="userSpaceOnUse" gradientTransform="translate(-134.154 9.46095) rotate(8.10645) scale(340 46.4627)"><stop stop-color="white"></stop><stop offset="1" stop-color="#B5FEFE" stop-opacity="0.06"></stop></radialGradient><radialGradient id="paint2_radial_572_538" cx="0" cy="0" r="1" gradientUnits="userSpaceOnUse" gradientTransform="translate(637.332 50.1945) rotate(177.059) scale(390.884 44.751)"><stop stop-color="#B5FEFE"></stop><stop offset="1" stop-color="#1AEEF9" stop-opacity="0"></stop></radialGradient></defs></svg>