<svg xmlns="http://www.w3.org/2000/svg" width="57" height="57" viewBox="0 0 57 57" fill="none"><rect x="0.31543" width="56.3153" height="56.3153" rx="16.8946" fill="white" fill-opacity="0.05"></rect><path fill-rule="evenodd" clip-rule="evenodd" d="M47.4796 28.1575C47.4796 38.6545 38.9702 47.164 28.4732 47.164C17.9763 47.164 9.4668 38.6545 9.4668 28.1575C9.4668 17.6606 17.9763 9.15112 28.4732 9.15112C38.9702 9.15112 47.4796 17.6606 47.4796 28.1575ZM29.1543 23.1825C27.3057 23.9514 23.6109 25.5429 18.0702 27.9569C17.1704 28.3147 16.6991 28.6647 16.6562 29.007C16.5837 29.5854 17.3081 29.8132 18.2944 30.1233C18.4286 30.1655 18.5676 30.2092 18.7101 30.2556C19.6806 30.571 20.986 30.9401 21.6646 30.9547C22.2802 30.968 22.9672 30.7142 23.7258 30.1934C28.9027 26.6988 31.575 24.9325 31.7428 24.8944C31.8612 24.8676 32.0252 24.8338 32.1363 24.9326C32.2475 25.0313 32.2365 25.2184 32.2248 25.2686C32.153 25.5745 29.3097 28.2179 27.8383 29.5858C27.3796 30.0123 27.0542 30.3148 26.9877 30.3839C26.8387 30.5387 26.6868 30.6851 26.5409 30.8258C25.6393 31.6949 24.9632 32.3466 26.5783 33.4109C27.3544 33.9224 27.9754 34.3453 28.595 34.7672C29.2717 35.228 29.9466 35.6877 30.8199 36.2601C31.0424 36.4059 31.2548 36.5574 31.4618 36.705C32.2493 37.2664 32.9567 37.7707 33.8308 37.6903C34.3387 37.6436 34.8633 37.166 35.1297 35.7417C35.7593 32.3756 36.997 25.0824 37.283 22.077C37.3081 21.8137 37.2766 21.4767 37.2512 21.3288C37.2259 21.1809 37.173 20.9701 36.9807 20.8141C36.753 20.6293 36.4015 20.5904 36.2442 20.5931C35.5294 20.6057 34.4326 20.9871 29.1543 23.1825Z" fill="white"></path></svg>