<svg xmlns="http://www.w3.org/2000/svg" width="57" height="57" viewBox="0 0 57 57" fill="none"><rect x="0.31543" width="56.3153" height="56.3153" rx="16.8946" fill="#0F5596"></rect><path fill-rule="evenodd" clip-rule="evenodd" d="M47.4794 28.1577C47.4794 38.6546 38.9699 47.1641 28.473 47.1641C17.976 47.1641 9.46655 38.6546 9.46655 28.1577C9.46655 17.6607 17.976 9.15125 28.473 9.15125C38.9699 9.15125 47.4794 17.6607 47.4794 28.1577ZM29.1541 23.1826C27.3054 23.9515 23.6107 25.543 18.0699 27.957C17.1702 28.3148 16.6989 28.6649 16.656 29.0071C16.5835 29.5855 17.3078 29.8133 18.2942 30.1235C18.4284 30.1656 18.5674 30.2094 18.7099 30.2557C19.6803 30.5711 20.9857 30.9402 21.6644 30.9548C22.2799 30.9681 22.967 30.7144 23.7255 30.1935C28.9024 26.6989 31.5748 24.9326 31.7426 24.8945C31.8609 24.8677 32.0249 24.8339 32.1361 24.9327C32.2472 25.0315 32.2363 25.2185 32.2245 25.2687C32.1528 25.5746 29.3095 28.218 27.838 29.586C27.3793 30.0124 27.0539 30.3149 26.9874 30.384C26.8384 30.5388 26.6866 30.6852 26.5406 30.8259C25.6391 31.695 24.963 32.3467 26.578 33.411C27.3541 33.9225 27.9752 34.3454 28.5948 34.7673C29.2715 35.2282 29.9464 35.6878 30.8196 36.2602C31.0421 36.4061 31.2546 36.5575 31.4615 36.7051C32.249 37.2665 32.9565 37.7708 33.8305 37.6904C34.3384 37.6437 34.863 37.1661 35.1294 35.7418C35.7591 32.3757 36.9967 25.0825 37.2828 22.0772C37.3078 21.8138 37.2763 21.4769 37.251 21.3289C37.2257 21.181 37.1728 20.9702 36.9805 20.8142C36.7528 20.6294 36.4012 20.5905 36.244 20.5932C35.5291 20.6058 34.4323 20.9872 29.1541 23.1826Z" fill="white"></path></svg>