<svg width="482" height="482" viewBox="0 0 482 482" fill="none" xmlns="http://www.w3.org/2000/svg">
<g filter="url(#filter0_ii_223_15458)">
<circle cx="240.999" cy="241.001" r="240.99" fill="#000936"/>
</g>
<path d="M196.87 223.32L176.343 202.707L243.186 135.573L310.073 202.729L289.546 223.353L243.186 176.799L196.87 223.32ZM378.168 276.359L246.343 408.736C245.931 409.158 245.439 409.494 244.896 409.723C244.353 409.951 243.769 410.069 243.181 410.069C242.592 410.069 242.009 409.951 241.466 409.723C240.923 409.494 240.43 409.158 240.018 408.736L108.193 276.359C107.5 275.663 107.111 274.719 107.111 273.734C107.111 272.75 107.5 271.805 108.193 271.109L142.135 237.091L110.63 205.454C110.208 205.04 109.873 204.545 109.644 203.999C109.415 203.452 109.297 202.866 109.297 202.273C109.297 201.68 109.415 201.093 109.644 200.547C109.873 200.001 110.208 199.506 110.63 199.091L238.234 70.9083C238.885 70.2437 239.661 69.7158 240.517 69.3555C241.372 68.9952 242.291 68.8096 243.219 68.8096C244.147 68.8096 245.066 68.9952 245.922 69.3555C246.778 69.7158 247.554 70.2437 248.204 70.9083L376.34 199.636C376.685 199.982 376.958 200.392 377.145 200.843C377.331 201.295 377.427 201.779 377.427 202.267C377.427 202.756 377.331 203.24 377.145 203.691C376.958 204.143 376.685 204.553 376.34 204.898L344.281 237.091L378.168 271.12C378.857 271.816 379.244 272.758 379.244 273.74C379.244 274.721 378.857 275.663 378.168 276.359ZM162.618 216.467L170.937 224.855L240.007 294.202C240.419 294.625 240.911 294.96 241.454 295.189C241.997 295.418 242.581 295.536 243.169 295.536C243.758 295.536 244.341 295.418 244.884 295.189C245.428 294.96 245.92 294.625 246.332 294.202L334.721 205.443C335.143 205.029 335.479 204.534 335.707 203.988C335.936 203.441 336.054 202.854 336.054 202.262C336.054 201.669 335.936 201.082 335.707 200.536C335.479 199.99 335.143 199.495 334.721 199.08L246.332 110.332C245.92 109.91 245.428 109.575 244.884 109.346C244.341 109.117 243.758 108.999 243.169 108.999C242.581 108.999 241.997 109.117 241.454 109.346C240.911 109.575 240.419 109.91 240.007 110.332L151.618 199.08C151.196 199.495 150.86 199.99 150.631 200.536C150.402 201.082 150.285 201.669 150.285 202.262C150.285 202.854 150.402 203.441 150.631 203.988C150.86 204.534 151.196 205.029 151.618 205.443L162.618 216.467ZM336.538 270.553L323.81 257.704L245.867 335.974C245.523 336.32 245.115 336.594 244.665 336.782C244.216 336.969 243.734 337.065 243.247 337.065C242.76 337.065 242.278 336.969 241.829 336.782C241.379 336.594 240.971 336.32 240.627 335.974L162.673 257.704L149.878 270.553C149.456 270.967 149.121 271.462 148.892 272.008C148.663 272.555 148.545 273.141 148.545 273.734C148.545 274.327 148.663 274.914 148.892 275.46C149.121 276.006 149.456 276.501 149.878 276.916L240.627 368.044C240.971 368.39 241.379 368.665 241.829 368.852C242.278 369.04 242.76 369.136 243.247 369.136C243.734 369.136 244.216 369.04 244.665 368.852C245.115 368.665 245.523 368.39 245.867 368.044L336.549 276.916C336.971 276.501 337.306 276.006 337.535 275.46C337.764 274.914 337.882 274.327 337.882 273.734C337.882 273.141 337.764 272.555 337.535 272.008C337.306 271.462 336.971 270.967 336.549 270.553H336.538ZM210.573 237.091L231.111 257.704L243.186 245.568L255.305 257.738L275.843 237.091L243.186 204.297L210.573 237.091Z" fill="url(#paint0_linear_223_15458)"/>
<defs>
<filter id="filter0_ii_223_15458" x="-13.9902" y="-4.98828" width="497.979" height="489.979" filterUnits="userSpaceOnUse" color-interpolation-filters="sRGB">
<feFlood flood-opacity="0" result="BackgroundImageFix"/>
<feBlend mode="normal" in="SourceGraphic" in2="BackgroundImageFix" result="shape"/>
<feColorMatrix in="SourceAlpha" type="matrix" values="0 0 0 0 0 0 0 0 0 0 0 0 0 0 0 0 0 0 127 0" result="hardAlpha"/>
<feOffset dx="2" dy="3"/>
<feGaussianBlur stdDeviation="10"/>
<feComposite in2="hardAlpha" operator="arithmetic" k2="-1" k3="1"/>
<feColorMatrix type="matrix" values="0 0 0 0 0 0 0 0 0 0 0 0 0 0 0 0 0 0 0.15 0"/>
<feBlend mode="normal" in2="shape" result="effect1_innerShadow_223_15458"/>
<feColorMatrix in="SourceAlpha" type="matrix" values="0 0 0 0 0 0 0 0 0 0 0 0 0 0 0 0 0 0 127 0" result="hardAlpha"/>
<feOffset dx="-14" dy="-5"/>
<feGaussianBlur stdDeviation="17.5"/>
<feComposite in2="hardAlpha" operator="arithmetic" k2="-1" k3="1"/>
<feColorMatrix type="matrix" values="0 0 0 0 0 0 0 0 0 0 0 0 0 0 0 0 0 0 0.2 0"/>
<feBlend mode="normal" in2="effect1_innerShadow_223_15458" result="effect2_innerShadow_223_15458"/>
</filter>
<linearGradient id="paint0_linear_223_15458" x1="243.178" y1="16.0672" x2="243.178" y2="461.035" gradientUnits="userSpaceOnUse">
<stop stop-color="#0338D1"/>
<stop offset="0.354167" stop-color="#1CFCFC"/>
<stop offset="0.885417" stop-color="#0338D1"/>
</linearGradient>
</defs>
</svg>
