<svg xmlns="http://www.w3.org/2000/svg" width="188" height="72" viewBox="0 0 188 72" fill="none"><rect x="0.5" y="0.5" width="187" height="71" rx="14.5" fill="url(#paint0_radial_203_156)" fill-opacity="0.3"></rect><path d="M32.624 47H36.376V39.748H41.164C45.14 39.748 47.8 37.34 47.8 33.728C47.8 30.172 45.14 27.792 41.164 27.792H32.624V47ZM36.376 36.388V31.152H41.164C42.9 31.152 44.048 32.188 44.048 33.728C44.048 35.324 42.9 36.388 41.164 36.388H36.376ZM49.8153 30.872H53.1753V27.792H49.8153V30.872ZM49.8153 47H53.1753V33H49.8153V47ZM62.1329 47.392C63.0569 47.392 64.0089 47.224 64.5129 47V44.592H62.0769C61.3489 44.592 60.8449 44.116 60.8449 43.416V35.8H64.3729V33H60.8449V27.792H57.4849V33H55.2449V35.8H57.4849V43.416C57.4849 45.796 59.3329 47.392 62.1329 47.392ZM73.0582 47.392C76.8662 47.392 79.8062 44.956 80.3942 41.316H77.1742C76.7542 43.192 75.1022 44.424 73.0582 44.424C70.5102 44.424 68.8302 42.66 68.8302 40C68.8302 37.34 70.5102 35.576 73.0582 35.576C75.0742 35.576 76.6982 36.752 77.1462 38.544H80.3662C79.7502 34.988 76.8382 32.608 73.0582 32.608C68.4942 32.608 65.4702 35.576 65.4702 40C65.4702 44.424 68.4942 47.392 73.0582 47.392ZM82.4091 47H85.7691V38.684C85.7691 36.808 87.1411 35.576 89.1851 35.576C91.2291 35.576 92.6011 36.808 92.6011 38.684V47H95.9611V38.292C95.9611 34.876 93.4131 32.608 89.5771 32.608C88.2051 32.608 86.6931 33.168 85.7691 34.036V27.792H82.4091V47ZM105.1 47.392C106.808 47.392 108.684 46.608 109.748 45.46V47H113.108V27.792H109.748V34.54C108.684 33.392 106.808 32.608 105.1 32.608C100.676 32.608 97.7085 35.576 97.7085 40C97.7085 44.424 100.676 47.392 105.1 47.392ZM105.436 44.424C102.804 44.424 101.068 42.66 101.068 40C101.068 37.34 102.804 35.576 105.436 35.576C108.012 35.576 109.748 37.34 109.748 40C109.748 42.66 108.012 44.424 105.436 44.424ZM122.714 47.392C126.13 47.392 129.042 45.32 129.966 42.24H126.55C125.906 43.64 124.366 44.592 122.714 44.592C120.53 44.592 118.85 43.136 118.542 40.924H130.022L130.302 40.644V40C130.302 35.576 127.278 32.608 122.714 32.608C118.15 32.608 115.126 35.576 115.126 40C115.126 44.424 118.15 47.392 122.714 47.392ZM118.766 38.124C119.41 36.388 120.838 35.408 122.714 35.408C124.59 35.408 126.018 36.388 126.662 38.124H118.766ZM139.339 47.392C143.147 47.392 146.087 44.956 146.675 41.316H143.455C143.035 43.192 141.383 44.424 139.339 44.424C136.791 44.424 135.111 42.66 135.111 40C135.111 37.34 136.791 35.576 139.339 35.576C141.355 35.576 142.979 36.752 143.427 38.544H146.647C146.031 34.988 143.119 32.608 139.339 32.608C134.775 32.608 131.751 35.576 131.751 40C131.751 44.424 134.775 47.392 139.339 47.392ZM148.69 47H152.05V42.268L153.142 41.176L157.846 47H162.158L155.55 38.824L161.486 33H156.782L152.05 37.76V27.792H148.69V47Z" fill="white"></path><rect x="0.5" y="0.5" width="187" height="71" rx="14.5" stroke="url(#paint1_radial_203_156)"></rect><rect x="0.5" y="0.5" width="187" height="71" rx="14.5" stroke="url(#paint2_radial_203_156)"></rect><rect x="0.5" y="0.5" width="187" height="71" rx="14.5" stroke="url(#paint3_radial_203_156)" stroke-opacity="0.8"></rect><defs><radialGradient id="paint0_radial_203_156" cx="0" cy="0" r="1" gradientUnits="userSpaceOnUse" gradientTransform="translate(15.7263) rotate(23.0562) scale(204.321 107.559)"><stop stop-color="white" stop-opacity="0.36"></stop><stop offset="1" stop-color="white" stop-opacity="0"></stop></radialGradient><radialGradient id="paint1_radial_203_156" cx="0" cy="0" r="1" gradientUnits="userSpaceOnUse" gradientTransform="translate(-51.158 9.08251) rotate(19.7265) scale(136.362 42.4103)"><stop stop-color="#B5FEFE"></stop><stop offset="1" stop-color="#B5FEFE" stop-opacity="0.06"></stop></radialGradient><radialGradient id="paint2_radial_203_156" cx="0" cy="0" r="1" gradientUnits="userSpaceOnUse" gradientTransform="translate(243.039 48.1867) rotate(172.631) scale(150.103 42.6623)"><stop stop-color="#B5FEFE"></stop><stop offset="1" stop-color="#1AEEF9" stop-opacity="0"></stop></radialGradient><radialGradient id="paint3_radial_203_156" cx="0" cy="0" r="1" gradientUnits="userSpaceOnUse" gradientTransform="translate(96.0468 -16.4554) rotate(22.5326) scale(77.1504 39.3735)"><stop></stop><stop offset="1" stop-color="white" stop-opacity="0"></stop></radialGradient></defs></svg>