<svg xmlns="http://www.w3.org/2000/svg" width="134" height="72" viewBox="0 0 134 72" fill="none"><rect x="0.5" y="0.5" width="133" height="71" rx="14.5" fill="url(#paint0_radial_285_259)" fill-opacity="0.3"></rect><path d="M41.724 47.392C47.352 47.392 51.104 43.388 51.104 37.368V36.108H40.884V39.468H47.212C46.512 42.212 44.3 44.032 41.724 44.032C37.972 44.032 35.48 41.372 35.48 37.368C35.48 33.392 37.972 30.76 41.724 30.76C43.572 30.76 45.476 31.936 46.484 33.7L49.984 32.832C48.304 29.584 45 27.4 41.724 27.4C35.732 27.4 31.728 31.376 31.728 37.368C31.728 43.388 35.732 47.392 41.724 47.392ZM59.8439 47.392C61.4959 47.392 63.3159 46.636 64.3799 45.488V47H67.7399V33H64.3799V34.512C63.3159 33.364 61.4959 32.608 59.8439 32.608C55.4759 32.608 52.5639 35.576 52.5639 40C52.5639 44.424 55.4759 47.392 59.8439 47.392ZM60.1799 44.424C57.6319 44.424 55.9239 42.66 55.9239 40C55.9239 37.34 57.6319 35.576 60.1799 35.576C62.6999 35.576 64.3799 37.34 64.3799 40C64.3799 42.66 62.6999 44.424 60.1799 44.424ZM70.3232 47H73.6832V37.564C73.6832 36.36 74.6912 35.576 76.2312 35.576C77.7712 35.576 78.7792 36.36 78.7792 37.564V47H82.1392V37.564C82.1392 36.36 83.1472 35.576 84.6872 35.576C86.2272 35.576 87.2352 36.36 87.2352 37.564V47H90.5952V37.228C90.5952 34.456 88.3552 32.608 85.0232 32.608C83.4832 32.608 81.8032 33.28 80.8232 34.288C79.8712 33.28 78.3872 32.608 77.0992 32.608C75.7552 32.608 74.5232 33.196 73.6832 34.26V33H70.3232V47ZM99.9371 47.392C103.353 47.392 106.265 45.32 107.189 42.24H103.773C103.129 43.64 101.589 44.592 99.9371 44.592C97.7531 44.592 96.0731 43.136 95.7651 40.924H107.245L107.525 40.644V40C107.525 35.576 104.501 32.608 99.9371 32.608C95.3731 32.608 92.3491 35.576 92.3491 40C92.3491 44.424 95.3731 47.392 99.9371 47.392ZM95.9891 38.124C96.6331 36.388 98.0611 35.408 99.9371 35.408C101.813 35.408 103.241 36.388 103.885 38.124H95.9891Z" fill="white"></path><rect x="0.5" y="0.5" width="133" height="71" rx="14.5" stroke="url(#paint1_radial_285_259)"></rect><rect x="0.5" y="0.5" width="133" height="71" rx="14.5" stroke="url(#paint2_radial_285_259)"></rect><rect x="0.5" y="0.5" width="133" height="71" rx="14.5" stroke="url(#paint3_radial_285_259)" stroke-opacity="0.8"></rect><defs><radialGradient id="paint0_radial_285_259" cx="0" cy="0" r="1" gradientUnits="userSpaceOnUse" gradientTransform="translate(11.2092) rotate(30.8438) scale(156.074 100.363)"><stop stop-color="white" stop-opacity="0.36"></stop><stop offset="1" stop-color="white" stop-opacity="0"></stop></radialGradient><radialGradient id="paint1_radial_285_259" cx="0" cy="0" r="1" gradientUnits="userSpaceOnUse" gradientTransform="translate(-36.4637 9.08251) rotate(26.7058) scale(102.415 40.2482)"><stop stop-color="#B5FEFE"></stop><stop offset="1" stop-color="#B5FEFE" stop-opacity="0.06"></stop></radialGradient><radialGradient id="paint2_radial_285_259" cx="0" cy="0" r="1" gradientUnits="userSpaceOnUse" gradientTransform="translate(173.23 48.1867) rotate(169.715) scale(107.837 42.3265)"><stop stop-color="#B5FEFE"></stop><stop offset="1" stop-color="#1AEEF9" stop-opacity="0"></stop></radialGradient><radialGradient id="paint3_radial_285_259" cx="0" cy="0" r="1" gradientUnits="userSpaceOnUse" gradientTransform="translate(68.4589 -16.4554) rotate(30.2024) scale(58.7702 36.841)"><stop></stop><stop offset="1" stop-color="white" stop-opacity="0"></stop></radialGradient></defs></svg>