<svg xmlns="http://www.w3.org/2000/svg" width="222" height="72" viewBox="0 0 222 72" fill="none"><rect x="0.5" y="0.5" width="221" height="71" rx="14.5" fill="url(#paint0_radial_203_156)" fill-opacity="0.3"></rect><path d="M49.7392 47H53.4912V39.748H58.2792C62.2552 39.748 64.9152 37.34 64.9152 33.728C64.9152 30.172 62.2552 27.792 58.2792 27.792H49.7392V47ZM53.4912 36.388V31.152H58.2792C60.0152 31.152 61.1632 32.188 61.1632 33.728C61.1632 35.324 60.0152 36.388 58.2792 36.388H53.4912ZM66.9306 30.872H70.2906V27.792H66.9306V30.872ZM66.9306 47H70.2906V33H66.9306V47ZM79.2482 47.392C80.1722 47.392 81.1242 47.224 81.6282 47V44.592H79.1922C78.4642 44.592 77.9602 44.116 77.9602 43.416V35.8H81.4882V33H77.9602V27.792H74.6002V33H72.3602V35.8H74.6002V43.416C74.6002 45.796 76.4482 47.392 79.2482 47.392ZM90.1734 47.392C93.9814 47.392 96.9214 44.956 97.5094 41.316H94.2894C93.8694 43.192 92.2174 44.424 90.1734 44.424C87.6254 44.424 85.9454 42.66 85.9454 40C85.9454 37.34 87.6254 35.576 90.1734 35.576C92.1894 35.576 93.8134 36.752 94.2614 38.544H97.4814C96.8654 34.988 93.9534 32.608 90.1734 32.608C85.6094 32.608 82.5854 35.576 82.5854 40C82.5854 44.424 85.6094 47.392 90.1734 47.392ZM99.5243 47H102.884V38.684C102.884 36.808 104.256 35.576 106.3 35.576C108.344 35.576 109.716 36.808 109.716 38.684V47H113.076V38.292C113.076 34.876 110.528 32.608 106.692 32.608C105.32 32.608 103.808 33.168 102.884 34.036V27.792H99.5243V47ZM122.216 47.392C123.924 47.392 125.8 46.608 126.864 45.46V47H130.224V27.792H126.864V34.54C125.8 33.392 123.924 32.608 122.216 32.608C117.792 32.608 114.824 35.576 114.824 40C114.824 44.424 117.792 47.392 122.216 47.392ZM122.552 44.424C119.92 44.424 118.184 42.66 118.184 40C118.184 37.34 119.92 35.576 122.552 35.576C125.128 35.576 126.864 37.34 126.864 40C126.864 42.66 125.128 44.424 122.552 44.424ZM139.83 47.392C143.246 47.392 146.158 45.32 147.082 42.24H143.666C143.022 43.64 141.482 44.592 139.83 44.592C137.646 44.592 135.966 43.136 135.658 40.924H147.138L147.418 40.644V40C147.418 35.576 144.394 32.608 139.83 32.608C135.266 32.608 132.242 35.576 132.242 40C132.242 44.424 135.266 47.392 139.83 47.392ZM135.882 38.124C136.526 36.388 137.954 35.408 139.83 35.408C141.706 35.408 143.134 36.388 143.778 38.124H135.882ZM156.455 47.392C160.263 47.392 163.203 44.956 163.791 41.316H160.571C160.151 43.192 158.499 44.424 156.455 44.424C153.907 44.424 152.227 42.66 152.227 40C152.227 37.34 153.907 35.576 156.455 35.576C158.471 35.576 160.095 36.752 160.543 38.544H163.763C163.147 34.988 160.235 32.608 156.455 32.608C151.891 32.608 148.867 35.576 148.867 40C148.867 44.424 151.891 47.392 156.455 47.392ZM165.806 47H169.166V42.268L170.258 41.176L174.962 47H179.274L172.666 38.824L178.602 33H173.898L169.166 37.76V27.792H165.806V47Z" fill="white"></path><rect x="0.5" y="0.5" width="221" height="71" rx="14.5" stroke="url(#paint1_radial_203_156)"></rect><rect x="0.5" y="0.5" width="221" height="71" rx="14.5" stroke="url(#paint2_radial_203_156)"></rect><rect x="0.5" y="0.5" width="221" height="71" rx="14.5" stroke="url(#paint3_radial_203_156)" stroke-opacity="0.8"></rect><defs><radialGradient id="paint0_radial_203_156" cx="0" cy="0" r="1" gradientUnits="userSpaceOnUse" gradientTransform="translate(18.5704) rotate(19.8215) scale(235.981 109.971)"><stop stop-color="white" stop-opacity="0.36"></stop><stop offset="1" stop-color="white" stop-opacity="0"></stop></radialGradient><radialGradient id="paint1_radial_203_156" cx="0" cy="0" r="1" gradientUnits="userSpaceOnUse" gradientTransform="translate(-60.41 9.08251) rotate(16.8913) scale(158.408 43.1106)"><stop stop-color="#B5FEFE"></stop><stop offset="1" stop-color="#B5FEFE" stop-opacity="0.06"></stop></radialGradient><radialGradient id="paint2_radial_203_156" cx="0" cy="0" r="1" gradientUnits="userSpaceOnUse" gradientTransform="translate(286.993 48.1867) rotate(173.749) scale(176.836 42.7619)"><stop stop-color="#B5FEFE"></stop><stop offset="1" stop-color="#1AEEF9" stop-opacity="0"></stop></radialGradient><radialGradient id="paint3_radial_203_156" cx="0" cy="0" r="1" gradientUnits="userSpaceOnUse" gradientTransform="translate(113.417 -16.4554) rotate(19.3584) scale(89.191 40.2176)"><stop></stop><stop offset="1" stop-color="white" stop-opacity="0"></stop></radialGradient></defs></svg>