<svg xmlns="http://www.w3.org/2000/svg" width="110" height="72" viewBox="0 0 110 72" fill="none"><rect x="0.5" y="0.5" width="109" height="71" rx="14.5" fill="url(#paint0_radial_285_259)" fill-opacity="0.3"></rect><path d="M32.624 47H36.376V39.748H41.164C45.14 39.748 47.8 37.34 47.8 33.728C47.8 30.172 45.14 27.792 41.164 27.792H32.624V47ZM36.376 36.388V31.152H41.164C42.9 31.152 44.048 32.188 44.048 33.728C44.048 35.324 42.9 36.388 41.164 36.388H36.376ZM49.8153 47H53.1753V27.792H49.8153V47ZM62.4689 47.392C64.1209 47.392 65.9409 46.636 67.0049 45.488V47H70.3649V33H67.0049V34.512C65.9409 33.364 64.1209 32.608 62.4689 32.608C58.1009 32.608 55.1889 35.576 55.1889 40C55.1889 44.424 58.1009 47.392 62.4689 47.392ZM62.8049 44.424C60.2569 44.424 58.5489 42.66 58.5489 40C58.5489 37.34 60.2569 35.576 62.8049 35.576C65.3249 35.576 67.0049 37.34 67.0049 40C67.0049 42.66 65.3249 44.424 62.8049 44.424ZM74.3685 52.208H77.9805L85.5405 33H81.9285L78.4845 41.792L75.0125 33H71.4285L76.7765 46.104L74.3685 52.208Z" fill="white"></path><rect x="0.5" y="0.5" width="109" height="71" rx="14.5" stroke="url(#paint1_radial_285_259)"></rect><rect x="0.5" y="0.5" width="109" height="71" rx="14.5" stroke="url(#paint2_radial_285_259)"></rect><rect x="0.5" y="0.5" width="109" height="71" rx="14.5" stroke="url(#paint3_radial_285_259)" stroke-opacity="0.8"></rect><defs><radialGradient id="paint0_radial_285_259" cx="0" cy="0" r="1" gradientUnits="userSpaceOnUse" gradientTransform="translate(9.20155) rotate(36.0338) scale(136.026 94.5305)"><stop stop-color="white" stop-opacity="0.36"></stop><stop offset="1" stop-color="white" stop-opacity="0"></stop></radialGradient><radialGradient id="paint1_radial_285_259" cx="0" cy="0" r="1" gradientUnits="userSpaceOnUse" gradientTransform="translate(-29.9329 9.08251) rotate(31.5015) scale(88.0855 38.4145)"><stop stop-color="#B5FEFE"></stop><stop offset="1" stop-color="#B5FEFE" stop-opacity="0.06"></stop></radialGradient><radialGradient id="paint2_radial_285_259" cx="0" cy="0" r="1" gradientUnits="userSpaceOnUse" gradientTransform="translate(142.204 48.1867) rotate(167.535) scale(89.2032 42.0037)"><stop stop-color="#B5FEFE"></stop><stop offset="1" stop-color="#1AEEF9" stop-opacity="0"></stop></radialGradient><radialGradient id="paint3_radial_285_259" cx="0" cy="0" r="1" gradientUnits="userSpaceOnUse" gradientTransform="translate(56.1976 -16.4554) rotate(35.3392) scale(51.1132 34.7731)"><stop></stop><stop offset="1" stop-color="white" stop-opacity="0"></stop></radialGradient></defs></svg>