<svg xmlns="http://www.w3.org/2000/svg" width="18" height="17" viewBox="0 0 18 17" fill="none"><path d="M16.7848 2.41753C17.2801 1.92716 17.2801 1.12694 16.7848 0.63657C16.2965 0.153022 15.5098 0.153022 15.0214 0.636569L8.9828 6.61568C8.90485 6.69285 8.7793 6.69285 8.70136 6.61568L2.66275 0.63657C2.17439 0.153022 1.3877 0.153022 0.89934 0.636569C0.404095 1.12694 0.404095 1.92716 0.89934 2.41753L6.9175 8.37639C6.99654 8.45465 6.99654 8.58237 6.9175 8.66063L0.89934 14.6195C0.404095 15.1099 0.404095 15.9101 0.89934 16.4005C1.3877 16.884 2.17439 16.884 2.66275 16.4005L8.70136 10.4213C8.7793 10.3442 8.90485 10.3442 8.9828 10.4213L15.0214 16.4005C15.5098 16.884 16.2965 16.884 16.7848 16.4005C17.2801 15.9101 17.2801 15.1099 16.7848 14.6195L10.7667 8.66063C10.6876 8.58237 10.6876 8.45465 10.7667 8.37639L16.7848 2.41753Z" fill="white"></path></svg>