<svg xmlns="http://www.w3.org/2000/svg" width="30" height="36" viewBox="0 0 30 36" fill="none"><g clip-path="url(#clip0_1_914)"><path d="M18.7972 25.1056C18.7972 25.1056 30.7465 16.4826 29.421 6.61378C29.4079 6.4462 29.3414 6.28722 29.2314 6.16012C29.1093 6.04684 28.9523 5.97823 28.7862 5.96545C19.1425 4.60954 10.7176 16.8364 10.7176 16.8364C3.40818 15.9613 3.93972 17.4188 0.604954 25.429C-0.0332212 26.9558 1.00106 27.4823 2.13522 27.0523L5.7713 25.6795L10.1556 30.1619L8.81321 33.8843C8.3934 35.0456 8.90631 36.1036 10.401 35.4519C18.2284 32.0392 19.6537 32.5843 18.7972 25.1056ZM20.5052 15.0912C20.0182 14.5879 19.7459 13.9151 19.7459 13.2148C19.7459 12.5144 20.0182 11.8416 20.5052 11.3383C20.7433 11.0929 21.0283 10.8978 21.3432 10.7646C21.6581 10.6313 21.9965 10.5627 22.3385 10.5627C22.6804 10.5627 23.0188 10.6313 23.3338 10.7646C23.6487 10.8978 23.9336 11.0929 24.1717 11.3383C24.6587 11.8416 24.931 12.5144 24.931 13.2148C24.931 13.9151 24.6587 14.5879 24.1717 15.0912C23.9336 15.3366 23.6487 15.5317 23.3338 15.6649C23.0188 15.7982 22.6804 15.8668 22.3385 15.8668C21.9965 15.8668 21.6581 15.7982 21.3432 15.6649C21.0283 15.5317 20.7433 15.3366 20.5052 15.0912Z" fill="white"></path></g><defs><clipPath id="clip0_1_914"><rect width="29.1141" height="35.2002" fill="white" transform="translate(0.409637 0.450928)"></rect></clipPath></defs></svg>