<svg xmlns="http://www.w3.org/2000/svg" width="379" height="282" viewBox="0 0 379 282" fill="none"><g filter="url(#filter0_b_223_15719)"><path fill-rule="evenodd" clip-rule="evenodd" d="M134.131 46.8252C137.87 46.8252 140.895 43.8675 141.579 40.1914C145.773 17.6436 165.549 0.572266 189.312 0.572266C213.075 0.572266 232.851 17.6436 237.045 40.1914C237.729 43.8675 240.754 46.8252 244.493 46.8252H357.723C369.268 46.8252 378.628 56.1847 378.628 67.7303V260.162C378.628 271.708 369.268 281.067 357.723 281.067H20.909C9.36343 281.067 0.00390625 271.708 0.00390625 260.162V67.7303C0.00390625 56.1847 9.36344 46.8252 20.909 46.8252H134.131Z" fill="white" fill-opacity="0.04"></path></g><path fill-rule="evenodd" clip-rule="evenodd" d="M183.846 23.7527C189.064 22.5738 194.523 23.1132 199.409 25.2904C200.847 25.9312 202.533 25.2848 203.173 23.8467C203.814 22.4086 203.168 20.7234 201.73 20.0826C195.72 17.405 189.007 16.7417 182.589 18.1915C176.172 19.6414 170.396 23.1267 166.121 28.1278C161.847 33.1289 159.304 39.3777 158.871 45.9422C158.438 52.5068 160.139 59.0355 163.719 64.5545C167.3 70.0735 172.569 74.2872 178.74 76.5672C184.911 78.8471 191.654 79.0711 197.963 77.2057C204.272 75.3404 209.809 71.4857 213.748 66.2165C217.687 60.9473 219.817 54.5459 219.821 47.967V47.9654V45.4209C219.821 43.8465 218.545 42.5702 216.97 42.5702C215.396 42.5702 214.12 43.8465 214.12 45.4209V47.9638C214.117 53.3132 212.384 58.5182 209.181 62.8027C205.978 67.0872 201.476 70.2216 196.346 71.7383C191.217 73.2551 185.734 73.0729 180.716 71.2191C175.698 69.3652 171.414 65.939 168.502 61.4514C165.591 56.9637 164.208 51.6552 164.56 46.3174C164.912 40.9796 166.98 35.8986 170.455 31.8321C173.931 27.7656 178.628 24.9316 183.846 23.7527ZM218.987 27.8557C220.099 26.7418 220.099 24.9369 218.985 23.8242C217.871 22.7115 216.066 22.7124 214.953 23.8262L189.311 49.4936L183.031 43.2131C181.918 42.0998 180.113 42.0998 179 43.2131C177.886 44.3263 177.886 46.1313 179 47.2446L187.297 55.5418C187.832 56.0766 188.557 56.3769 189.313 56.3767C190.069 56.3766 190.795 56.0758 191.329 55.5408L218.987 27.8557Z" fill="url(#paint0_linear_223_15719)"></path><defs><filter id="filter0_b_223_15719" x="-14.2496" y="-13.6812" width="407.13" height="309.002" filterUnits="userSpaceOnUse" color-interpolation-filters="sRGB"><feGaussianBlur stdDeviation="7.12674"></feGaussianBlur></filter><linearGradient id="paint0_linear_223_15719" x1="189.313" y1="8.01122" x2="189.313" y2="87.5703" gradientUnits="userSpaceOnUse"><stop stop-color="#0338D1"></stop><stop offset="0.354167" stop-color="#1CFCFC"></stop><stop offset="0.885417" stop-color="#0338D1"></stop></linearGradient></defs></svg>