<svg xmlns="http://www.w3.org/2000/svg" width="247" height="82" viewBox="0 0 247 82" fill="none"><rect x="0.54576" y="0.54576" width="245.908" height="80.9085" rx="14.4542" fill="url(#paint0_radial_203_103)" fill-opacity="0.3"></rect><path d="M56.967 42.3855C56.9151 36.8809 61.6888 34.2029 61.9071 34.0782C59.2036 30.3157 55.0132 29.8016 53.5407 29.7607C50.0212 29.4071 46.6074 31.7709 44.8146 31.7709C42.986 31.7709 40.2252 29.7948 37.2497 29.8529C33.4207 29.9092 29.8387 32.0253 27.8741 35.3113C23.8197 42.0114 26.8435 51.8575 30.7279 57.2733C32.671 59.9256 34.9416 62.8872 37.9135 62.783C40.821 62.6685 41.9071 61.0136 45.4158 61.0136C48.8922 61.0136 49.9121 62.783 52.9431 62.7164C56.0635 62.6685 58.028 60.052 59.9032 57.3757C62.1487 54.3357 63.0504 51.3417 63.0862 51.188C63.0129 51.1641 57.0261 48.9831 56.967 42.3855Z" fill="white"></path><path d="M51.2415 26.1985C52.8053 24.3317 53.8753 21.7921 53.5783 19.2148C51.3149 19.3105 48.4843 20.7093 46.8543 22.535C45.4122 24.1439 44.124 26.7809 44.4568 29.2607C46.9993 29.4418 49.6097 28.0362 51.2415 26.1985Z" fill="white"></path><path d="M98.4177 52.5608H94.4189L92.2285 45.9907H84.6149L82.5283 52.5608H78.6353L86.1785 30.1934H90.8375L98.4177 52.5608ZM91.5682 43.2343L89.5873 37.3937C89.3778 36.797 88.9851 35.3919 88.4058 33.18H88.3354C88.1047 34.1314 87.7332 35.5365 87.2226 37.3937L85.2769 43.2343H91.5682V43.2343Z" fill="white"></path><path d="M117.816 44.2986C117.816 47.0416 117.04 49.2097 115.487 50.8014C114.096 52.2183 112.368 52.9259 110.307 52.9259C108.081 52.9259 106.482 52.1628 105.508 50.6367H105.438V59.1329H101.684V41.7422C101.684 40.0177 101.636 38.2479 101.545 36.4327H104.846L105.056 38.9891H105.126C106.378 37.063 108.278 36.1016 110.828 36.1016C112.821 36.1016 114.485 36.8529 115.816 38.3571C117.151 39.8631 117.816 41.843 117.816 44.2986ZM113.992 44.4297C113.992 42.8599 113.622 41.5657 112.879 40.5471C112.067 39.4849 110.977 38.9538 109.611 38.9538C108.685 38.9538 107.843 39.2496 107.091 39.8328C106.338 40.4211 105.845 41.1892 105.614 42.1405C105.498 42.5842 105.44 42.9473 105.44 43.233V45.9222C105.44 47.0953 105.817 48.0853 106.57 48.8937C107.324 49.7022 108.303 50.1056 109.507 50.1056C110.921 50.1056 112.022 49.5845 112.809 48.5458C113.597 47.5054 113.992 46.1339 113.992 44.4297Z" fill="white"></path><path d="M137.25 44.2986C137.25 47.0416 136.473 49.2097 134.918 50.8014C133.529 52.2183 131.802 52.9259 129.74 52.9259C127.514 52.9259 125.915 52.1628 124.944 50.6367H124.873V59.1329H121.119V41.7422C121.119 40.0177 121.072 38.2479 120.98 36.4327H124.281L124.491 38.9891H124.561C125.812 37.063 127.711 36.1016 130.263 36.1016C132.254 36.1016 133.918 36.8529 135.253 38.3571C136.582 39.8631 137.25 41.843 137.25 44.2986ZM133.425 44.4297C133.425 42.8599 133.054 41.5657 132.311 40.5471C131.499 39.4849 130.413 38.9538 129.044 38.9538C128.116 38.9538 127.277 39.2496 126.523 39.8328C125.769 40.4211 125.278 41.1892 125.047 42.1405C124.933 42.5842 124.873 42.9473 124.873 43.233V45.9222C124.873 47.0953 125.25 48.0853 126 48.8937C126.754 49.7005 127.733 50.1056 128.94 50.1056C130.354 50.1056 131.455 49.5845 132.242 48.5458C133.031 47.5054 133.425 46.1339 133.425 44.4297Z" fill="white"></path><path d="M158.978 46.2888C158.978 48.1914 158.286 49.7394 156.897 50.9344C155.37 52.2403 153.245 52.8925 150.514 52.8925C147.992 52.8925 145.971 52.4286 144.441 51.4991L145.311 48.5124C146.959 49.4637 148.767 49.9411 150.737 49.9411C152.151 49.9411 153.252 49.6352 154.042 49.0267C154.83 48.4183 155.222 47.6015 155.222 46.5829C155.222 45.6753 154.898 44.9106 154.248 44.2904C153.602 43.6702 152.523 43.0937 151.016 42.5609C146.913 41.1003 144.864 38.9607 144.864 36.1472C144.864 34.3084 145.582 32.8008 147.02 31.6276C148.454 30.4528 150.366 29.8662 152.757 29.8662C154.889 29.8662 156.661 30.2208 158.075 30.9284L157.136 33.8496C155.816 33.1638 154.322 32.821 152.651 32.821C151.331 32.821 150.299 33.1319 149.56 33.7504C148.934 34.3034 148.621 34.9774 148.621 35.7757C148.621 36.6598 148.978 37.3909 149.697 37.9657C150.322 38.4969 151.458 39.0717 153.106 39.6919C155.122 40.4667 156.603 41.3726 157.555 42.4113C158.504 43.4467 158.978 44.7425 158.978 46.2888Z" fill="white"></path><path d="M171.389 39.1229H167.251V46.9535C167.251 48.9452 167.98 49.9402 169.441 49.9402C170.112 49.9402 170.669 49.8847 171.109 49.7738L171.213 52.4949C170.473 52.7588 169.5 52.8916 168.293 52.8916C166.811 52.8916 165.652 52.4596 164.816 51.5974C163.983 50.7335 163.564 49.2847 163.564 47.2493V39.1195H161.099V36.4303H163.564V33.4773L167.251 32.415V36.4303H171.389V39.1229Z" fill="white"></path><path d="M190.06 44.3644C190.06 46.8435 189.317 48.8789 187.834 50.4706C186.279 52.1093 184.216 52.9261 181.643 52.9261C179.164 52.9261 177.19 52.1412 175.718 50.5714C174.246 49.0016 173.51 47.02 173.51 44.6316C173.51 42.1324 174.267 40.0852 175.787 38.4935C177.303 36.9002 179.349 36.1035 181.922 36.1035C184.401 36.1035 186.396 36.8884 187.901 38.4599C189.341 39.9844 190.06 41.9525 190.06 44.3644ZM186.165 44.4804C186.165 42.9929 185.832 41.7172 185.158 40.6533C184.371 39.3658 183.246 38.7238 181.788 38.7238C180.279 38.7238 179.132 39.3675 178.345 40.6533C177.671 41.7189 177.338 43.0148 177.338 44.5476C177.338 46.0351 177.671 47.3107 178.345 48.373C179.157 49.6604 180.291 50.3025 181.754 50.3025C183.188 50.3025 184.313 49.647 185.124 48.3394C185.816 47.2553 186.165 45.9661 186.165 44.4804Z" fill="white"></path><path d="M202.261 39.5841C201.89 39.5185 201.493 39.4849 201.078 39.4849C199.757 39.4849 198.736 39.9606 198.018 40.9135C197.392 41.7539 197.079 42.8161 197.079 44.0986V52.5611H193.327L193.362 41.5119C193.362 39.653 193.315 37.9605 193.221 36.4344H196.491L196.628 39.5202H196.732C197.128 38.4597 197.753 37.6058 198.609 36.9655C199.446 36.389 200.349 36.1016 201.323 36.1016C201.669 36.1016 201.983 36.1251 202.261 36.1671V39.5841Z" fill="white"></path><path d="M219.051 43.7328C219.051 44.3749 219.007 44.9161 218.914 45.3581H207.652C207.696 46.9515 208.24 48.17 209.286 49.0104C210.235 49.7617 211.462 50.1382 212.97 50.1382C214.637 50.1382 216.158 49.8844 217.527 49.3751L218.115 51.8626C216.516 52.5282 214.628 52.8593 212.45 52.8593C209.83 52.8593 207.774 52.1231 206.277 50.6525C204.784 49.1818 204.035 47.2069 204.035 44.7295C204.035 42.2975 204.731 40.2722 206.124 38.657C207.582 36.9325 209.552 36.0703 212.031 36.0703C214.466 36.0703 216.31 36.9325 217.562 38.657C218.553 40.0268 219.051 41.721 219.051 43.7328ZM215.472 42.8034C215.496 41.7412 215.252 40.8235 214.743 40.0486C214.093 39.052 213.095 38.5545 211.751 38.5545C210.524 38.5545 209.526 39.0402 208.763 40.015C208.138 40.7899 207.767 41.7193 207.652 42.8017H215.472V42.8034Z" fill="white"></path><rect x="0.54576" y="0.54576" width="245.908" height="80.9085" rx="14.4542" stroke="url(#paint1_radial_203_103)" stroke-width="1.09152"></rect><rect x="0.54576" y="0.54576" width="245.908" height="80.9085" rx="14.4542" stroke="url(#paint2_radial_203_103)" stroke-width="1.09152"></rect><rect x="0.54576" y="0.54576" width="245.908" height="80.9085" rx="14.4542" stroke="url(#paint3_radial_203_103)" stroke-opacity="0.8" stroke-width="1.09152"></rect><defs><radialGradient id="paint0_radial_203_103" cx="0" cy="0" r="1" gradientUnits="userSpaceOnUse" gradientTransform="translate(20.6617) rotate(20.252) scale(263.276 124.902)"><stop stop-color="white" stop-opacity="0.36"></stop><stop offset="1" stop-color="white" stop-opacity="0"></stop></radialGradient><radialGradient id="paint1_radial_203_103" cx="0" cy="0" r="1" gradientUnits="userSpaceOnUse" gradientTransform="translate(-67.2129 10.344) rotate(17.2668) scale(176.602 48.9994)"><stop stop-color="#B5FEFE"></stop><stop offset="1" stop-color="#B5FEFE" stop-opacity="0.06"></stop></radialGradient><radialGradient id="paint2_radial_203_103" cx="0" cy="0" r="1" gradientUnits="userSpaceOnUse" gradientTransform="translate(319.312 54.8793) rotate(173.603) scale(196.806 48.6873)"><stop stop-color="#B5FEFE"></stop><stop offset="1" stop-color="#1AEEF9" stop-opacity="0"></stop></radialGradient><radialGradient id="paint3_radial_203_103" cx="0" cy="0" r="1" gradientUnits="userSpaceOnUse" gradientTransform="translate(126.189 -18.7408) rotate(19.7805) scale(99.4952 45.6835)"><stop></stop><stop offset="1" stop-color="white" stop-opacity="0"></stop></radialGradient></defs></svg>