<svg xmlns="http://www.w3.org/2000/svg" width="192" height="52" viewBox="0 0 192 52" fill="none"><path d="M56.6367 6.40137H65.2486C67.4374 6.40137 69.0426 6.98744 70.0641 8.01542C70.5288 8.41159 70.9006 8.90598 71.1528 9.46322C71.4051 10.0205 71.5316 10.6268 71.5233 11.2388C71.5472 11.7318 71.498 12.2255 71.3774 12.704C71.0805 13.469 70.6339 14.1665 70.0641 14.7552C69.8081 14.9999 69.5119 15.1982 69.1885 15.3413C70.1865 15.645 71.0907 16.1998 71.8151 16.953C72.3988 17.6856 72.6907 18.5647 72.6907 19.8834C72.7009 20.6388 72.5517 21.3878 72.2529 22.0811C71.8887 22.7189 71.3908 23.2696 70.7937 23.6952C70.0933 24.0967 69.3612 24.4397 68.6048 24.7208C67.7293 25.0138 66.7078 25.0138 65.6863 25.0138H56.7756V6.40137H56.6367ZM64.519 14.0227C65.2699 14.0184 66.013 13.8692 66.7078 13.5831C66.9759 13.4458 67.2001 13.2357 67.3549 12.9766C67.5097 12.7175 67.5889 12.42 67.5834 12.1179V12.1179C67.5856 11.8332 67.5206 11.552 67.3938 11.2973C67.267 11.0427 67.0819 10.8218 66.8537 10.6527C66.564 10.4378 66.2318 10.2874 65.8795 10.2116C65.5272 10.1358 65.1629 10.1363 64.8108 10.2132H60.7249V14.1692H64.519V14.0227ZM65.5404 21.4951C66.2914 21.4908 67.0345 21.3416 67.7293 21.0555C68.0186 20.9139 68.2496 20.6756 68.3828 20.3814C68.516 20.0873 68.5429 19.7557 68.4589 19.4438V19.4438C68.4611 19.1591 68.3962 18.8779 68.2694 18.6232C68.1426 18.3686 67.9575 18.1477 67.7293 17.9786C67.0181 17.5751 66.2112 17.3725 65.3945 17.3926H60.579V21.4951H65.5404Z" fill="#BBCCDB"></path><path d="M77.8008 6.40137H81.8866V25.1604H77.8008V6.40137Z" fill="#BBCCDB"></path><path d="M88.1602 6.40137H91.9565L100.712 17.9786V6.40137H104.798V25.1604H101.296L92.1025 13.2901V25.1604H88.1602V6.40137Z" fill="#BBCCDB"></path><path d="M117.206 6.26074H121L129.033 25.1663H124.797L123.046 20.9125H115.163L113.412 25.1663H109.176L117.206 6.26074ZM121.586 17.3985L119.103 11.2542L116.623 17.3985H121.586Z" fill="#BBCCDB"></path><path d="M133.406 6.40137H137.2L145.958 17.9786V6.40137H150.044V25.1604H146.542L137.492 13.2901V25.1604H133.406V6.40137Z" fill="#BBCCDB"></path><path d="M164.928 25.4546C163.63 25.4379 162.345 25.1898 161.134 24.722C158.838 23.7346 157.009 21.8973 156.027 19.5915C155.561 18.3751 155.314 17.0853 155.297 15.7821C155.335 13.22 156.323 10.7644 158.069 8.89574C158.932 8.00015 159.975 7.29998 161.129 6.84212C162.375 6.31731 163.719 6.06747 165.069 6.10953C165.85 6.08529 166.632 6.13435 167.404 6.25606C168.061 6.36286 168.7 6.56007 169.303 6.84212C169.855 7.10478 170.391 7.39909 170.908 7.7236C171.43 8.07176 171.918 8.46729 172.368 8.90519L169.887 11.9773C169.193 11.3924 168.461 10.854 167.696 10.3656C166.937 9.94926 166.079 9.74676 165.215 9.77957C164.464 9.78381 163.721 9.93304 163.026 10.2191C162.331 10.4859 161.725 10.9427 161.275 11.5378C160.799 12.1164 160.403 12.7571 160.098 13.4425C159.813 14.1401 159.665 14.8863 159.66 15.6403V15.6403C159.664 16.4418 159.813 17.2361 160.098 17.9846C160.347 18.6982 160.749 19.3484 161.275 19.8893C161.769 20.4477 162.376 20.8935 163.055 21.1967C163.735 21.5 164.471 21.6537 165.215 21.6475C166.171 21.6652 167.119 21.4648 167.988 21.0614C168.776 20.6092 169.511 20.0685 170.179 19.4497L172.808 22.0942L171.349 23.5617C170.798 23.9575 170.212 24.3009 169.597 24.5873C168.95 24.9191 168.263 25.1654 167.552 25.3199C166.681 25.4341 165.803 25.483 164.926 25.4664L164.928 25.4546Z" fill="#BBCCDB"></path><path d="M177.48 6.40137H191.492V10.0667H181.42V13.8761H190.324V17.5391H181.42V21.4951H191.637V25.1604H177.48V6.40137Z" fill="#BBCCDB"></path><path d="M61.8912 43.6239C60.8857 43.6564 59.8862 43.4559 58.9704 43.0379C58.0948 42.7448 57.2193 42.1588 56.3438 41.4262L57.803 39.8145C58.3867 40.4006 58.9798 40.6936 59.7023 41.1331C60.3971 41.4192 61.1403 41.5685 61.8912 41.5727C62.5012 41.5662 63.101 41.4156 63.6423 41.1331C63.8333 41.004 63.9876 40.8271 64.0899 40.6199C64.1923 40.4128 64.2391 40.1824 64.226 39.9516V39.9516C64.2476 39.745 64.1959 39.5375 64.0801 39.3655C63.9341 39.219 63.7882 38.9259 63.6423 38.7794L62.7667 38.3375C62.329 38.191 61.7453 38.0445 61.3075 37.8979C60.6564 37.7701 60.0206 37.5736 59.4105 37.3119C58.9279 37.1578 58.4806 36.9087 58.0948 36.5793C57.7677 36.2695 57.4742 35.9257 57.2193 35.5537C56.994 35.0479 56.8939 34.495 56.9274 33.942C56.9537 33.3942 57.0518 32.8523 57.2193 32.3303C57.3652 31.8907 57.803 31.4512 58.0948 31.1487C58.534 30.818 59.0292 30.5698 59.5564 30.4161C60.1261 30.2475 60.7141 30.1491 61.3075 30.123C62.201 30.126 63.088 30.2745 63.9341 30.5626C64.6933 30.8987 65.4251 31.2938 66.123 31.7442L64.9462 33.5024C64.3956 33.1066 63.8093 32.7632 63.1951 32.4768C62.6114 32.1837 62.0183 32.1837 61.444 32.1837C60.878 32.1721 60.3206 32.3248 59.8389 32.6233C59.5025 32.9292 59.2933 33.3511 59.2528 33.8049C59.2299 34.0584 59.2814 34.3131 59.4011 34.5375C59.547 34.684 59.6929 34.977 59.8389 35.1236C60.1704 35.297 60.5151 35.444 60.8697 35.5631C61.3939 35.7472 61.9302 35.8941 62.4749 36.0027C63.1207 36.1512 63.7547 36.3471 64.3719 36.5887C64.8389 36.7759 65.2802 37.0221 65.6852 37.3213C65.9756 37.6267 66.2213 37.9721 66.4148 38.3469C66.5959 38.8163 66.6946 39.3136 66.7067 39.8168V39.8168C66.6937 40.3661 66.5952 40.9099 66.4148 41.4285C66.1208 41.9025 65.7785 42.3444 65.3934 42.7472C64.9547 43.0774 64.4604 43.3256 63.9341 43.4798C63.2045 43.4774 62.4749 43.6239 61.8912 43.6239Z" fill="#BBCCDB"></path><path d="M69.1875 30.2881H71.6682L75.6105 36.4418L79.6964 30.2881H82.1771V43.477H79.8423V33.951L75.7564 40.1048H75.6105L71.5223 33.951V43.477H69.1875V30.2881Z" fill="#BBCCDB"></path><path d="M90.0582 30.1436H92.2494L97.9404 43.3325H95.4597L94.1464 40.1091H88.027L86.7137 43.3325H84.3789L90.0582 30.1436ZM93.4168 38.202L91.082 32.9274L88.8908 38.202H93.4168Z" fill="#BBCCDB"></path><path d="M100.275 30.2881H106.114C106.852 30.3135 107.585 30.4117 108.303 30.5811C108.916 30.7799 109.469 31.133 109.908 31.6067C110.266 31.998 110.562 32.4428 110.784 32.9254C110.964 33.4441 111.063 33.9879 111.076 34.5371V34.5371C111.049 35.0371 110.951 35.5305 110.784 36.0023C110.638 36.4418 110.346 36.7349 110.2 37.1839C109.891 37.5124 109.549 37.8071 109.179 38.063C108.77 38.3184 108.328 38.5163 107.865 38.6514L111.379 43.6236H108.595L105.382 39.0815H102.464V43.6236H100.129L100.275 30.2881ZM105.966 36.7443C106.698 36.7443 107.427 36.5978 107.865 36.1582C108.307 35.7362 108.569 35.1584 108.595 34.5466V34.5466C108.569 33.9347 108.307 33.3569 107.865 32.9349C107.265 32.5219 106.547 32.3162 105.82 32.3488H102.464V36.7443H105.966Z" fill="#BBCCDB"></path><path d="M117.06 32.3393H112.828V30.2881H123.483V32.3393H119.249V43.477H116.914L117.06 32.3393Z" fill="#BBCCDB"></path><path d="M137.639 43.6238C136.729 43.6411 135.827 43.4402 135.01 43.0377C133.405 42.3052 132.092 41.133 131.508 39.5213C131.216 38.6422 130.924 37.7607 131.07 36.8816C131.073 35.9845 131.221 35.0939 131.508 34.2443C131.823 33.4323 132.294 32.6907 132.895 32.0621C133.496 31.4335 134.215 30.9303 135.01 30.5814C135.886 30.2883 136.761 29.9953 137.785 29.9953C138.324 29.9643 138.865 30.0137 139.39 30.1418L140.703 30.5814C141.141 30.7279 141.433 31.0209 141.88 31.1674C142.172 31.4605 142.61 31.7535 142.902 32.0465L141.442 33.8048C140.971 33.3302 140.43 32.9317 139.837 32.6232C139.198 32.3233 138.5 32.173 137.794 32.1836C137.2 32.2096 136.611 32.308 136.041 32.4766C135.5 32.7324 135.006 33.0793 134.582 33.5023C134.156 33.8965 133.852 34.405 133.706 34.9675C133.538 35.5395 133.44 36.1299 133.414 36.7257C133.44 37.3214 133.538 37.9118 133.706 38.4839C133.852 39.0472 134.156 39.5566 134.582 39.9514C135.006 40.3744 135.5 40.7213 136.041 40.977C136.57 41.2855 137.194 41.3896 137.794 41.2701C138.5 41.2807 139.198 41.1304 139.837 40.8305C140.487 40.4879 141.079 40.0427 141.588 39.5119L143.048 40.977L142.026 42.0027C141.588 42.2957 141.297 42.5887 140.849 42.7353C140.402 42.8818 139.974 43.1748 139.39 43.1748C138.806 43.6144 138.213 43.6144 137.639 43.6144V43.6238Z" fill="#BBCCDB"></path><path d="M145.371 30.2881H147.56V35.7092H153.837V30.2881H156.172V43.477H153.837V37.907H147.56V43.477H145.371V30.2881Z" fill="#BBCCDB"></path><path d="M164.199 30.1436H166.388L172.081 43.3325H169.6L168.287 40.1091H162.168L160.854 43.3325H158.52L164.199 30.1436ZM167.409 38.202L165.22 32.9274L163.031 38.202H167.409Z" fill="#BBCCDB"></path><path d="M174.418 30.2881H176.753V43.477H174.418V30.2881Z" fill="#BBCCDB"></path><path d="M180.254 30.2881H182.297L189.304 39.3722V30.2881H191.638V43.477H189.741L182.589 34.0975V43.477H180.254V30.2881Z" fill="#BBCCDB"></path><path d="M27.1878 42.5995V48.3255L22.2241 51.2559L17.4086 48.3255V42.5995L22.2241 45.5298L27.1878 42.5995ZM0.625 22.8149L5.44049 25.7476V35.5643L13.7605 40.5482V46.2624L0.625 38.4946V22.8149ZM43.8255 22.8149V38.4946L30.5441 46.2624V40.5482L38.8618 35.5643V25.7476L43.8255 22.8149ZM30.5441 15.0494L35.5055 17.9798V23.6963L27.1878 28.6779V38.6364L22.37 41.5668L17.5545 38.6364V28.6779L8.94501 23.6963V17.9798L13.9064 15.0494L22.2241 20.031L30.5441 15.0494ZM8.94501 27.7988L13.7605 30.7292V36.4434L8.94501 33.513V27.7988ZM35.5055 27.7988V33.513L30.69 36.4434V30.7292L35.5055 27.7988ZM5.44049 10.0749L10.4113 12.9982L5.44755 15.9285V21.6427L0.632061 18.7124V12.9982L5.44049 10.0749ZM39.0077 10.0749L43.9714 13.0053V18.7195L39.0077 21.6498V15.9285L34.1828 12.9982L39.0077 10.0749ZM22.2241 10.0749L27.1878 13.0053L22.2241 15.9356L17.4086 13.0053L22.2241 10.0749ZM22.2241 0.255859L35.5055 8.02366L30.69 10.954L22.37 5.97005L13.897 10.954L9.08152 8.02366L22.2241 0.255859Z" fill="#BBCCDB"></path></svg>