<svg xmlns="http://www.w3.org/2000/svg" width="231" height="72" viewBox="0 0 231 72" fill="none"><rect x="1.15137" y="0.5" width="228.5" height="71" rx="14.5" fill="url(#paint0_linear_203_151)"></rect><path d="M33.2754 47H43.4674C47.3874 47 50.0194 44.844 50.0194 41.596C50.0194 39.552 48.6754 37.592 46.6594 36.724C47.7794 35.772 48.5074 34.288 48.5074 32.972C48.5074 29.864 45.9874 27.792 42.2074 27.792H33.2754V47ZM37.0274 35.464V31.152H42.2074C43.7474 31.152 44.7554 32.02 44.7554 33.308C44.7554 34.596 43.7474 35.464 42.2074 35.464H37.0274ZM37.0274 43.64V38.824H43.4954C45.1474 38.824 46.2674 39.804 46.2674 41.26C46.2674 42.688 45.1474 43.64 43.4674 43.64H37.0274ZM65.3039 33H61.9439V41.316C61.9439 43.192 60.5719 44.424 58.5279 44.424C56.4839 44.424 55.1119 43.192 55.1119 41.316V33H51.7519V41.708C51.7519 45.124 54.2999 47.392 58.1359 47.392C59.5079 47.392 61.0199 46.832 61.9439 45.964V47H65.3039V33ZM70.1527 52.208H73.7647L81.3247 33H77.7127L74.2687 41.792L70.7967 33H67.2127L72.5607 46.104L70.1527 52.208ZM94.4926 50.052H96.7326V47.336C100.765 47 103.453 44.704 103.453 41.568C103.453 38.768 100.765 36.416 96.7326 35.688V30.424C98.4686 30.62 99.6446 31.656 99.7006 33H102.865C102.809 29.948 100.345 27.736 96.7326 27.456V24.74H94.4926V27.456C90.7406 27.736 88.2206 29.976 88.2206 33.056C88.2206 35.8 90.7406 38.068 94.4926 38.74V44.34C92.5046 44.06 91.1606 42.856 91.1606 41.316H87.9966C87.9966 44.564 90.6006 46.972 94.4926 47.336V50.052ZM94.4926 35.352C92.7566 34.988 91.5806 34.064 91.5806 33.056C91.5806 31.684 92.7566 30.648 94.4926 30.452V35.352ZM96.7326 44.34V39.104C98.7486 39.524 100.093 40.504 100.093 41.568C100.093 42.912 98.7486 44.032 96.7326 44.34ZM110.495 47H114.247V31.152H119.791V27.792H104.951V31.152H110.495V47ZM124.379 47H128.551L131.267 34.652L133.955 47H138.155L143.559 27.792H139.695L136.139 42.128L133.087 27.792H129.419L126.367 42.128L122.839 27.792H118.947L124.379 47ZM145.795 47H158.815V43.64H149.547V38.824H157.807V35.464H149.547V31.152H158.815V27.792H145.795V47ZM161.217 47H164.969V39.748H169.757C173.733 39.748 176.393 37.34 176.393 33.728C176.393 30.172 173.733 27.792 169.757 27.792H161.217V47ZM164.969 36.388V31.152H169.757C171.493 31.152 172.641 32.188 172.641 33.728C172.641 35.324 171.493 36.388 169.757 36.388H164.969Z" fill="#0E0E18"></path><path fill-rule="evenodd" clip-rule="evenodd" d="M198.988 30.2746C199.355 29.9085 199.948 29.9085 200.314 30.2746L206.877 36.8371C207.243 37.2032 207.243 37.7968 206.877 38.1629L200.314 44.7254C199.948 45.0915 199.355 45.0915 198.988 44.7254C198.622 44.3593 198.622 43.7657 198.988 43.3996L203.951 38.4375H190.589C190.071 38.4375 189.651 38.0178 189.651 37.5C189.651 36.9822 190.071 36.5625 190.589 36.5625H203.951L198.988 31.6004C198.622 31.2343 198.622 30.6407 198.988 30.2746Z" fill="#0E0E18" stroke="#0E0E18" stroke-width="0.8" stroke-linecap="round" stroke-linejoin="round"></path><rect x="1.15137" y="0.5" width="228.5" height="71" rx="14.5" stroke="url(#paint1_radial_203_151)"></rect><rect x="1.15137" y="0.5" width="228.5" height="71" rx="14.5" stroke="url(#paint2_radial_203_151)"></rect><defs><linearGradient id="paint0_linear_203_151" x1="-606.618" y1="-161.677" x2="318.454" y2="80.25" gradientUnits="userSpaceOnUse"><stop stop-color="#0338D1"></stop><stop offset="0.38297" stop-color="#1CFCFC"></stop><stop offset="0.6239" stop-color="#36FCFC"></stop><stop offset="0.885417" stop-color="#0495E7"></stop></linearGradient><radialGradient id="paint1_radial_203_151" cx="0" cy="0" r="1" gradientUnits="userSpaceOnUse" gradientTransform="translate(-61.7995 9.08251) rotate(16.3693) scale(163.314 43.2281)"><stop stop-color="white"></stop><stop offset="1" stop-color="#B5FEFE" stop-opacity="0.06"></stop></radialGradient><radialGradient id="paint2_radial_203_151" cx="0" cy="0" r="1" gradientUnits="userSpaceOnUse" gradientTransform="translate(297.34 48.1867) rotate(173.952) scale(182.741 42.7782)"><stop stop-color="#B5FEFE"></stop><stop offset="1" stop-color="#1AEEF9" stop-opacity="0"></stop></radialGradient></defs></svg>