<svg xmlns="http://www.w3.org/2000/svg" width="67" height="68" viewBox="0 0 67 68" fill="none"><path fill-rule="evenodd" clip-rule="evenodd" d="M27.8498 9.7537C33.0677 8.57479 38.5268 9.11416 43.4131 11.2914C44.8512 11.9321 46.5365 11.2858 47.1773 9.84769C47.818 8.40959 47.1717 6.72433 45.7336 6.08355C39.7243 3.40596 33.0104 2.74263 26.5933 4.19249C20.1762 5.64234 14.3997 9.12771 10.1253 14.1288C5.85089 19.1298 3.30759 25.3786 2.87473 31.9432C2.44186 38.5078 4.14261 45.0365 7.72334 50.5555C11.3041 56.0745 16.5729 60.2882 22.7441 62.5681C28.9152 64.8481 35.658 65.0721 41.9669 63.2067C48.2758 61.3414 53.8126 57.4867 57.7518 52.2174C61.6909 46.9482 63.8212 40.5469 63.8249 33.968V33.9664V31.4219C63.8249 29.8475 62.5486 28.5712 60.9742 28.5712C59.3998 28.5712 58.1235 29.8475 58.1235 31.4219V33.9647C58.1205 39.3141 56.3883 44.5192 53.1853 48.8037C49.9824 53.0882 45.4802 56.2226 40.3504 57.7393C35.2205 59.256 29.7378 59.0739 24.7199 57.2201C19.702 55.3662 15.4178 51.94 12.5063 47.4524C9.5947 42.9647 8.21179 37.6562 8.56376 32.3184C8.91573 26.9806 10.9837 21.8995 14.4593 17.8331C17.935 13.7666 22.6319 10.9326 27.8498 9.7537ZM62.9906 13.8566C64.1033 12.7428 64.1024 10.9379 62.9886 9.82515C61.8748 8.71245 60.0698 8.71335 58.9571 9.82717L33.3154 35.4945L27.0349 29.214C25.9216 28.1008 24.1167 28.1008 23.0034 29.214C21.8901 30.3273 21.8901 32.1323 23.0034 33.2455L31.3006 41.5428C31.8354 42.0776 32.5608 42.3779 33.3171 42.3777C34.0734 42.3775 34.7986 42.0768 35.3331 41.5418L62.9906 13.8566Z" fill="url(#paint0_linear_223_15746)"></path><defs><linearGradient id="paint0_linear_223_15746" x1="33.3168" y1="-5.9878" x2="33.3168" y2="73.5713" gradientUnits="userSpaceOnUse"><stop stop-color="#0338D1"></stop><stop offset="0.354167" stop-color="#1CFCFC"></stop><stop offset="0.885417" stop-color="#0338D1"></stop></linearGradient></defs></svg>