<svg xmlns="http://www.w3.org/2000/svg" width="57" height="57" viewBox="0 0 57 57" fill="none"><g filter="url(#filter0_b_203_42394)"><circle cx="28.1035" cy="28.1035" r="28.1035" fill="url(#paint0_radial_203_42394)" fill-opacity="0.4"></circle><circle cx="28.1035" cy="28.1035" r="27.6035" stroke="url(#paint1_radial_203_42394)"></circle><circle cx="28.1035" cy="28.1035" r="27.6035" stroke="url(#paint2_radial_203_42394)"></circle></g><path d="M39.0995 18.0155C37.0772 17.0876 34.9085 16.4039 32.6411 16.0124C32.5998 16.0048 32.5586 16.0237 32.5373 16.0615C32.2584 16.5575 31.9494 17.2047 31.7331 17.7133C29.2943 17.3482 26.8681 17.3482 24.4793 17.7133C24.2629 17.1934 23.9427 16.5575 23.6626 16.0615C23.6413 16.025 23.6001 16.0061 23.5588 16.0124C21.2926 16.4027 19.1239 17.0863 17.1004 18.0155C17.0829 18.0231 17.0678 18.0357 17.0579 18.052C12.9444 24.1974 11.8176 30.1918 12.3704 36.1118C12.3729 36.1408 12.3891 36.1685 12.4117 36.1861C15.1256 38.1791 17.7545 39.3891 20.3346 40.1911C20.3759 40.2037 20.4196 40.1886 20.4459 40.1546C21.0562 39.3211 21.6003 38.4423 22.0667 37.5181C22.0943 37.464 22.068 37.3998 22.0117 37.3784C21.1488 37.0511 20.3271 36.6519 19.5367 36.1987C19.4741 36.1622 19.4691 36.0728 19.5266 36.0299C19.693 35.9053 19.8594 35.7756 20.0182 35.6447C20.0469 35.6208 20.087 35.6157 20.1207 35.6308C25.3135 38.0016 30.9352 38.0016 36.0666 35.6308C36.1004 35.6145 36.1405 35.6195 36.1704 35.6434C36.3293 35.7744 36.4956 35.9053 36.6632 36.0299C36.7207 36.0728 36.717 36.1622 36.6545 36.1987C35.864 36.6607 35.0423 37.0511 34.1781 37.3771C34.1219 37.3986 34.0969 37.464 34.1244 37.5181C34.6009 38.441 35.1449 39.3198 35.744 40.1533C35.769 40.1886 35.814 40.2037 35.8553 40.1911C38.4479 39.3891 41.0768 38.1791 43.7907 36.1861C43.8145 36.1685 43.8295 36.142 43.832 36.1131C44.4936 29.2689 42.7239 23.3237 39.1408 18.0533C39.132 18.0357 39.117 18.0231 39.0995 18.0155ZM22.8422 32.5071C21.2788 32.5071 19.9907 31.0719 19.9907 29.3092C19.9907 27.5465 21.2538 26.1112 22.8422 26.1112C24.443 26.1112 25.7187 27.5591 25.6937 29.3092C25.6937 31.0719 24.4305 32.5071 22.8422 32.5071ZM33.3852 32.5071C31.8219 32.5071 30.5337 31.0719 30.5337 29.3092C30.5337 27.5465 31.7969 26.1112 33.3852 26.1112C34.9861 26.1112 36.2617 27.5591 36.2368 29.3092C36.2368 31.0719 34.9861 32.5071 33.3852 32.5071Z" fill="white"></path><defs><filter id="filter0_b_203_42394" x="-5" y="-5" width="66.207" height="66.207" filterUnits="userSpaceOnUse" color-interpolation-filters="sRGB"><feGaussianBlur stdDeviation="2.5"></feGaussianBlur></filter><radialGradient id="paint0_radial_203_42394" cx="0" cy="0" r="1" gradientUnits="userSpaceOnUse" gradientTransform="translate(4.70174) rotate(48.0195) scale(84.0318 61.0386)"><stop stop-color="#5865F2" stop-opacity="0.36"></stop><stop offset="1" stop-color="#5865F2" stop-opacity="0"></stop></radialGradient><radialGradient id="paint1_radial_203_42394" cx="0" cy="0" r="1" gradientUnits="userSpaceOnUse" gradientTransform="translate(-29.9278 5.75011) rotate(35.1112) scale(64.8002 38.2795)"><stop stop-color="#5865F2"></stop><stop offset="1" stop-color="white" stop-opacity="0.06"></stop></radialGradient><radialGradient id="paint2_radial_203_42394" cx="0" cy="0" r="1" gradientUnits="userSpaceOnUse" gradientTransform="translate(72.6622 37.617) rotate(161.34) scale(46.9754 31.8165)"><stop stop-color="#5865F2"></stop><stop offset="1" stop-color="#5865F2" stop-opacity="0"></stop></radialGradient></defs></svg>