<svg xmlns="http://www.w3.org/2000/svg" width="52" height="52" viewBox="0 0 52 52" fill="none"><rect x="0.226562" y="0.210938" width="51.601" height="51.601" rx="15.4738" fill="white" fill-opacity="0.05"></rect><path d="M38.0904 14.7164C35.8713 13.6774 33.4917 12.9119 31.0037 12.4735C30.9584 12.4651 30.9131 12.4862 30.8898 12.5285C30.5838 13.0839 30.2448 13.8085 30.0074 14.378C27.3314 13.9692 24.6691 13.9692 22.0479 14.378C21.8105 13.7958 21.4592 13.0839 21.1518 12.5285C21.1284 12.4876 21.0832 12.4665 21.0379 12.4735C18.5512 12.9105 16.1716 13.676 13.9512 14.7164C13.932 14.7248 13.9155 14.739 13.9046 14.7573C9.39096 21.6381 8.1545 28.3498 8.76106 34.9784C8.76381 35.0108 8.78165 35.0418 8.80635 35.0615C11.7843 37.2931 14.6689 38.6479 17.5 39.5458C17.5453 39.5599 17.5933 39.543 17.6222 39.505C18.2919 38.5718 18.8888 37.5878 19.4007 36.553C19.4309 36.4924 19.402 36.4205 19.3403 36.3965C18.3934 36.03 17.4918 35.5831 16.6245 35.0756C16.5559 35.0348 16.5504 34.9346 16.6135 34.8867C16.796 34.7471 16.9786 34.6019 17.1528 34.4553C17.1844 34.4285 17.2283 34.4229 17.2654 34.4398C22.9632 37.0943 29.1318 37.0943 34.7625 34.4398C34.7995 34.4215 34.8435 34.4271 34.8764 34.4539C35.0507 34.6005 35.2332 34.7471 35.4171 34.8867C35.4802 34.9346 35.4761 35.0348 35.4075 35.0756C34.5402 35.593 33.6385 36.03 32.6903 36.3951C32.6285 36.4191 32.6011 36.4924 32.6313 36.553C33.1541 37.5863 33.7511 38.5703 34.4084 39.5035C34.4359 39.543 34.4853 39.5599 34.5306 39.5458C37.3754 38.6479 40.26 37.2931 43.2379 35.0615C43.264 35.0418 43.2805 35.0122 43.2833 34.9798C44.0092 27.3165 42.0673 20.6598 38.1356 14.7587C38.126 14.739 38.1096 14.7248 38.0904 14.7164ZM20.2516 30.9423C18.5361 30.9423 17.1226 29.3352 17.1226 27.3616C17.1226 25.388 18.5087 23.7809 20.2516 23.7809C22.0081 23.7809 23.4079 25.4021 23.3804 27.3616C23.3804 29.3352 21.9944 30.9423 20.2516 30.9423ZM31.8202 30.9423C30.1048 30.9423 28.6913 29.3352 28.6913 27.3616C28.6913 25.388 30.0774 23.7809 31.8202 23.7809C33.5768 23.7809 34.9766 25.4021 34.9491 27.3616C34.9491 29.3352 33.5768 30.9423 31.8202 30.9423Z" fill="white"></path></svg>