<svg xmlns="http://www.w3.org/2000/svg" width="52" height="52" viewBox="0 0 52 52" fill="none"><rect x="0.214844" y="0.210938" width="51.601" height="51.601" rx="15.4738" fill="white" fill-opacity="0.05"></rect><path d="M38.8905 14.502H13.1441C11.374 14.502 9.92578 15.9502 9.92578 17.7203L9.92578 34.3029C9.92578 36.0729 11.374 37.5212 13.1441 37.5212H38.8905C40.6606 37.5212 42.1088 36.0729 42.1088 34.3029V17.7203C42.1088 15.9502 40.6606 14.502 38.8905 14.502ZM38.2468 21.3408L27.723 27.9223C26.677 28.582 25.3575 28.582 24.3116 27.9223L13.7877 21.3408C13.6264 21.2503 13.4851 21.1279 13.3724 20.9811C13.2597 20.8344 13.178 20.6663 13.1321 20.487C13.0863 20.3077 13.0773 20.121 13.1057 19.9382C13.1341 19.7553 13.1993 19.5801 13.2974 19.4232C13.3955 19.2663 13.5244 19.1309 13.6763 19.0253C13.8282 18.9196 13.9999 18.8459 14.1812 18.8085C14.3624 18.7712 14.5493 18.771 14.7306 18.808C14.9119 18.8449 15.0839 18.9183 15.236 19.0237L26.0173 25.766L36.7986 19.0237C36.9507 18.9183 37.1226 18.8449 37.3039 18.808C37.4853 18.771 37.6722 18.7712 37.8534 18.8085C38.0346 18.8459 38.2064 18.9196 38.3583 19.0253C38.5102 19.1309 38.6391 19.2663 38.7372 19.4232C38.8352 19.5801 38.9005 19.7553 38.9289 19.9382C38.9573 20.121 38.9483 20.3077 38.9024 20.487C38.8566 20.6663 38.7749 20.8344 38.6622 20.9811C38.5495 21.1279 38.4082 21.2503 38.2468 21.3408Z" fill="white"></path></svg>