<svg xmlns="http://www.w3.org/2000/svg" width="264" height="83" viewBox="0 0 264 83" fill="none"><rect x="0.54576" y="0.54576" width="262.223" height="81.4307" rx="14.4542" fill="#0E0E18" fill-opacity="0.2"></rect><rect x="0.54576" y="0.54576" width="262.223" height="81.4307" rx="14.4542" fill="url(#paint0_radial_203_91)" fill-opacity="0.3"></rect><path fill-rule="evenodd" clip-rule="evenodd" d="M28.8056 19.5615C28.2949 20.104 28 20.9329 28 22.0179V60.4995C28 61.5845 28.2949 62.4134 28.8232 62.9342L28.9597 63.0514L50.8293 41.4909V41.0092L28.9421 19.4443L28.8056 19.5615Z" fill="url(#paint1_linear_203_91)"></path><path fill-rule="evenodd" clip-rule="evenodd" d="M58.1063 48.7012L50.812 41.51V41.0066L58.1063 33.8154L58.2648 33.9109L66.8929 38.7455C69.3625 40.1169 69.3625 42.3823 66.8929 43.7711L58.2648 48.6057L58.1063 48.7012Z" fill="url(#paint2_linear_203_91)"></path><path fill-rule="evenodd" clip-rule="evenodd" d="M58.2641 48.6062L50.8113 41.2588L28.8052 62.9538C29.6108 63.8044 30.9622 63.8999 32.4721 63.071L58.2641 48.6062Z" fill="url(#paint3_linear_203_91)"></path><path fill-rule="evenodd" clip-rule="evenodd" d="M58.2641 33.9093L32.4721 19.4662C30.9622 18.6156 29.6064 18.7327 28.8052 19.5834L50.8113 41.2567L58.2641 33.9093Z" fill="url(#paint4_linear_203_91)"></path><path opacity="0.2" fill-rule="evenodd" clip-rule="evenodd" d="M58.1063 48.4492L32.4904 62.7968C31.0598 63.6084 29.7831 63.552 28.96 62.8142L28.8235 62.9487L28.96 63.0659C29.7831 63.7993 31.0598 63.8601 32.4904 63.0485L58.2824 48.6055L58.1063 48.4492Z" fill="black"></path><path opacity="0.12" fill-rule="evenodd" clip-rule="evenodd" d="M66.8921 43.5199L58.0835 48.45L58.242 48.6062L66.8701 43.7716C68.1071 43.0772 68.7146 42.1658 68.7146 41.2588C68.6397 42.092 68.0102 42.8819 66.8921 43.5199Z" fill="black"></path><path opacity="0.25" fill-rule="evenodd" clip-rule="evenodd" d="M32.4725 19.7196L66.8926 38.9973C68.0107 39.6179 68.6402 40.4295 68.7371 41.2584C68.7371 40.3514 68.1296 39.44 66.8926 38.7456L32.4725 19.4679C30.003 18.0748 28 19.2379 28 22.0197V22.2715C28 19.4853 30.003 18.3439 32.4725 19.7196Z" fill="white"></path><path fill-rule="evenodd" clip-rule="evenodd" d="M133.487 36.4628C129.204 36.4628 125.733 39.6665 125.733 44.0855C125.733 48.4643 129.227 51.7083 133.487 51.7083C137.77 51.7083 141.242 48.4822 141.242 44.0855C141.242 39.6665 137.77 36.4628 133.487 36.4628ZM133.487 48.6878C131.144 48.6878 129.127 46.7754 129.127 44.0676C129.127 41.3197 131.149 39.4475 133.487 39.4475C135.831 39.4475 137.848 41.3197 137.848 44.0676C137.852 46.7932 135.831 48.6878 133.487 48.6878ZM116.569 36.4628C112.286 36.4628 108.814 39.6665 108.814 44.0855C108.814 48.4643 112.308 51.7083 116.569 51.7083C120.852 51.7083 124.323 48.4822 124.323 44.0855C124.323 39.6665 120.847 36.4628 116.569 36.4628ZM116.569 48.6878C114.225 48.6878 112.208 46.7754 112.208 44.0676C112.208 41.3197 114.23 39.4475 116.569 39.4475C118.912 39.4475 120.929 41.3197 120.929 44.0676C120.929 46.7932 118.912 48.6878 116.569 48.6878ZM96.4362 38.7907V42.0167H104.291C104.05 43.8264 103.443 45.1623 102.514 46.0783C101.363 47.2133 99.5861 48.4465 96.4543 48.4465C91.6274 48.4465 87.852 44.6038 87.852 39.8452C87.852 35.0866 91.6274 31.2439 96.4543 31.2439C99.0603 31.2439 100.959 32.2582 102.369 33.554L104.689 31.2663C102.731 29.4164 100.125 28 96.4724 28C89.8508 28 84.2942 33.3172 84.2942 39.8273C84.2942 46.3554 89.8462 51.6546 96.4724 51.6546C100.048 51.6546 102.731 50.5018 104.853 48.3303C107.014 46.199 107.699 43.1919 107.699 40.7656C107.699 40.0105 107.64 39.3314 107.518 38.755H96.4316C96.4362 38.7505 96.4362 38.7907 96.4362 38.7907ZM178.783 41.3018C178.135 39.5905 176.177 36.4449 172.161 36.4449C168.182 36.4449 164.873 39.5324 164.873 44.0676C164.873 48.3482 168.146 51.6904 172.547 51.6904C176.082 51.6904 178.139 49.5591 178.987 48.308L176.363 46.5743C175.493 47.8477 174.282 48.6833 172.565 48.6833C170.829 48.6833 169.614 47.9058 168.807 46.3732L179.146 42.1508L178.783 41.3018ZM168.241 43.8487C168.159 40.9042 170.561 39.4073 172.279 39.4073C173.634 39.4073 174.763 40.0641 175.148 41.0203L168.241 43.8487ZM159.843 51.2346H163.237V28.84H159.843V51.2346ZM154.268 38.1562H154.146C153.38 37.2581 151.925 36.4449 150.067 36.4449C146.21 36.4449 142.656 39.7916 142.656 44.09C142.656 48.3705 146.191 51.677 150.067 51.677C151.902 51.677 153.38 50.8593 154.146 49.9433H154.268V51.038C154.268 53.9468 152.691 55.5152 150.148 55.5152C148.068 55.5152 146.776 54.0407 146.25 52.8074L143.3 54.0228C144.147 56.0335 146.409 58.5223 150.144 58.5223C154.123 58.5223 157.495 56.2122 157.495 50.5778V36.9007H154.286V38.1562C154.291 38.1562 154.268 38.1562 154.268 38.1562ZM150.37 48.6878C148.027 48.6878 146.069 46.7575 146.069 44.09C146.069 41.4001 148.027 39.452 150.37 39.452C152.691 39.452 154.49 41.4225 154.49 44.09C154.513 46.7575 152.695 48.6878 150.37 48.6878ZM194.678 28.84H186.56V51.2346H189.955V42.754H194.682C198.439 42.754 202.133 40.0686 202.133 35.8059C202.133 31.5433 198.453 28.84 194.678 28.84ZM194.777 39.6263H189.951V31.941H194.777C197.32 31.941 198.757 34.0097 198.757 35.7836C198.757 37.5396 197.302 39.6263 194.777 39.6263ZM215.739 36.4226C213.274 36.4226 210.731 37.4994 209.68 39.8452L212.689 41.0784C213.337 39.8452 214.525 39.4252 215.78 39.4252C217.538 39.4252 219.315 40.4618 219.356 42.3116V42.5485C218.749 42.2089 217.416 41.6906 215.821 41.6906C212.571 41.6906 209.276 43.4421 209.276 46.7262C209.276 49.7333 211.941 51.6636 214.91 51.6636C217.19 51.6636 218.445 50.6493 219.229 49.4742H219.351V51.2078H222.624V42.6289C222.624 38.6343 219.614 36.4226 215.739 36.4226ZM215.313 48.6878C214.203 48.6878 212.648 48.1516 212.648 46.7754C212.648 45.0417 214.588 44.3849 216.242 44.3849C217.738 44.3849 218.445 44.7021 219.333 45.14C219.089 47.1507 217.366 48.6699 215.313 48.6878ZM234.562 36.9007L230.664 46.6145H230.542L226.503 36.9007H222.85L228.91 50.4795L225.456 58.0263H228.992L238.314 36.9007H234.562ZM204.005 51.2346H207.4V28.84H204.005V51.2346Z" fill="white"></path><rect x="0.54576" y="0.54576" width="262.223" height="81.4307" rx="14.4542" stroke="url(#paint5_radial_203_91)" stroke-width="1.09152"></rect><rect x="0.54576" y="0.54576" width="262.223" height="81.4307" rx="14.4542" stroke="url(#paint6_radial_203_91)" stroke-width="1.09152"></rect><rect x="0.54576" y="0.54576" width="262.223" height="81.4307" rx="14.4542" stroke="url(#paint7_radial_203_91)" stroke-opacity="0.8" stroke-width="1.09152"></rect><defs><radialGradient id="paint0_radial_203_91" cx="0" cy="0" r="1" gradientUnits="userSpaceOnUse" gradientTransform="translate(22.0264) rotate(19.2034) scale(278.829 126.525)"><stop stop-color="white" stop-opacity="0.36"></stop><stop offset="1" stop-color="white" stop-opacity="0"></stop></radialGradient><linearGradient id="paint1_linear_203_91" x1="48.8676" y1="21.6027" x2="13.9032" y2="31.0526" gradientUnits="userSpaceOnUse"><stop stop-color="#00A0FF"></stop><stop offset="0.00657" stop-color="#00A1FF"></stop><stop offset="0.2601" stop-color="#00BEFF"></stop><stop offset="0.5122" stop-color="#00D2FF"></stop><stop offset="0.7604" stop-color="#00DFFF"></stop><stop offset="1" stop-color="#00E3FF"></stop></linearGradient><linearGradient id="paint2_linear_203_91" x1="70.1135" y1="41.2584" x2="27.4001" y2="41.2584" gradientUnits="userSpaceOnUse"><stop stop-color="#FFE000"></stop><stop offset="0.4087" stop-color="#FFBD00"></stop><stop offset="0.7754" stop-color="#FFA500"></stop><stop offset="1" stop-color="#FF9C00"></stop></linearGradient><linearGradient id="paint3_linear_203_91" x1="54.2115" y1="45.2568" x2="26.6763" y2="92.2654" gradientUnits="userSpaceOnUse"><stop stop-color="#FF3A44"></stop><stop offset="1" stop-color="#C31162"></stop></linearGradient><linearGradient id="paint4_linear_203_91" x1="23.2638" y1="6.76206" x2="35.5482" y2="27.7566" gradientUnits="userSpaceOnUse"><stop stop-color="#32A071"></stop><stop offset="0.0685" stop-color="#2DA771"></stop><stop offset="0.4762" stop-color="#15CF74"></stop><stop offset="0.8009" stop-color="#06E775"></stop><stop offset="1" stop-color="#00F076"></stop></linearGradient><radialGradient id="paint5_radial_203_91" cx="0" cy="0" r="1" gradientUnits="userSpaceOnUse" gradientTransform="translate(-71.6523 10.4099) rotate(16.3532) scale(187.361 49.5496)"><stop stop-color="#B5FEFE"></stop><stop offset="1" stop-color="#B5FEFE" stop-opacity="0.06"></stop></radialGradient><radialGradient id="paint6_radial_203_91" cx="0" cy="0" r="1" gradientUnits="userSpaceOnUse" gradientTransform="translate(340.403 55.2288) rotate(173.958) scale(209.663 49.0305)"><stop stop-color="#B5FEFE"></stop><stop offset="1" stop-color="#1AEEF9" stop-opacity="0"></stop></radialGradient><radialGradient id="paint7_radial_203_91" cx="0" cy="0" r="1" gradientUnits="userSpaceOnUse" gradientTransform="translate(134.524 -18.8602) rotate(18.7525) scale(105.404 46.2637)"><stop></stop><stop offset="1" stop-color="white" stop-opacity="0"></stop></radialGradient></defs></svg>