<svg xmlns="http://www.w3.org/2000/svg" width="18" height="17" viewBox="0 0 18 17" fill="none"><path fill-rule="evenodd" clip-rule="evenodd" d="M0.726569 0.476535C0.871639 0.331487 1.0684 0.25 1.27355 0.25L5.91488 0.25C6.34211 0.25 6.68844 0.59628 6.68844 1.02344C6.68844 1.4506 6.34211 1.79688 5.91488 1.79688L3.14108 1.79688L6.46187 5.11716C6.76396 5.41921 6.76396 5.90892 6.46187 6.21096C6.15978 6.51301 5.66999 6.51301 5.3679 6.21096L2.04711 2.89068L2.04711 5.66406C2.04711 6.09122 1.70078 6.4375 1.27355 6.4375C0.846333 6.4375 0.5 6.09122 0.5 5.66406L0.5 1.02344C0.5 0.818309 0.581499 0.621582 0.726569 0.476535ZM10.8116 1.02344C10.8116 0.59628 11.1579 0.25 11.5851 0.25H16.2264C16.4316 0.25 16.6284 0.331487 16.7734 0.476535C16.9185 0.621583 17 0.818309 17 1.02344L17 5.66406C17 6.09122 16.6537 6.4375 16.2264 6.4375C15.7992 6.4375 15.4529 6.09122 15.4529 5.66406V2.89068L12.1321 6.21097C11.83 6.51301 11.3402 6.51301 11.0381 6.21097C10.736 5.90892 10.736 5.41921 11.0381 5.11716L14.3589 1.79688H11.5851C11.1579 1.79688 10.8116 1.4506 10.8116 1.02344ZM0.5 11.3359C0.5 10.9088 0.846333 10.5625 1.27355 10.5625C1.70078 10.5625 2.04711 10.9088 2.04711 11.3359L2.04711 14.1093L5.3679 10.789C5.66999 10.487 6.15978 10.487 6.46187 10.789C6.76396 11.0911 6.76396 11.5808 6.46187 11.8828L3.14108 15.2031H5.91489C6.34211 15.2031 6.68844 15.5494 6.68844 15.9766C6.68844 16.4037 6.34211 16.75 5.91489 16.75H1.27355C1.0684 16.75 0.871639 16.6685 0.726569 16.5235C0.5815 16.3784 0.5 16.1817 0.5 15.9766L0.5 11.3359ZM11.0381 10.789C11.3402 10.487 11.83 10.487 12.1321 10.789L15.4529 14.1093V11.3359C15.4529 10.9088 15.7992 10.5625 16.2264 10.5625C16.6537 10.5625 17 10.9088 17 11.3359V15.9766C17 16.4037 16.6537 16.75 16.2264 16.75H11.5851C11.1579 16.75 10.8116 16.4037 10.8116 15.9766C10.8116 15.5494 11.1579 15.2031 11.5851 15.2031H14.3589L11.0381 11.8828C10.736 11.5808 10.736 11.0911 11.0381 10.789Z" fill="white" stroke="white" stroke-width="0.5" stroke-linecap="round" stroke-linejoin="round"></path></svg>