<svg xmlns="http://www.w3.org/2000/svg" width="58" height="57" viewBox="0 0 58 57" fill="none"><rect x="0.716797" y="0.130859" width="56.3153" height="56.3153" rx="16.8946" fill="white" fill-opacity="0.05"></rect><path fill-rule="evenodd" clip-rule="evenodd" d="M19.1136 28.2888C19.1136 22.8984 23.4833 18.5286 28.8737 18.5286C34.2641 18.5286 38.6338 22.8984 38.6338 28.2888C38.6338 33.6791 34.2641 38.0488 28.8737 38.0488C23.4833 38.0488 19.1136 33.6791 19.1136 28.2888ZM28.8737 34.6242C25.3747 34.6242 22.5382 31.7878 22.5382 28.2888C22.5382 24.7897 25.3747 21.9532 28.8737 21.9532C32.3727 21.9532 35.2092 24.7897 35.2092 28.2888C35.2092 31.7878 32.3727 34.6242 28.8737 34.6242Z" fill="white"></path><path d="M39.0194 20.4238C40.2791 20.4238 41.3002 19.4027 41.3002 18.143C41.3002 16.8834 40.2791 15.8622 39.0194 15.8622C37.7598 15.8622 36.7387 16.8834 36.7387 18.143C36.7387 19.4027 37.7598 20.4238 39.0194 20.4238Z" fill="white"></path><path fill-rule="evenodd" clip-rule="evenodd" d="M28.8737 9.28223C23.7118 9.28223 23.0646 9.30411 21.0373 9.3966C19.0143 9.48887 17.6327 9.8102 16.4237 10.2801C15.1739 10.7657 14.1139 11.4156 13.0572 12.4723C12.0006 13.529 11.3507 14.5889 10.865 15.8388C10.3952 17.0477 10.0738 18.4294 9.98156 20.4524C9.88907 22.4796 9.86719 23.1269 9.86719 28.2888C9.86719 33.4506 9.88907 34.0978 9.98156 36.1251C10.0738 38.1481 10.3952 39.5298 10.865 40.7387C11.3507 41.9886 12.0006 43.0485 13.0572 44.1052C14.1139 45.1618 15.1739 45.8117 16.4237 46.2975C17.6327 46.7673 19.0143 47.0886 21.0373 47.1809C23.0646 47.2734 23.7118 47.2952 28.8737 47.2952C34.0356 47.2952 34.6828 47.2734 36.7101 47.1809C38.7331 47.0886 40.1147 46.7673 41.3237 46.2975C42.5735 45.8117 43.6335 45.1618 44.6902 44.1052C45.7468 43.0485 46.3967 41.9886 46.8824 40.7387C47.3522 39.5298 47.6736 38.1481 47.7658 36.1251C47.8583 34.0978 47.8802 33.4506 47.8802 28.2888C47.8802 23.1269 47.8583 22.4796 47.7658 20.4524C47.6736 18.4294 47.3522 17.0477 46.8824 15.8388C46.3967 14.5889 45.7468 13.529 44.6902 12.4723C43.6335 11.4156 42.5735 10.7657 41.3237 10.2801C40.1147 9.8102 38.7331 9.48887 36.7101 9.3966C34.6828 9.30411 34.0356 9.28223 28.8737 9.28223ZM28.8737 12.7068C33.9486 12.7068 34.5498 12.7262 36.554 12.8176C38.4071 12.9021 39.4135 13.2118 40.0832 13.4721C40.9704 13.8169 41.6035 14.2287 42.2686 14.8939C42.9337 15.5589 43.3456 16.1921 43.6904 17.0792C43.9507 17.749 44.2603 18.7554 44.3448 20.6085C44.4362 22.6126 44.4556 23.2138 44.4556 28.2888C44.4556 33.3637 44.4362 33.9648 44.3448 35.969C44.2603 37.8221 43.9507 38.8285 43.6904 39.4982C43.3456 40.3854 42.9337 41.0186 42.2686 41.6836C41.6035 42.3488 40.9704 42.7606 40.0832 43.1054C39.4135 43.3657 38.4071 43.6753 36.554 43.7598C34.5501 43.8513 33.949 43.8707 28.8737 43.8707C23.7984 43.8707 23.1974 43.8513 21.1934 43.7598C19.3403 43.6753 18.3339 43.3657 17.6642 43.1054C16.777 42.7606 16.1439 42.3488 15.4788 41.6836C14.8138 41.0186 14.4018 40.3854 14.057 39.4982C13.7967 38.8285 13.4871 37.8221 13.4026 35.969C13.3112 33.9648 13.2918 33.3637 13.2918 28.2888C13.2918 23.2138 13.3112 22.6126 13.4026 20.6085C13.4871 18.7554 13.7967 17.749 14.057 17.0792C14.4018 16.1921 14.8137 15.5589 15.4788 14.8939C16.1439 14.2287 16.777 13.8169 17.6642 13.4721C18.3339 13.2118 19.3403 12.9021 21.1934 12.8176C23.1976 12.7262 23.7988 12.7068 28.8737 12.7068Z" fill="white"></path></svg>