<svg xmlns="http://www.w3.org/2000/svg" width="217" height="72" viewBox="0 0 217 72" fill="none"><rect x="0.5" y="0.5" width="215.5" height="71" rx="14.5" fill="url(#paint0_linear_285_224)"></rect><path d="M38.7 47.392C42.928 47.392 45.728 44.312 45.728 39.664V27.792H41.976V39.664C41.976 42.296 40.66 44.032 38.7 44.032C36.936 44.032 35.536 42.94 35.172 41.316H31.616C32.12 44.956 34.948 47.392 38.7 47.392ZM55.3394 47.392C59.9034 47.392 62.9274 44.424 62.9274 40C62.9274 35.576 59.9034 32.608 55.3394 32.608C50.7754 32.608 47.7514 35.576 47.7514 40C47.7514 44.424 50.7754 47.392 55.3394 47.392ZM55.3394 44.424C52.7914 44.424 51.1114 42.66 51.1114 40C51.1114 37.34 52.7914 35.576 55.3394 35.576C57.8874 35.576 59.5674 37.34 59.5674 40C59.5674 42.66 57.8874 44.424 55.3394 44.424ZM64.9364 30.872H68.2964V27.792H64.9364V30.872ZM64.9364 47H68.2964V33H64.9364V47ZM70.87 47H74.23V38.684C74.23 36.808 75.602 35.576 77.646 35.576C79.69 35.576 81.062 36.808 81.062 38.684V47H84.422V38.292C84.422 34.876 81.874 32.608 78.038 32.608C76.666 32.608 75.154 33.168 74.23 34.036V33H70.87V47ZM96.8007 47H100.553V31.152H106.097V27.792H91.2567V31.152H96.8007V47ZM110.685 47H114.857L117.573 34.652L120.261 47H124.461L129.865 27.792H126.001L122.445 42.128L119.393 27.792H115.725L112.673 42.128L109.145 27.792H105.253L110.685 47ZM132.101 47H145.121V43.64H135.853V38.824H144.113V35.464H135.853V31.152H145.121V27.792H132.101V47ZM147.522 47H151.274V39.748H156.062C160.038 39.748 162.698 37.34 162.698 33.728C162.698 30.172 160.038 27.792 156.062 27.792H147.522V47ZM151.274 36.388V31.152H156.062C157.798 31.152 158.946 32.188 158.946 33.728C158.946 35.324 157.798 36.388 156.062 36.388H151.274Z" fill="#0E0E18"></path><path fill-rule="evenodd" clip-rule="evenodd" d="M185.337 30.2746C185.703 29.9085 186.297 29.9085 186.663 30.2746L193.225 36.8371C193.592 37.2032 193.592 37.7968 193.225 38.1629L186.663 44.7254C186.297 45.0915 185.703 45.0915 185.337 44.7254C184.971 44.3593 184.971 43.7657 185.337 43.3996L190.299 38.4375H176.937C176.42 38.4375 176 38.0178 176 37.5C176 36.9822 176.42 36.5625 176.937 36.5625H190.299L185.337 31.6004C184.971 31.2343 184.971 30.6407 185.337 30.2746Z" fill="#0E0E18" stroke="#0E0E18" stroke-width="0.8" stroke-linecap="round" stroke-linejoin="round"></path><rect x="0.5" y="0.5" width="215.5" height="71" rx="14.5" stroke="url(#paint1_radial_285_224)"></rect><rect x="0.5" y="0.5" width="215.5" height="71" rx="14.5" stroke="url(#paint2_radial_285_224)"></rect><defs><linearGradient id="paint0_linear_285_224" x1="-572.87" y1="-161.677" x2="305.994" y2="55.1463" gradientUnits="userSpaceOnUse"><stop stop-color="#0338D1"></stop><stop offset="0.38297" stop-color="#1CFCFC"></stop><stop offset="0.6239" stop-color="#36FCFC"></stop><stop offset="0.885417" stop-color="#0495E7"></stop></linearGradient><radialGradient id="paint1_radial_285_224" cx="0" cy="0" r="1" gradientUnits="userSpaceOnUse" gradientTransform="translate(-58.9133 9.08251) rotate(17.2951) scale(154.818 43.0173)"><stop stop-color="white"></stop><stop offset="1" stop-color="#B5FEFE" stop-opacity="0.06"></stop></radialGradient><radialGradient id="paint2_radial_285_224" cx="0" cy="0" r="1" gradientUnits="userSpaceOnUse" gradientTransform="translate(279.883 48.1867) rotate(173.592) scale(172.508 42.7489)"><stop stop-color="#B5FEFE"></stop><stop offset="1" stop-color="#1AEEF9" stop-opacity="0"></stop></radialGradient></defs></svg>