<svg xmlns="http://www.w3.org/2000/svg" width="38" height="39" viewBox="0 0 38 39" fill="none"><path fill-rule="evenodd" clip-rule="evenodd" d="M16.6687 19.3751C16.6687 18.5037 17.3479 17.7452 18.2615 17.7452C19.1786 17.7452 19.9164 18.5072 19.9178 19.4386C19.9591 26.4307 18.8145 31.901 17.8837 35.2785C17.6768 36.0282 17.0135 36.5133 16.2895 36.5133C14.8483 36.5133 14.5105 35.0528 14.7552 34.2978C16.1085 29.3871 16.7463 24.4728 16.6687 19.3751ZM11.0904 19.114C11.0283 15.2969 13.9175 11.9666 18.1995 11.9807C22.1298 12.0372 25.3706 15.2828 25.434 19.2939C25.4352 19.3641 25.4364 19.4332 25.4376 19.5011C25.4947 22.8461 25.5054 23.473 24.9479 26.8684C24.8962 27.2035 24.4218 28.4997 23.0517 28.2703C22.147 28.1116 21.5351 27.1753 21.6816 26.3216C22.1966 23.1579 22.1871 22.6532 22.1333 19.77C22.1304 19.6149 22.1273 19.4529 22.1243 19.2833C22.0981 17.1575 20.3143 15.4027 18.1512 15.3674C15.7102 15.3533 14.3726 17.2231 14.3994 19.1246C14.4512 22.6877 14.1236 26.32 13.4086 29.8563C13.219 30.7731 12.2867 31.3552 11.4524 31.17C10.5563 30.976 9.97886 30.0221 10.1685 29.1683C10.8318 25.8783 11.1421 22.4915 11.0904 19.114ZM8.23573 10.8236C8.82183 10.0968 9.85613 9.99101 10.5732 10.5837C11.2835 11.1764 11.3869 12.2347 10.7456 12.9685C9.51136 14.5913 8.84941 16.5669 8.81493 18.6695C8.86672 21.5468 8.63393 24.422 8.14271 27.2351C8.14409 27.5526 7.66142 28.8487 6.27408 28.6018C5.37762 28.4345 4.78297 27.4891 4.94673 26.6353C5.40348 24.0438 5.61034 21.3803 5.56724 18.7259C5.52449 15.8613 6.48087 13.0461 8.23573 10.8236ZM14.9587 6.53656C15.9861 6.28114 17.0548 6.15767 18.0547 6.18377C25.0879 6.28961 30.8455 12.0513 30.9623 19.0138C30.9835 20.399 31.0128 20.8452 31.0002 21.2902C30.9872 21.7516 30.929 22.2118 30.7701 23.7162C30.7011 24.3688 30.0978 25.284 28.9428 25.2063C28.0381 25.037 27.3831 24.2623 27.4865 23.3366C27.5436 22.3768 27.5851 21.8871 27.6137 21.5502C27.6685 20.9045 27.6756 20.8205 27.6529 19.0646C27.5633 13.9069 23.2723 9.64705 18.0753 9.56767C17.2686 9.56062 16.4894 9.65234 15.664 9.82591C14.7677 10.0376 13.9419 9.48159 13.7265 8.57353C13.5196 7.60196 14.0712 6.68472 14.9587 6.53656ZM33.5257 14.2778C34.4303 14.0753 35.3016 14.7209 35.4998 15.5746C35.9227 17.5428 35.9138 19.083 35.9049 20.6213L35.9046 20.6716C35.8956 21.6065 35.1371 22.3558 34.2324 22.3558C33.3188 22.3466 32.5862 21.5797 32.5948 20.6448C32.6034 18.943 32.5948 17.8141 32.2673 16.2971C32.0694 15.389 32.6913 14.4806 33.5257 14.2778ZM17.965 0.388244C23.8191 0.472912 29.3113 3.45958 32.6727 8.3541C33.2588 9.12317 33.0175 10.1674 32.3259 10.7089C31.5764 11.2469 30.5506 11.0614 30.0249 10.2944C27.2737 6.29031 22.769 3.78414 17.9857 3.77708C14.1016 3.72416 10.4815 5.19668 7.80132 7.93076C5.23971 10.5484 3.86961 14.0339 3.85962 17.7388L3.851 19.4054C3.88685 20.3226 3.09251 21.0543 2.25818 21.0543C2.24094 21.0543 2.2237 21.0543 2.20646 21.0472C1.29283 21.019 0.577445 20.2429 0.542969 19.3017L0.551588 17.7847C0.482635 13.1562 2.20439 8.80778 5.40175 5.53606C8.7115 2.14087 13.1562 0.326507 17.965 0.388244ZM27.7125 38.191C27.4704 38.1902 27.2311 38.1396 27.0094 38.0424C26.7888 37.9457 26.5904 37.8049 26.4262 37.6287L22.2374 33.1727C21.9169 32.8311 21.7446 32.3756 21.7595 31.9074C21.7744 31.4392 21.9747 30.996 22.3163 30.6755C22.6579 30.3549 23.1128 30.1832 23.5811 30.1981C24.0492 30.213 24.4923 30.4133 24.8129 30.7548L27.6981 33.8291L34.2756 26.6337C34.4224 26.4579 34.6021 26.3123 34.8048 26.205C35.0175 26.0925 35.2509 26.0246 35.4908 26.0056C35.7307 25.9865 35.9719 26.0167 36.1997 26.0943C36.4275 26.1719 36.637 26.2952 36.8154 26.4567C36.9937 26.6182 37.1372 26.8145 37.237 27.0335C37.3367 27.2524 37.3907 27.4895 37.3955 27.7301C37.4003 27.9707 37.3559 28.2097 37.265 28.4325C37.1777 28.6463 37.0493 28.8409 36.8873 29.0052L29.024 37.6083L29.0217 37.6109C28.859 37.7904 28.6612 37.9345 28.4405 38.0343C28.2187 38.1345 27.9786 38.1879 27.7352 38.1909L27.724 38.191L27.7125 38.191ZM28.3534 37.0033L36.2343 28.3809C36.3182 28.2986 36.3844 28.2 36.4288 28.0912C36.4732 27.9824 36.4949 27.8656 36.4925 27.7481C36.4921 27.725 36.4907 27.702 36.4884 27.679C36.4906 27.7016 36.492 27.7243 36.4925 27.7471C36.4948 27.8646 36.4731 27.9814 36.4287 28.0902C36.3843 28.199 36.3181 28.2976 36.2342 28.3799L28.3533 37.0023C28.2737 37.0905 28.1767 37.1614 28.0684 37.2103C27.96 37.2593 27.8428 37.2853 27.7239 37.2868H27.7153C27.5971 37.2864 27.4802 37.2617 27.3719 37.2143C27.2636 37.1668 27.1663 37.0976 27.0859 37.0109L22.8954 32.5531C22.7644 32.4136 22.6843 32.2353 22.6658 32.047C22.6841 32.2357 22.7643 32.4143 22.8955 32.5541L27.086 37.0119C27.1663 37.0986 27.2637 37.1678 27.372 37.2153C27.4803 37.2628 27.5972 37.2875 27.7154 37.2878H27.724C27.8429 37.2864 27.9601 37.2603 28.0685 37.2113C28.1768 37.1624 28.2738 37.0915 28.3534 37.0033Z" fill="white"></path></svg>