<svg xmlns="http://www.w3.org/2000/svg" width="58" height="57" viewBox="0 0 58 57" fill="none"><rect x="0.9375" y="0.129883" width="56.3153" height="56.3153" rx="16.8946" fill="white" fill-opacity="0.05"></rect><path fill-rule="evenodd" clip-rule="evenodd" d="M26.7937 28.3741C26.7937 27.5027 27.4729 26.7442 28.3865 26.7442C29.3036 26.7442 30.0414 27.5062 30.0428 28.4376C30.0841 35.4297 28.9395 40.9 28.0087 44.2776C27.8018 45.0272 27.1385 45.5123 26.4145 45.5123C24.9733 45.5123 24.6355 44.0518 24.8802 43.2968C26.2335 38.3861 26.8713 33.4718 26.7937 28.3741ZM21.2154 28.113C21.1533 24.2959 24.0425 20.9656 28.3245 20.9797C32.2548 21.0362 35.4956 24.2818 35.559 28.2929C35.5602 28.3632 35.5614 28.4322 35.5626 28.5001C35.6197 31.8451 35.6304 32.472 35.0729 35.8674C35.0212 36.2026 34.5468 37.4987 33.1767 37.2694C32.272 37.1106 31.6601 36.1743 31.8066 35.3206C32.3216 32.157 32.3121 31.6522 32.2583 28.769C32.2554 28.6139 32.2523 28.452 32.2493 28.2824C32.2231 26.1565 30.4393 24.4017 28.2762 24.3665C25.8352 24.3523 24.4976 26.2221 24.5244 28.1236C24.5762 31.6867 24.2486 35.319 23.5336 38.8553C23.344 39.7722 22.4117 40.3543 21.5774 40.169C20.6813 39.975 20.1039 39.0211 20.2935 38.1673C20.9568 34.8773 21.2671 31.4906 21.2154 28.113ZM18.3607 19.8226C18.9468 19.0959 19.9811 18.99 20.6982 19.5827C21.4085 20.1754 21.5119 21.2337 20.8706 21.9675C19.6364 23.5903 18.9744 25.5659 18.9399 27.6685C18.9917 30.5458 18.7589 33.421 18.2677 36.2341C18.2691 36.5516 17.7864 37.8477 16.3991 37.6008C15.5026 37.4336 14.908 36.4881 15.0717 35.6344C15.5285 33.0428 15.7353 30.3793 15.6922 27.725C15.6495 24.8604 16.6059 22.0451 18.3607 19.8226ZM25.0837 15.5356C26.1111 15.2802 27.1798 15.1567 28.1797 15.1828C35.2129 15.2886 40.9705 21.0503 41.0873 28.0128C41.1085 29.398 41.1378 29.8442 41.1252 30.2892C41.1122 30.7507 41.054 31.2108 40.8951 32.7152C40.8261 33.3679 40.2228 34.283 39.0678 34.2054C38.1631 34.036 37.5081 33.2613 37.6115 32.3356C37.6686 31.3759 37.7101 30.8861 37.7387 30.5493C37.7935 29.9035 37.8006 29.8196 37.7779 28.0636C37.6883 22.9059 33.3973 18.6461 28.2003 18.5667C27.3936 18.5596 26.6144 18.6514 25.789 18.8249C24.8927 19.0366 24.0669 18.4806 23.8515 17.5726C23.6446 16.601 24.1962 15.6837 25.0837 15.5356ZM43.6507 23.2768C44.5553 23.0743 45.4266 23.7199 45.6248 24.5736C46.0477 26.5419 46.0388 28.082 46.0299 29.6203L46.0296 29.6707C46.0206 30.6055 45.2621 31.3548 44.3574 31.3548C43.4438 31.3457 42.7112 30.5787 42.7198 29.6438C42.7284 27.942 42.7198 26.8131 42.3923 25.2961C42.1944 24.3881 42.8163 23.4797 43.6507 23.2768ZM28.09 9.38727C33.9441 9.47194 39.4363 12.4586 42.7977 17.3531C43.3838 18.1222 43.1425 19.1664 42.4509 19.7079C41.7014 20.2459 40.6756 20.0604 40.1499 19.2934C37.3987 15.2893 32.894 12.7832 28.1107 12.7761C24.2266 12.7232 20.6065 14.1957 17.9263 16.9298C15.3647 19.5474 13.9946 23.0329 13.9846 26.7379L13.976 28.4044C14.0119 29.3217 13.2175 30.0533 12.3832 30.0533C12.3659 30.0533 12.3487 30.0533 12.3315 30.0463C11.4178 30.018 10.7024 29.2419 10.668 28.3007L10.6766 26.7837C10.6076 22.1552 12.3294 17.8068 15.5268 14.5351C18.8365 11.1399 23.2812 9.32553 28.09 9.38727ZM37.8375 47.19C37.5954 47.1892 37.3561 47.1386 37.1344 47.0415C36.9138 46.9448 36.7154 46.804 36.5512 46.6277L32.3624 42.1717C32.0419 41.8301 31.8696 41.3746 31.8845 40.9064C31.8994 40.4382 32.0997 39.9951 32.4413 39.6745C32.7829 39.354 33.2378 39.1823 33.7061 39.1971C34.1742 39.212 34.6173 39.4123 34.9379 39.7539L37.8231 42.8281L44.4006 35.6327C44.5474 35.4569 44.7271 35.3113 44.9298 35.204C45.1425 35.0915 45.3759 35.0236 45.6158 35.0046C45.8557 34.9855 46.0969 35.0158 46.3247 35.0933C46.5525 35.1709 46.762 35.2943 46.9404 35.4558C47.1187 35.6173 47.2622 35.8135 47.362 36.0325C47.4617 36.2515 47.5157 36.4885 47.5205 36.7291C47.5253 36.9697 47.4809 37.2087 47.39 37.4315C47.3027 37.6453 47.1743 37.8399 47.0123 38.0042L39.149 46.6073L39.1467 46.6099C38.984 46.7894 38.7862 46.9335 38.5655 47.0333C38.3437 47.1336 38.1036 47.1869 37.8602 47.1899L37.849 47.1901L37.8375 47.19ZM38.4784 46.0023L46.3593 37.3799C46.4432 37.2976 46.5094 37.199 46.5538 37.0902C46.5982 36.9814 46.6199 36.8647 46.6175 36.7472C46.6171 36.724 46.6157 36.701 46.6134 36.6781C46.6156 36.7007 46.617 36.7234 46.6175 36.7462C46.6198 36.8637 46.5981 36.9804 46.5537 37.0892C46.5093 37.198 46.4431 37.2966 46.3592 37.3789L38.4783 46.0013C38.3987 46.0896 38.3017 46.1604 38.1934 46.2094C38.085 46.2583 37.9678 46.2844 37.8489 46.2858H37.8403C37.7221 46.2855 37.6052 46.2608 37.4969 46.2133C37.3886 46.1658 37.2913 46.0966 37.2109 46.0099L33.0204 41.5522C32.8894 41.4126 32.8093 41.2344 32.7908 41.046C32.8091 41.2347 32.8893 41.4134 33.0205 41.5532L37.211 46.0109C37.2913 46.0976 37.3887 46.1669 37.497 46.2143C37.6053 46.2618 37.7222 46.2865 37.8404 46.2869H37.849C37.9679 46.2854 38.0851 46.2593 38.1935 46.2104C38.3018 46.1614 38.3988 46.0906 38.4784 46.0023Z" fill="white"></path></svg>