<svg xmlns="http://www.w3.org/2000/svg" width="39" height="44" viewBox="0 0 39 44" fill="none"><path d="M31.967 23.3855C31.9151 17.8809 36.6888 15.2029 36.9071 15.0782C34.2036 11.3157 30.0132 10.8016 28.5407 10.7607C25.0212 10.4071 21.6074 12.7709 19.8146 12.7709C17.986 12.7709 15.2252 10.7948 12.2497 10.8529C8.42074 10.9092 4.83869 13.0253 2.87412 16.3113C-1.18029 23.0114 1.84352 32.8575 5.72794 38.2733C7.67105 40.9256 9.94158 43.8872 12.9135 43.783C15.821 43.6685 16.9071 42.0136 20.4158 42.0136C23.8922 42.0136 24.9121 43.783 27.9431 43.7164C31.0635 43.6685 33.028 41.052 34.9032 38.3757C37.1487 35.3357 38.0504 32.3417 38.0862 32.188C38.0129 32.1641 32.0261 29.9831 31.967 23.3855Z" fill="white"></path><path d="M26.2415 7.19846C27.8053 5.33172 28.8753 2.79207 28.5783 0.214844C26.3149 0.310486 23.4843 1.70926 21.8543 3.53501C20.4122 5.14385 19.124 7.78086 19.4568 10.2607C21.9993 10.4418 24.6097 9.03617 26.2415 7.19846Z" fill="white"></path></svg>