<svg xmlns="http://www.w3.org/2000/svg" width="120" height="46" viewBox="0 0 120 46" fill="none"><path d="M11.8775 20.4459L9.16124 17.7182L18.0064 8.83457L26.8573 17.7211L24.1411 20.4503L18.0064 14.2899L11.8775 20.4459ZM35.8681 27.4644L18.4241 44.9815C18.3696 45.0373 18.3044 45.0817 18.2326 45.112C18.1607 45.1423 18.0836 45.1579 18.0056 45.1579C17.9277 45.1579 17.8505 45.1423 17.7787 45.112C17.7068 45.0817 17.6417 45.0373 17.5871 44.9815L0.143143 27.4644C0.0514805 27.3723 0 27.2473 0 27.1171C0 26.9868 0.0514805 26.8618 0.143143 26.7697L4.6346 22.2682L0.465639 18.0818C0.409791 18.027 0.365415 17.9615 0.33512 17.8892C0.304824 17.8169 0.289221 17.7392 0.289221 17.6608C0.289221 17.5824 0.304824 17.5047 0.33512 17.4324C0.365415 17.3601 0.409791 17.2946 0.465639 17.2398L17.3511 0.277715C17.4372 0.189769 17.5399 0.119921 17.6531 0.0722398C17.7664 0.0245584 17.888 0 18.0108 0C18.1336 0 18.2551 0.0245584 18.3684 0.0722398C18.4817 0.119921 18.5843 0.189769 18.6704 0.277715L35.6262 17.3119C35.6718 17.3576 35.708 17.4119 35.7327 17.4716C35.7574 17.5313 35.7701 17.5954 35.7701 17.6601C35.7701 17.7247 35.7574 17.7888 35.7327 17.8485C35.708 17.9083 35.6718 17.9625 35.6262 18.0082L31.384 22.2682L35.8681 26.7711C35.9593 26.8633 36.0105 26.9879 36.0105 27.1178C36.0105 27.2477 35.9593 27.3723 35.8681 27.4644ZM7.34501 19.5391L8.44589 20.649L17.5856 29.8256C17.6402 29.8814 17.7054 29.9258 17.7772 29.9561C17.8491 29.9864 17.9262 30.002 18.0042 30.002C18.0821 30.002 18.1592 29.9864 18.2311 29.9561C18.303 29.9258 18.3681 29.8814 18.4227 29.8256L30.1189 18.0803C30.1748 18.0255 30.2191 17.96 30.2494 17.8877C30.2797 17.8154 30.2953 17.7378 30.2953 17.6593C30.2953 17.5809 30.2797 17.5032 30.2494 17.431C30.2191 17.3587 30.1748 17.2932 30.1189 17.2383L18.4227 5.49455C18.3681 5.4387 18.303 5.39433 18.2311 5.36404C18.1592 5.33375 18.0821 5.31815 18.0042 5.31815C17.9262 5.31815 17.8491 5.33375 17.7772 5.36404C17.7054 5.39433 17.6402 5.4387 17.5856 5.49455L5.8894 17.2383C5.83355 17.2932 5.78917 17.3587 5.75888 17.431C5.72858 17.5032 5.71298 17.5809 5.71298 17.6593C5.71298 17.7378 5.72858 17.8154 5.75888 17.8877C5.78917 17.96 5.83355 18.0255 5.8894 18.0803L7.34501 19.5391ZM30.3593 26.6961L28.675 24.9959L18.3611 35.353C18.3156 35.3988 18.2616 35.4351 18.2021 35.4599C18.1426 35.4847 18.0788 35.4975 18.0144 35.4975C17.95 35.4975 17.8862 35.4847 17.8267 35.4599C17.7673 35.4351 17.7132 35.3988 17.6677 35.353L7.35234 24.9959L5.65925 26.6961C5.6034 26.7509 5.55903 26.8164 5.52873 26.8887C5.49844 26.961 5.48283 27.0386 5.48283 27.1171C5.48283 27.1955 5.49844 27.2731 5.52873 27.3454C5.55903 27.4177 5.6034 27.4832 5.65925 27.538L17.6677 39.5968C17.7132 39.6426 17.7673 39.679 17.8267 39.7038C17.8862 39.7286 17.95 39.7413 18.0144 39.7413C18.0788 39.7413 18.1426 39.7286 18.2021 39.7038C18.2616 39.679 18.3156 39.6426 18.3611 39.5968L30.3608 27.538C30.4166 27.4832 30.461 27.4177 30.4913 27.3454C30.5216 27.2731 30.5372 27.1955 30.5372 27.1171C30.5372 27.0386 30.5216 26.961 30.4913 26.8887C30.461 26.8164 30.4166 26.7509 30.3608 26.6961H30.3593ZM13.6908 22.2682L16.4086 24.9959L18.0064 23.3899L19.61 25.0003L22.3278 22.2682L18.0064 17.9287L13.6908 22.2682Z" fill="url(#paint0_linear_572_272)"></path><g clip-path="url(#clip0_572_272)"><path d="M83.1507 19.2556V32.4354H78.902L70.7408 27.3058C70.6706 27.2616 70.5888 27.2381 70.5053 27.2381C70.4217 27.2381 70.3399 27.2616 70.2697 27.3058L62.2157 32.4354H57.967V19.2556C57.967 19.1601 58.0059 19.0684 58.0752 19.0008C58.1445 18.9333 58.2385 18.8953 58.3364 18.8953H62.2157V28.0842L67.1848 25.0608L70.3529 23.1186C70.4218 23.0765 70.5015 23.0543 70.5829 23.0543C70.6642 23.0543 70.7439 23.0765 70.8128 23.1186L78.9168 28.0968V18.9079H82.796C82.8892 18.9115 82.9776 18.9493 83.0434 19.0138C83.1092 19.0783 83.1475 19.1647 83.1507 19.2556ZM119.326 18.9746C119.326 20.4844 119.232 21.5444 119.045 22.1546C118.685 23.2897 118.118 24.0429 117.343 24.414C116.605 24.7618 115.387 24.9347 113.691 24.9347H107.511V31.8498C107.511 32.0043 107.448 32.1525 107.336 32.2619C107.224 32.3714 107.072 32.4331 106.914 32.4336H85.9419V18.8917H99.9146V21.8411H89.7547V24.3888H99.9146V26.922H89.7547V29.4841H102.685C102.844 29.4841 102.996 29.4229 103.108 29.3138C103.22 29.2047 103.284 29.0567 103.284 28.9022V16.9296C103.284 16.8529 103.268 16.777 103.238 16.7062C103.208 16.6354 103.164 16.571 103.109 16.5168C103.053 16.4626 102.987 16.4196 102.915 16.3903C102.842 16.3609 102.764 16.3458 102.685 16.3458H55.1979C55.0392 16.3458 54.887 16.4073 54.7747 16.5168C54.6625 16.6263 54.5994 16.7748 54.5994 16.9296V32.4354H50.3747V16.3548H43.0005V13.3513C43.0028 13.2589 43.0415 13.1708 43.1086 13.1054C43.1756 13.04 43.2659 13.0023 43.3607 13H112.518C113.002 13 113.42 13 113.771 13.009H113.789C114.461 12.9949 115.132 13.0184 115.801 13.0793C116.543 13.1602 117.248 13.443 117.833 13.8955C118.829 14.7267 119.327 16.4197 119.326 18.9746ZM115.799 18.9746C115.799 17.8467 115.59 17.1002 115.173 16.735C114.931 16.5362 114.634 16.4109 114.32 16.3747C114.025 16.3469 113.73 16.3367 113.435 16.344H107.511V21.6015H113.435C114.146 21.6015 114.659 21.5258 114.968 21.3727C115.276 21.2195 115.522 20.8754 115.681 20.3763C115.777 19.9171 115.817 19.4484 115.799 18.98V18.9746Z" fill="white"></path></g><defs><linearGradient id="paint0_linear_572_272" x1="18.0053" y1="-6.97924" x2="18.0053" y2="51.9021" gradientUnits="userSpaceOnUse"><stop stop-color="#0338D1"></stop><stop offset="0.354167" stop-color="#1CFCFC"></stop><stop offset="0.885417" stop-color="#0338D1"></stop></linearGradient><clipPath id="clip0_572_272"><rect width="76.3233" height="19.4372" fill="white" transform="translate(43 13)"></rect></clipPath></defs></svg>