<svg xmlns="http://www.w3.org/2000/svg" width="32" height="25" viewBox="0 0 32 25" fill="none"><path d="M27.0995 2.01553C25.0772 1.0876 22.9085 0.403943 20.6411 0.0123847C20.5998 0.00482777 20.5586 0.023713 20.5373 0.0614844C20.2584 0.55754 19.9494 1.20469 19.7331 1.71334C17.2943 1.34823 14.8681 1.34823 12.4793 1.71334C12.2629 1.19338 11.9427 0.55754 11.6626 0.0614844C11.6413 0.0249732 11.6001 0.00608801 11.5588 0.0123847C9.29258 0.402692 7.12395 1.08635 5.10038 2.01553C5.08286 2.02308 5.06784 2.03568 5.05788 2.05204C0.944432 8.19744 -0.182413 14.1918 0.37038 20.1118C0.372881 20.1408 0.389139 20.1685 0.411651 20.1861C3.12558 22.1791 5.75449 23.3891 8.33458 24.1911C8.37587 24.2037 8.41962 24.1886 8.4459 24.1546C9.05622 23.3211 9.60027 22.4423 10.0667 21.5181C10.0943 21.464 10.068 21.3998 10.0117 21.3784C9.14877 21.0511 8.32707 20.6519 7.53665 20.1987C7.47413 20.1622 7.46913 20.0728 7.52664 20.0299C7.69298 19.9053 7.85936 19.7756 8.01818 19.6447C8.04692 19.6208 8.08696 19.6157 8.12074 19.6308C13.3135 22.0016 18.9352 22.0016 24.0666 19.6308C24.1004 19.6145 24.1405 19.6195 24.1704 19.6434C24.3293 19.7744 24.4956 19.9053 24.6632 20.0299C24.7207 20.0728 24.717 20.1622 24.6545 20.1987C23.864 20.6607 23.0423 21.0511 22.1781 21.3771C22.1219 21.3986 22.0969 21.464 22.1244 21.5181C22.6009 22.441 23.1449 23.3198 23.744 24.1533C23.769 24.1886 23.814 24.2037 23.8553 24.1911C26.4479 23.3891 29.0768 22.1791 31.7907 20.1861C31.8145 20.1685 31.8295 20.142 31.832 20.1131C32.4936 13.2689 30.7239 7.32367 27.1408 2.05329C27.132 2.03568 27.117 2.02308 27.0995 2.01553ZM10.8422 16.5071C9.27882 16.5071 7.99065 15.0719 7.99065 13.3092C7.99065 11.5465 9.25384 10.1112 10.8422 10.1112C12.443 10.1112 13.7187 11.5591 13.6937 13.3092C13.6937 15.0719 12.4305 16.5071 10.8422 16.5071ZM21.3852 16.5071C19.8219 16.5071 18.5337 15.0719 18.5337 13.3092C18.5337 11.5465 19.7969 10.1112 21.3852 10.1112C22.9861 10.1112 24.2617 11.5591 24.2368 13.3092C24.2368 15.0719 22.9861 16.5071 21.3852 16.5071Z" fill="white"></path></svg>