<svg xmlns="http://www.w3.org/2000/svg" width="41" height="46" viewBox="0 0 41 46" fill="none"><path fill-rule="evenodd" clip-rule="evenodd" d="M0.805585 1.56151C0.29494 2.104 0 2.93291 0 4.01788V42.4995C0 43.5845 0.29494 44.4134 0.823193 44.9342L0.959658 45.0514L22.8293 23.4909V23.0092L0.94205 1.44434L0.805585 1.56151Z" fill="url(#paint0_linear_203_93)"></path><path fill-rule="evenodd" clip-rule="evenodd" d="M30.1063 30.7012L22.812 23.51V23.0066L30.1063 15.8154L30.2648 15.9109L38.8929 20.7455C41.3625 22.1169 41.3625 24.3823 38.8929 25.7711L30.2648 30.6057L30.1063 30.7012Z" fill="url(#paint1_linear_203_93)"></path><path fill-rule="evenodd" clip-rule="evenodd" d="M30.2641 30.6062L22.8113 23.2588L0.805176 44.9538C1.61076 45.8044 2.96221 45.8999 4.47213 45.071L30.2641 30.6062Z" fill="url(#paint2_linear_203_93)"></path><path fill-rule="evenodd" clip-rule="evenodd" d="M30.2641 15.9093L4.47213 1.46618C2.96221 0.615564 1.60636 0.732741 0.805176 1.58336L22.8113 23.2567L30.2641 15.9093Z" fill="url(#paint3_linear_203_93)"></path><path opacity="0.2" fill-rule="evenodd" clip-rule="evenodd" d="M30.1063 30.4492L4.49044 44.7968C3.05976 45.6084 1.78315 45.552 0.959952 44.8142L0.823486 44.9487L0.959952 45.0659C1.78315 45.7993 3.05976 45.8601 4.49044 45.0485L30.2824 30.6055L30.1063 30.4492Z" fill="black"></path><path opacity="0.12" fill-rule="evenodd" clip-rule="evenodd" d="M38.8921 25.5199L30.0835 30.45L30.242 30.6062L38.8701 25.7716C40.1071 25.0772 40.7146 24.1658 40.7146 23.2588C40.6397 24.092 40.0102 24.8819 38.8921 25.5199Z" fill="black"></path><path opacity="0.25" fill-rule="evenodd" clip-rule="evenodd" d="M4.47254 1.71961L38.8926 20.9973C40.0107 21.6179 40.6402 22.4295 40.7371 23.2584C40.7371 22.3514 40.1296 21.44 38.8926 20.7456L4.47254 1.4679C2.00296 0.0748013 0 1.23789 0 4.01974V4.27146C0 1.48526 2.00296 0.343874 4.47254 1.71961Z" fill="white"></path><defs><linearGradient id="paint0_linear_203_93" x1="20.8676" y1="3.6027" x2="-14.0968" y2="13.0526" gradientUnits="userSpaceOnUse"><stop stop-color="#00A0FF"></stop><stop offset="0.00657" stop-color="#00A1FF"></stop><stop offset="0.2601" stop-color="#00BEFF"></stop><stop offset="0.5122" stop-color="#00D2FF"></stop><stop offset="0.7604" stop-color="#00DFFF"></stop><stop offset="1" stop-color="#00E3FF"></stop></linearGradient><linearGradient id="paint1_linear_203_93" x1="42.1135" y1="23.2584" x2="-0.599925" y2="23.2584" gradientUnits="userSpaceOnUse"><stop stop-color="#FFE000"></stop><stop offset="0.4087" stop-color="#FFBD00"></stop><stop offset="0.7754" stop-color="#FFA500"></stop><stop offset="1" stop-color="#FF9C00"></stop></linearGradient><linearGradient id="paint2_linear_203_93" x1="26.2115" y1="27.2568" x2="-1.32365" y2="74.2654" gradientUnits="userSpaceOnUse"><stop stop-color="#FF3A44"></stop><stop offset="1" stop-color="#C31162"></stop></linearGradient><linearGradient id="paint3_linear_203_93" x1="-4.73621" y1="-11.2379" x2="7.5482" y2="9.75657" gradientUnits="userSpaceOnUse"><stop stop-color="#32A071"></stop><stop offset="0.0685" stop-color="#2DA771"></stop><stop offset="0.4762" stop-color="#15CF74"></stop><stop offset="0.8009" stop-color="#06E775"></stop><stop offset="1" stop-color="#00F076"></stop></linearGradient></defs></svg>