<svg xmlns="http://www.w3.org/2000/svg" width="23" height="16" viewBox="0 0 23 16" fill="none"><path d="M22.7368 14.1578C22.7368 14.7101 22.2891 15.1578 21.7368 15.1578H12.3684C11.8161 15.1578 11.3684 14.7101 11.3684 14.1578V13.6315C11.3684 13.0793 11.8161 12.6315 12.3684 12.6315H21.7368C22.2891 12.6315 22.7368 13.0793 22.7368 13.6315V14.1578ZM22.7368 7.84207C22.7368 8.39436 22.2891 8.84208 21.7368 8.84208H1C0.447716 8.84208 0 8.39436 0 7.84208V7.31577C0 6.76348 0.447715 6.31577 1 6.31577H21.7368C22.2891 6.31577 22.7368 6.76348 22.7368 7.31577V7.84207ZM22.7368 1.52631C22.7368 2.07859 22.2891 2.52631 21.7368 2.52631H1C0.447716 2.52631 0 2.07859 0 1.52631V1C0 0.447716 0.447715 0 1 0H21.7368C22.2891 0 22.7368 0.447715 22.7368 1V1.52631Z" fill="white"></path></svg>