<svg xmlns="http://www.w3.org/2000/svg" width="332" height="72" viewBox="0 0 332 72" fill="none"><rect x="0.5" y="0.5" width="331" height="71" rx="14.5" fill="url(#paint0_radial_223_15941)" fill-opacity="0.3"></rect><path d="M32.624 47H36.376V38.824H39.932L45 47H49.144L43.908 38.544C46.232 37.956 47.8 35.856 47.8 33.308C47.8 30.004 45.308 27.792 41.556 27.792H32.624V47ZM36.376 35.464V31.152H41.556C43.264 31.152 44.132 32.216 44.132 33.308C44.132 34.372 43.264 35.464 41.556 35.464H36.376ZM57.0621 47.392C60.4781 47.392 63.3901 45.32 64.3141 42.24H60.8981C60.2541 43.64 58.7141 44.592 57.0621 44.592C54.8781 44.592 53.1981 43.136 52.8901 40.924H64.3701L64.6501 40.644V40C64.6501 35.576 61.6261 32.608 57.0621 32.608C52.4981 32.608 49.4741 35.576 49.4741 40C49.4741 44.424 52.4981 47.392 57.0621 47.392ZM53.1141 38.124C53.7581 36.388 55.1861 35.408 57.0621 35.408C58.9381 35.408 60.3661 36.388 61.0101 38.124H53.1141ZM73.3791 47.392C75.0311 47.392 76.8511 46.636 77.9151 45.488V47H81.2751V33H77.9151V34.512C76.8511 33.364 75.0311 32.608 73.3791 32.608C69.0111 32.608 66.0991 35.576 66.0991 40C66.0991 44.424 69.0111 47.392 73.3791 47.392ZM73.7151 44.424C71.1671 44.424 69.4591 42.66 69.4591 40C69.4591 37.34 71.1671 35.576 73.7151 35.576C76.2351 35.576 77.9151 37.34 77.9151 40C77.9151 42.66 76.2351 44.424 73.7151 44.424ZM90.4169 47.392C92.1249 47.392 94.0009 46.608 95.0649 45.46V47H98.4249V27.792H95.0649V34.54C94.0009 33.392 92.1249 32.608 90.4169 32.608C85.9929 32.608 83.0249 35.576 83.0249 40C83.0249 44.424 85.9929 47.392 90.4169 47.392ZM90.7529 44.424C88.1209 44.424 86.3849 42.66 86.3849 40C86.3849 37.34 88.1209 35.576 90.7529 35.576C93.3289 35.576 95.0649 37.34 95.0649 40C95.0649 42.66 93.3289 44.424 90.7529 44.424ZM108.339 47H115.815C121.667 47 125.587 43.164 125.587 37.396C125.587 31.628 121.667 27.792 115.815 27.792H108.339V47ZM112.091 43.64V31.152H115.815C119.427 31.152 121.835 33.644 121.835 37.396C121.835 41.148 119.427 43.64 115.815 43.64H112.091ZM134.636 47.392C139.2 47.392 142.224 44.424 142.224 40C142.224 35.576 139.2 32.608 134.636 32.608C130.072 32.608 127.048 35.576 127.048 40C127.048 44.424 130.072 47.392 134.636 47.392ZM134.636 44.424C132.088 44.424 130.408 42.66 130.408 40C130.408 37.34 132.088 35.576 134.636 35.576C137.184 35.576 138.864 37.34 138.864 40C138.864 42.66 137.184 44.424 134.636 44.424ZM151.261 47.392C155.069 47.392 158.009 44.956 158.597 41.316H155.377C154.957 43.192 153.305 44.424 151.261 44.424C148.713 44.424 147.033 42.66 147.033 40C147.033 37.34 148.713 35.576 151.261 35.576C153.277 35.576 154.901 36.752 155.349 38.544H158.569C157.953 34.988 155.041 32.608 151.261 32.608C146.697 32.608 143.673 35.576 143.673 40C143.673 44.424 146.697 47.392 151.261 47.392ZM174.164 33H170.804V41.316C170.804 43.192 169.432 44.424 167.388 44.424C165.344 44.424 163.972 43.192 163.972 41.316V33H160.612V41.708C160.612 45.124 163.16 47.392 166.996 47.392C168.368 47.392 169.88 46.832 170.804 45.964V47H174.164V33ZM176.745 47H180.105V37.564C180.105 36.36 181.113 35.576 182.653 35.576C184.193 35.576 185.201 36.36 185.201 37.564V47H188.561V37.564C188.561 36.36 189.569 35.576 191.109 35.576C192.649 35.576 193.657 36.36 193.657 37.564V47H197.017V37.228C197.017 34.456 194.777 32.608 191.445 32.608C189.905 32.608 188.225 33.28 187.245 34.288C186.293 33.28 184.809 32.608 183.521 32.608C182.177 32.608 180.945 33.196 180.105 34.26V33H176.745V47ZM206.359 47.392C209.775 47.392 212.687 45.32 213.611 42.24H210.195C209.551 43.64 208.011 44.592 206.359 44.592C204.175 44.592 202.495 43.136 202.187 40.924H213.667L213.947 40.644V40C213.947 35.576 210.923 32.608 206.359 32.608C201.795 32.608 198.771 35.576 198.771 40C198.771 44.424 201.795 47.392 206.359 47.392ZM202.411 38.124C203.055 36.388 204.483 35.408 206.359 35.408C208.235 35.408 209.663 36.388 210.307 38.124H202.411ZM215.956 47H219.316V38.684C219.316 36.808 220.688 35.576 222.732 35.576C224.776 35.576 226.148 36.808 226.148 38.684V47H229.508V38.292C229.508 34.876 226.96 32.608 223.124 32.608C221.752 32.608 220.24 33.168 219.316 34.036V33H215.956V47ZM237.926 47.392C238.85 47.392 239.802 47.224 240.306 47V44.592H237.87C237.142 44.592 236.638 44.116 236.638 43.416V35.8H240.166V33H236.638V27.792H233.278V33H231.038V35.8H233.278V43.416C233.278 45.796 235.126 47.392 237.926 47.392ZM248.543 47.392C250.195 47.392 252.015 46.636 253.079 45.488V47H256.439V33H253.079V34.512C252.015 33.364 250.195 32.608 248.543 32.608C244.175 32.608 241.263 35.576 241.263 40C241.263 44.424 244.175 47.392 248.543 47.392ZM248.879 44.424C246.331 44.424 244.623 42.66 244.623 40C244.623 37.34 246.331 35.576 248.879 35.576C251.399 35.576 253.079 37.34 253.079 40C253.079 42.66 251.399 44.424 248.879 44.424ZM264.86 47.392C265.784 47.392 266.736 47.224 267.24 47V44.592H264.804C264.076 44.592 263.572 44.116 263.572 43.416V35.8H267.1V33H263.572V27.792H260.212V33H257.972V35.8H260.212V43.416C260.212 45.796 262.06 47.392 264.86 47.392ZM269.851 30.872H273.211V27.792H269.851V30.872ZM269.851 47H273.211V33H269.851V47ZM282.812 47.392C287.376 47.392 290.4 44.424 290.4 40C290.4 35.576 287.376 32.608 282.812 32.608C278.248 32.608 275.224 35.576 275.224 40C275.224 44.424 278.248 47.392 282.812 47.392ZM282.812 44.424C280.264 44.424 278.584 42.66 278.584 40C278.584 37.34 280.264 35.576 282.812 35.576C285.36 35.576 287.04 37.34 287.04 40C287.04 42.66 285.36 44.424 282.812 44.424ZM292.136 47H295.496V38.684C295.496 36.808 296.868 35.576 298.912 35.576C300.956 35.576 302.328 36.808 302.328 38.684V47H305.688V38.292C305.688 34.876 303.14 32.608 299.304 32.608C297.932 32.608 296.42 33.168 295.496 34.036V33H292.136V47Z" fill="white"></path><rect x="0.5" y="0.5" width="331" height="71" rx="14.5" stroke="url(#paint1_radial_223_15941)"></rect><rect x="0.5" y="0.5" width="331" height="71" rx="14.5" stroke="url(#paint2_radial_223_15941)"></rect><rect x="0.5" y="0.5" width="331" height="71" rx="14.5" stroke="url(#paint3_radial_223_15941)" stroke-opacity="0.8"></rect><defs><radialGradient id="paint0_radial_223_15941" cx="0" cy="0" r="1" gradientUnits="userSpaceOnUse" gradientTransform="translate(27.772) rotate(13.551) scale(341.507 113.642)"><stop stop-color="white" stop-opacity="0.36"></stop><stop offset="1" stop-color="white" stop-opacity="0"></stop></radialGradient><radialGradient id="paint1_radial_223_15941" cx="0" cy="0" r="1" gradientUnits="userSpaceOnUse" gradientTransform="translate(-90.3428 9.08251) rotate(11.4778) scale(231.303 44.1534)"><stop stop-color="#B5FEFE"></stop><stop offset="1" stop-color="#B5FEFE" stop-opacity="0.06"></stop></radialGradient><radialGradient id="paint2_radial_223_15941" cx="0" cy="0" r="1" gradientUnits="userSpaceOnUse" gradientTransform="translate(429.197 48.1867) rotate(175.811) scale(263.59 42.9027)"><stop stop-color="#B5FEFE"></stop><stop offset="1" stop-color="#1AEEF9" stop-opacity="0"></stop></radialGradient><radialGradient id="paint3_radial_223_15941" cx="0" cy="0" r="1" gradientUnits="userSpaceOnUse" gradientTransform="translate(169.615 -16.4554) rotate(13.2209) scale(129.27 41.4978)"><stop></stop><stop offset="1" stop-color="white" stop-opacity="0"></stop></radialGradient></defs></svg>