<svg xmlns="http://www.w3.org/2000/svg" width="39" height="39" viewBox="0 0 39 39" fill="none"><path fill-rule="evenodd" clip-rule="evenodd" d="M10.1136 19.2888C10.1136 13.8984 14.4833 9.52864 19.8737 9.52864C25.2641 9.52864 29.6338 13.8984 29.6338 19.2888C29.6338 24.6791 25.2641 29.0488 19.8737 29.0488C14.4833 29.0488 10.1136 24.6791 10.1136 19.2888ZM19.8737 25.6242C16.3747 25.6242 13.5382 22.7878 13.5382 19.2888C13.5382 15.7897 16.3747 12.9532 19.8737 12.9532C23.3727 12.9532 26.2092 15.7897 26.2092 19.2888C26.2092 22.7878 23.3727 25.6242 19.8737 25.6242Z" fill="white"></path><path d="M30.0194 11.4238C31.2791 11.4238 32.3002 10.4027 32.3002 9.14304C32.3002 7.88338 31.2791 6.86222 30.0194 6.86222C28.7598 6.86222 27.7387 7.88338 27.7387 9.14304C27.7387 10.4027 28.7598 11.4238 30.0194 11.4238Z" fill="white"></path><path fill-rule="evenodd" clip-rule="evenodd" d="M19.8737 0.282227C14.7118 0.282227 14.0646 0.304106 12.0373 0.396603C10.0143 0.488874 8.63267 0.810201 7.42371 1.28008C6.17387 1.76573 5.11392 2.41563 4.05721 3.47225C3.00059 4.52896 2.35069 5.5889 1.86504 6.83875C1.39516 8.0477 1.07384 9.42936 0.981564 11.4524C0.889067 13.4796 0.867188 14.1269 0.867188 19.2888C0.867188 24.4506 0.889067 25.0978 0.981564 27.1251C1.07384 29.1481 1.39516 30.5298 1.86504 31.7387C2.35069 32.9886 3.00059 34.0485 4.05721 35.1052C5.11392 36.1618 6.17387 36.8117 7.42371 37.2975C8.63267 37.7673 10.0143 38.0886 12.0373 38.1809C14.0646 38.2734 14.7118 38.2952 19.8737 38.2952C25.0356 38.2952 25.6828 38.2734 27.7101 38.1809C29.7331 38.0886 31.1147 37.7673 32.3237 37.2975C33.5735 36.8117 34.6335 36.1618 35.6902 35.1052C36.7468 34.0485 37.3967 32.9886 37.8824 31.7387C38.3522 30.5298 38.6736 29.1481 38.7658 27.1251C38.8583 25.0978 38.8802 24.4506 38.8802 19.2888C38.8802 14.1269 38.8583 13.4796 38.7658 11.4524C38.6736 9.42936 38.3522 8.0477 37.8824 6.83875C37.3967 5.5889 36.7468 4.52896 35.6902 3.47225C34.6335 2.41563 33.5735 1.76573 32.3237 1.28008C31.1147 0.810201 29.7331 0.488874 27.7101 0.396603C25.6828 0.304106 25.0356 0.282227 19.8737 0.282227ZM19.8737 3.70682C24.9486 3.70682 25.5498 3.72621 27.554 3.81765C29.4071 3.90215 30.4135 4.21178 31.0832 4.47207C31.9704 4.81686 32.6035 5.22872 33.2686 5.89386C33.9337 6.55892 34.3456 7.19207 34.6904 8.07924C34.9507 8.74898 35.2603 9.75536 35.3448 11.6085C35.4362 13.6126 35.4556 14.2138 35.4556 19.2888C35.4556 24.3637 35.4362 24.9648 35.3448 26.969C35.2603 28.8221 34.9507 29.8285 34.6904 30.4982C34.3456 31.3854 33.9337 32.0186 33.2686 32.6836C32.6035 33.3488 31.9704 33.7606 31.0832 34.1054C30.4135 34.3657 29.4071 34.6753 27.554 34.7598C25.5501 34.8513 24.949 34.8707 19.8737 34.8707C14.7984 34.8707 14.1974 34.8513 12.1934 34.7598C10.3403 34.6753 9.33394 34.3657 8.66421 34.1054C7.77703 33.7606 7.14388 33.3488 6.47882 32.6836C5.81376 32.0186 5.40183 31.3854 5.05704 30.4982C4.79675 29.8285 4.48711 28.8221 4.40261 26.969C4.31117 24.9648 4.29178 24.3637 4.29178 19.2888C4.29178 14.2138 4.31117 13.6126 4.40261 11.6085C4.48711 9.75536 4.79675 8.74898 5.05704 8.07924C5.40183 7.19207 5.81369 6.55892 6.47882 5.89386C7.14388 5.22872 7.77703 4.81686 8.66421 4.47207C9.33394 4.21178 10.3403 3.90215 12.1934 3.81765C14.1976 3.72621 14.7988 3.70682 19.8737 3.70682Z" fill="white"></path></svg>