<svg xmlns="http://www.w3.org/2000/svg" width="39" height="39" viewBox="0 0 39 39" fill="none"><path fill-rule="evenodd" clip-rule="evenodd" d="M38.7863 19.2886C38.7863 29.7856 30.2768 38.2951 19.7799 38.2951C9.2829 38.2951 0.773438 29.7856 0.773438 19.2886C0.773438 8.79169 9.2829 0.282227 19.7799 0.282227C30.2768 0.282227 38.7863 8.79169 38.7863 19.2886ZM20.4609 14.3136C18.6123 15.0825 14.9176 16.674 9.37682 19.088C8.47709 19.4458 8.00577 19.7958 7.96287 20.1381C7.89036 20.7165 8.6147 20.9443 9.60107 21.2544C9.73524 21.2966 9.87426 21.3403 10.0168 21.3867C10.9872 21.7021 12.2926 22.0712 12.9712 22.0858C13.5868 22.0991 14.2739 21.8453 15.0324 21.3245C20.2093 17.8299 22.8817 16.0636 23.0494 16.0255C23.1678 15.9987 23.3318 15.9649 23.443 16.0637C23.5541 16.1624 23.5432 16.3495 23.5314 16.3997C23.4596 16.7056 20.6164 19.349 19.1449 20.7169C18.6862 21.1434 18.3608 21.4459 18.2943 21.515C18.1453 21.6698 17.9934 21.8162 17.8475 21.9569C16.9459 22.826 16.2699 23.4777 17.8849 24.542C18.661 25.0535 19.2821 25.4764 19.9016 25.8983C20.5783 26.3592 21.2533 26.8188 22.1265 27.3912C22.349 27.537 22.5615 27.6885 22.7684 27.8361C23.5559 28.3975 24.2634 28.9018 25.1374 28.8214C25.6453 28.7747 26.1699 28.2971 26.4363 26.8728C27.066 23.5067 28.3036 16.2135 28.5897 13.2081C28.6147 12.9448 28.5832 12.6078 28.5579 12.4599C28.5326 12.312 28.4797 12.1012 28.2874 11.9452C28.0597 11.7604 27.7081 11.7215 27.5509 11.7242C26.836 11.7368 25.7392 12.1182 20.4609 14.3136Z" fill="white"></path></svg>