<svg xmlns="http://www.w3.org/2000/svg" width="52" height="52" viewBox="0 0 52 52" fill="none"><rect x="0.257812" y="0.210938" width="51.601" height="51.601" rx="15.4738" fill="white" fill-opacity="0.05"></rect><path fill-rule="evenodd" clip-rule="evenodd" d="M43.4644 26.0115C43.4644 35.6257 35.6706 43.4195 26.0564 43.4195C16.4423 43.4195 8.64844 35.6257 8.64844 26.0115C8.64844 16.3973 16.4423 8.60352 26.0564 8.60352C35.6706 8.60352 43.4644 16.3973 43.4644 26.0115ZM26.6802 21.4549C24.9871 22.1591 21.6031 23.6167 16.5283 25.8277C15.7042 26.1555 15.2725 26.476 15.2332 26.7895C15.1668 27.3193 15.8303 27.5279 16.7337 27.812C16.8566 27.8506 16.9839 27.8907 17.1144 27.9331C18.0032 28.222 19.1989 28.56 19.8204 28.5734C20.3842 28.5856 21.0135 28.3532 21.7082 27.8761C26.4498 24.6755 28.8974 23.0577 29.051 23.0228C29.1594 22.9982 29.3097 22.9673 29.4115 23.0577C29.5132 23.1482 29.5032 23.3195 29.4925 23.3655C29.4267 23.6457 26.8226 26.0667 25.4749 27.3197C25.0547 27.7103 24.7567 27.9874 24.6958 28.0506C24.5593 28.1924 24.4202 28.3265 24.2866 28.4553C23.4608 29.2513 22.8416 29.8483 24.3209 30.8231C25.0317 31.2915 25.6005 31.6789 26.168 32.0653C26.7878 32.4874 27.4059 32.9084 28.2057 33.4326C28.4095 33.5662 28.6041 33.705 28.7937 33.8401C29.5149 34.3543 30.1629 34.8162 30.9634 34.7426C31.4286 34.6997 31.9091 34.2623 32.1531 32.9578C32.7298 29.8748 33.8634 23.195 34.1253 20.4424C34.1483 20.2012 34.1194 19.8926 34.0962 19.7571C34.073 19.6216 34.0246 19.4285 33.8485 19.2856C33.6399 19.1164 33.3179 19.0807 33.1739 19.0832C32.5192 19.0948 31.5146 19.4441 26.6802 21.4549Z" fill="white"></path></svg>