<svg xmlns="http://www.w3.org/2000/svg" width="57" height="57" viewBox="0 0 57 57" fill="none"><rect x="0.623047" y="0.130859" width="56.3153" height="56.3153" rx="16.8946" fill="white" fill-opacity="0.05"></rect><path fill-rule="evenodd" clip-rule="evenodd" d="M47.7863 28.2886C47.7863 38.7856 39.2768 47.2951 28.7799 47.2951C18.2829 47.2951 9.77344 38.7856 9.77344 28.2886C9.77344 17.7917 18.2829 9.28223 28.7799 9.28223C39.2768 9.28223 47.7863 17.7917 47.7863 28.2886ZM29.4609 23.3136C27.6123 24.0825 23.9176 25.674 18.3768 28.088C17.4771 28.4458 17.0058 28.7958 16.9629 29.1381C16.8904 29.7165 17.6147 29.9443 18.6011 30.2544C18.7352 30.2966 18.8743 30.3403 19.0168 30.3867C19.9872 30.7021 21.2926 31.0712 21.9712 31.0858C22.5868 31.0991 23.2739 30.8453 24.0324 30.3245C29.2093 26.8299 31.8817 25.0636 32.0494 25.0255C32.1678 24.9987 32.3318 24.9649 32.443 25.0637C32.5541 25.1624 32.5432 25.3495 32.5314 25.3997C32.4596 25.7056 29.6164 28.349 28.1449 29.7169C27.6862 30.1434 27.3608 30.4459 27.2943 30.515C27.1453 30.6698 26.9934 30.8162 26.8475 30.9569C25.9459 31.826 25.2699 32.4777 26.8849 33.542C27.661 34.0535 28.2821 34.4764 28.9016 34.8983C29.5783 35.3592 30.2533 35.8188 31.1265 36.3912C31.349 36.537 31.5615 36.6885 31.7684 36.8361C32.5559 37.3975 33.2634 37.9018 34.1374 37.8214C34.6453 37.7747 35.1699 37.2971 35.4363 35.8728C36.066 32.5067 37.3036 25.2135 37.5897 22.2081C37.6147 21.9448 37.5832 21.6078 37.5579 21.4599C37.5326 21.312 37.4797 21.1012 37.2874 20.9452C37.0597 20.7604 36.7081 20.7215 36.5509 20.7242C35.836 20.7368 34.7392 21.1182 29.4609 23.3136Z" fill="white"></path></svg>