<svg xmlns="http://www.w3.org/2000/svg" width="224" height="280" viewBox="0 0 224 280" fill="none"><path d="M74.2866 126.677L57.5258 109.846L112.105 55.0296L166.72 109.864L149.959 126.705L112.105 88.6917L74.2866 126.677ZM222.321 169.986L114.683 278.075C114.346 278.42 113.944 278.694 113.501 278.881C113.057 279.067 112.581 279.164 112.1 279.164C111.619 279.164 111.143 279.067 110.7 278.881C110.257 278.694 109.855 278.42 109.518 278.075L1.87936 169.986C1.31376 169.417 0.996094 168.646 0.996094 167.842C0.996094 167.038 1.31376 166.267 1.87936 165.699L29.594 137.922L3.86933 112.09C3.52472 111.752 3.2509 111.347 3.06396 110.901C2.87702 110.455 2.78074 109.976 2.78074 109.492C2.78074 109.008 2.87702 108.529 3.06396 108.083C3.2509 107.637 3.52472 107.233 3.86933 106.894L108.062 2.22927C108.593 1.6866 109.226 1.2556 109.925 0.961383C110.624 0.667163 111.374 0.515625 112.132 0.515625C112.89 0.515625 113.64 0.667163 114.339 0.961383C115.038 1.2556 115.671 1.6866 116.202 2.22927L220.829 107.339C221.11 107.621 221.334 107.956 221.486 108.325C221.638 108.693 221.717 109.088 221.717 109.488C221.717 109.887 221.638 110.282 221.486 110.65C221.334 111.019 221.11 111.354 220.829 111.636L194.652 137.922L222.321 165.708C222.884 166.276 223.2 167.045 223.2 167.847C223.2 168.648 222.884 169.417 222.321 169.986ZM46.3187 121.082L53.1117 127.931L109.509 184.555C109.846 184.9 110.248 185.174 110.691 185.361C111.134 185.547 111.61 185.644 112.091 185.644C112.572 185.644 113.048 185.547 113.492 185.361C113.935 185.174 114.337 184.9 114.674 184.555L186.846 112.081C187.19 111.742 187.464 111.338 187.651 110.892C187.838 110.446 187.934 109.967 187.934 109.483C187.934 108.999 187.838 108.52 187.651 108.074C187.464 107.628 187.19 107.224 186.846 106.885L114.674 34.4199C114.337 34.0753 113.935 33.8015 113.492 33.6146C113.048 33.4277 112.572 33.3314 112.091 33.3314C111.61 33.3314 111.134 33.4277 110.691 33.6146C110.248 33.8015 109.846 34.0753 109.509 34.4199L37.3368 106.885C36.9922 107.224 36.7183 107.628 36.5314 108.074C36.3445 108.52 36.2482 108.999 36.2482 109.483C36.2482 109.967 36.3445 110.446 36.5314 110.892C36.7183 111.338 36.9922 111.742 37.3368 112.081L46.3187 121.082ZM188.329 165.244L177.936 154.753L114.294 218.662C114.013 218.945 113.68 219.169 113.313 219.322C112.946 219.475 112.552 219.554 112.155 219.554C111.757 219.554 111.364 219.475 110.997 219.322C110.629 219.169 110.296 218.945 110.015 218.662L46.3639 154.753L35.9167 165.244C35.5721 165.583 35.2982 165.987 35.1113 166.433C34.9244 166.879 34.8281 167.358 34.8281 167.842C34.8281 168.326 34.9244 168.805 35.1113 169.251C35.2982 169.698 35.5721 170.102 35.9167 170.44L110.015 244.849C110.296 245.132 110.629 245.356 110.997 245.509C111.364 245.662 111.757 245.741 112.155 245.741C112.552 245.741 112.946 245.662 113.313 245.509C113.68 245.356 114.013 245.132 114.294 244.849L188.338 170.44C188.683 170.102 188.957 169.698 189.144 169.251C189.331 168.805 189.427 168.326 189.427 167.842C189.427 167.358 189.331 166.879 189.144 166.433C188.957 165.987 188.683 165.583 188.338 165.244H188.329ZM85.4757 137.922L102.246 154.753L112.105 144.844L122 154.781L138.77 137.922L112.105 111.145L85.4757 137.922Z" fill="url(#paint0_linear_285_328)"></path><defs><linearGradient id="paint0_linear_285_328" x1="112.098" y1="-42.55" x2="112.098" y2="320.779" gradientUnits="userSpaceOnUse"><stop stop-color="#0338D1"></stop><stop offset="0.354167" stop-color="#1CFCFC"></stop><stop offset="0.885417" stop-color="#0338D1"></stop></linearGradient></defs></svg>