<svg xmlns="http://www.w3.org/2000/svg" width="44" height="56" viewBox="0 0 44 56" fill="none"><path d="M14.4662 25.402L11.1579 22.0799L21.9308 11.26L32.7109 22.0835L29.4026 25.4074L21.9308 17.9043L14.4662 25.402ZM43.6855 33.9503L22.4397 55.2851C22.3732 55.3532 22.2939 55.4072 22.2063 55.4441C22.1188 55.481 22.0249 55.5 21.9299 55.5C21.835 55.5 21.7411 55.481 21.6535 55.4441C21.566 55.4072 21.4867 55.3532 21.4202 55.2851L0.174341 33.9503C0.0627006 33.838 0 33.6858 0 33.5272C0 33.3685 0.0627006 33.2164 0.174341 33.1041L5.64471 27.6216L0.567124 22.5227C0.499105 22.4559 0.445057 22.3762 0.408159 22.2881C0.37126 22.2 0.352257 22.1055 0.352257 22.01C0.352257 21.9144 0.37126 21.8199 0.408159 21.7318C0.445057 21.6437 0.499105 21.564 0.567124 21.4972L21.1328 0.838243C21.2376 0.731129 21.3627 0.646058 21.5006 0.587984C21.6385 0.529911 21.7866 0.5 21.9362 0.5C22.0858 0.5 22.2338 0.529911 22.3718 0.587984C22.5097 0.646058 22.6347 0.731129 22.7396 0.838243L43.3909 21.585C43.4465 21.6407 43.4906 21.7068 43.5206 21.7795C43.5507 21.8523 43.5662 21.9303 43.5662 22.0091C43.5662 22.0878 43.5507 22.1658 43.5206 22.2386C43.4906 22.3113 43.4465 22.3774 43.3909 22.4331L38.2241 27.6216L43.6855 33.1059C43.7966 33.2181 43.859 33.3699 43.859 33.5281C43.859 33.6863 43.7966 33.8381 43.6855 33.9503ZM8.94585 24.2976L10.2867 25.6494L21.4184 36.826C21.4849 36.8941 21.5642 36.9481 21.6517 36.985C21.7393 37.0219 21.8332 37.0409 21.9281 37.0409C22.0231 37.0409 22.117 37.0219 22.2046 36.985C22.2921 36.9481 22.3714 36.8941 22.4379 36.826L36.6833 22.5209C36.7513 22.4541 36.8054 22.3744 36.8423 22.2863C36.8792 22.1983 36.8982 22.1037 36.8982 22.0082C36.8982 21.9126 36.8792 21.8181 36.8423 21.73C36.8054 21.642 36.7513 21.5622 36.6833 21.4954L22.4379 7.19208C22.3714 7.12405 22.2921 7.07002 22.2046 7.03313C22.117 6.99624 22.0231 6.97723 21.9281 6.97723C21.8332 6.97723 21.7393 6.99624 21.6517 7.03313C21.5642 7.07002 21.4849 7.12405 21.4184 7.19208L7.17298 21.4954C7.10496 21.5622 7.05091 21.642 7.01402 21.73C6.97712 21.8181 6.95811 21.9126 6.95811 22.0082C6.95811 22.1037 6.97712 22.1983 7.01402 22.2863C7.05091 22.3744 7.10496 22.4541 7.17298 22.5209L8.94585 24.2976ZM36.9761 33.0144L34.9247 30.9437L22.3629 43.5582C22.3075 43.6139 22.2417 43.6582 22.1692 43.6884C22.0968 43.7186 22.0191 43.7341 21.9406 43.7341C21.8622 43.7341 21.7845 43.7186 21.7121 43.6884C21.6396 43.6582 21.5738 43.6139 21.5184 43.5582L8.95477 30.9437L6.89268 33.0144C6.82466 33.0812 6.77061 33.161 6.73371 33.249C6.69681 33.3371 6.67781 33.4317 6.67781 33.5272C6.67781 33.6227 6.69681 33.7173 6.73371 33.8053C6.77061 33.8934 6.82466 33.9731 6.89268 34.0399L21.5184 48.7269C21.5738 48.7827 21.6396 48.827 21.7121 48.8572C21.7845 48.8874 21.8622 48.9029 21.9406 48.9029C22.0191 48.9029 22.0968 48.8874 22.1692 48.8572C22.2417 48.827 22.3075 48.7827 22.3629 48.7269L36.9779 34.0399C37.0459 33.9731 37.1 33.8934 37.1369 33.8053C37.1738 33.7173 37.1928 33.6227 37.1928 33.5272C37.1928 33.4317 37.1738 33.3371 37.1369 33.249C37.1 33.161 37.0459 33.0812 36.9779 33.0144H36.9761ZM16.6747 27.6216L19.9848 30.9437L21.9308 28.9877L23.884 30.9491L27.1941 27.6216L21.9308 22.3362L16.6747 27.6216Z" fill="url(#paint0_linear_285_483)"></path><defs><linearGradient id="paint0_linear_285_483" x1="21.9295" y1="-8.00035" x2="21.9295" y2="63.714" gradientUnits="userSpaceOnUse"><stop stop-color="#0338D1"></stop><stop offset="0.354167" stop-color="#1CFCFC"></stop><stop offset="0.885417" stop-color="#0338D1"></stop></linearGradient></defs></svg>