<svg xmlns="http://www.w3.org/2000/svg" width="357" height="168" viewBox="0 0 357 168" fill="none"><g clip-path="url(#clip0_225_18249)"><path d="M254.785 80.8089V117.733H242.882L220.018 103.362C219.821 103.238 219.592 103.172 219.358 103.172C219.124 103.172 218.895 103.238 218.698 103.362L196.134 117.733H184.231V80.8089C184.231 80.5412 184.34 80.2844 184.534 80.0951C184.728 79.9057 184.991 79.7994 185.266 79.7994H196.134V105.543L210.055 97.0727L218.931 91.6313C219.124 91.5135 219.347 91.4511 219.575 91.4511C219.803 91.4511 220.026 91.5135 220.22 91.6313L242.923 105.578V79.8347H253.792C254.053 79.8448 254.3 79.9508 254.485 80.1315C254.669 80.3122 254.776 80.5542 254.785 80.8089ZM356.132 80.0215C356.132 84.2515 355.87 87.2212 355.346 88.9307C354.338 92.1108 352.749 94.2208 350.579 95.2606C348.509 96.2348 345.099 96.7194 340.348 96.7194H323.031V116.093C323.031 116.525 322.855 116.941 322.542 117.247C322.229 117.554 321.804 117.727 321.36 117.728H262.605V79.7893H301.751V88.0524H273.287V95.1899H301.751V102.287H273.287V109.465H309.514C309.957 109.465 310.383 109.293 310.697 108.988C311.012 108.682 311.189 108.267 311.19 107.834V74.2923C311.19 74.0775 311.147 73.8649 311.063 73.6664C310.978 73.468 310.855 73.2877 310.699 73.1359C310.544 72.984 310.359 72.8635 310.155 72.7813C309.952 72.6991 309.734 72.6568 309.514 72.6568H176.473C176.028 72.6568 175.602 72.8292 175.287 73.1359C174.973 73.4426 174.796 73.8586 174.796 74.2923V117.733H162.96V72.6821H142.301V64.2675C142.307 64.0085 142.416 63.7618 142.604 63.5786C142.791 63.3954 143.044 63.2896 143.31 63.2832H337.062C338.417 63.2832 339.587 63.2832 340.57 63.3084H340.622C342.503 63.269 344.385 63.3348 346.258 63.5053C348.338 63.732 350.31 64.5243 351.951 65.7919C354.742 68.1206 356.136 72.8638 356.132 80.0215ZM346.253 80.0215C346.253 76.8616 345.668 74.7702 344.498 73.7471C343.82 73.1902 342.988 72.8393 342.107 72.7376C341.284 72.6599 340.456 72.6312 339.628 72.6518H323.031V87.3811H339.628C341.621 87.3811 343.06 87.1691 343.924 86.74C344.788 86.311 345.477 85.3468 345.922 83.9486C346.191 82.6622 346.303 81.3488 346.253 80.0366V80.0215Z" fill="white"></path></g><path d="M145.352 53.0254H147.965V41.9894H151.825V39.6496H141.491V41.9894H145.352V53.0254ZM155.451 53.0254H158.064V47.3319H164.225V53.0254H166.838V39.6496H164.225V44.9921H158.064V39.6496H155.451V53.0254ZM171.282 53.0254H180.348V50.6856H173.894V47.3319H179.646V44.9921H173.894V41.9894H180.348V39.6496H171.282V53.0254ZM193.286 53.0254H196.191L198.082 44.4267L199.954 53.0254H202.879L206.642 39.6496H203.951L201.475 49.6327L199.35 39.6496H196.795L194.67 49.6327L192.213 39.6496H189.503L193.286 53.0254ZM210.149 53.0254H219.215V50.6856H212.761V47.3319H218.513V44.9921H212.761V41.9894H219.215V39.6496H210.149V53.0254ZM222.838 53.0254H229.935C232.665 53.0254 234.498 51.524 234.498 49.2622C234.498 47.8389 233.562 46.474 232.158 45.8695C232.938 45.2066 233.445 44.1732 233.445 43.2568C233.445 41.0925 231.69 39.6496 229.058 39.6496H222.838V53.0254ZM225.451 44.9921V41.9894H229.058C230.13 41.9894 230.832 42.5938 230.832 43.4908C230.832 44.3877 230.13 44.9921 229.058 44.9921H225.451ZM225.451 50.6856V47.3319H229.955C231.105 47.3319 231.885 48.0143 231.885 49.0283C231.885 50.0227 231.105 50.6856 229.935 50.6856H225.451ZM242.777 53.2984C246.014 53.2984 248.178 51.7385 248.178 49.3987C248.178 47.9363 247.243 46.552 245.819 45.9475C247.009 45.2651 247.808 44.0562 247.808 42.9448C247.808 40.8 245.8 39.3766 242.777 39.3766C239.892 39.3766 237.981 41.2095 237.981 43.9392H240.184C240.184 42.4378 241.218 41.4434 242.777 41.4434C244.396 41.4434 245.488 42.1649 245.488 43.2373C245.488 44.2902 244.396 44.9921 242.777 44.9921H241.53V47.0589H242.777C244.649 47.0589 245.897 47.8974 245.897 49.1452C245.897 50.3931 244.649 51.2316 242.777 51.2316C241.042 51.2316 239.892 50.3736 239.892 49.0672H237.649C237.649 51.602 239.697 53.2984 242.777 53.2984ZM258.791 53.0254H261.404V47.9753H264.738C267.507 47.9753 269.359 46.2985 269.359 43.7832C269.359 41.3069 267.507 39.6496 264.738 39.6496H258.791V53.0254ZM261.404 45.6356V41.9894H264.738C265.947 41.9894 266.747 42.7108 266.747 43.7832C266.747 44.8946 265.947 45.6356 264.738 45.6356H261.404ZM272.947 53.0254H275.559V47.3319H278.036L281.565 53.0254H284.451L280.805 47.1369C282.423 46.7275 283.515 45.2651 283.515 43.4908C283.515 41.19 281.779 39.6496 279.167 39.6496H272.947V53.0254ZM275.559 44.9921V41.9894H279.167C280.356 41.9894 280.961 42.7303 280.961 43.4908C280.961 44.2317 280.356 44.9921 279.167 44.9921H275.559ZM293.21 53.2984C297.383 53.2984 300.171 50.5101 300.171 46.3375C300.171 42.1649 297.383 39.3766 293.21 39.3766C289.038 39.3766 286.25 42.1649 286.25 46.3375C286.25 50.5101 289.038 53.2984 293.21 53.2984ZM293.21 50.9586C290.598 50.9586 288.862 49.1062 288.862 46.3375C288.862 43.5687 290.598 41.7164 293.21 41.7164C295.823 41.7164 297.559 43.5687 297.559 46.3375C297.559 49.1062 295.823 50.9586 293.21 50.9586ZM307.392 53.2984C310.337 53.2984 312.287 51.1536 312.287 47.9169V39.6496H309.674V47.9169C309.674 49.7497 308.757 50.9586 307.392 50.9586C306.164 50.9586 305.189 50.1981 304.936 49.0672H302.459C302.81 51.602 304.78 53.2984 307.392 53.2984ZM316.269 53.0254H325.336V50.6856H318.882V47.3319H324.634V44.9921H318.882V41.9894H325.336V39.6496H316.269V53.0254ZM334.705 53.2984C337.922 53.2984 340.496 51.0951 341.14 47.7804H338.624C338.098 49.6912 336.538 50.9586 334.705 50.9586C332.092 50.9586 330.357 49.1062 330.357 46.3375C330.357 43.5687 332.092 41.7164 334.705 41.7164C336.343 41.7164 337.864 42.8668 338.507 44.5827H341.081C340.301 41.4629 337.747 39.3766 334.705 39.3766C330.532 39.3766 327.744 42.1649 327.744 46.3375C327.744 50.5101 330.532 53.2984 334.705 53.2984ZM347.418 53.0254H350.03V41.9894H353.891V39.6496H343.557V41.9894H347.418V53.0254Z" fill="white"></path><path d="M50.3639 77.0496L41.6173 68.2663L70.0994 39.6601L98.6004 68.2757L89.8538 77.0638L70.0994 57.2267L50.3639 77.0496ZM127.616 99.6501L71.4447 156.057C71.2689 156.237 71.0592 156.379 70.8278 156.477C70.5964 156.574 70.348 156.625 70.0971 156.625C69.8461 156.625 69.5977 156.574 69.3663 156.477C69.1349 156.379 68.9252 156.237 68.7494 156.057L12.5781 99.6501C12.283 99.3533 12.1172 98.951 12.1172 98.5315C12.1172 98.112 12.283 97.7097 12.5781 97.4128L27.0411 82.9177L13.6166 69.4371C13.4368 69.2605 13.2939 69.0496 13.1963 68.8168C13.0988 68.584 13.0485 68.334 13.0485 68.0814C13.0485 67.8288 13.0988 67.5788 13.1963 67.346C13.2939 67.1132 13.4368 66.9023 13.6166 66.7257L67.9895 12.1062C68.2667 11.823 68.5972 11.5981 68.9619 11.4445C69.3266 11.291 69.7181 11.2119 70.1136 11.2119C70.509 11.2119 70.9005 11.291 71.2652 11.4445C71.6299 11.5981 71.9605 11.823 72.2377 12.1062L126.837 66.958C126.984 67.1051 127.101 67.2798 127.18 67.4722C127.26 67.6645 127.3 67.8708 127.3 68.079C127.3 68.2873 127.26 68.4935 127.18 68.6859C127.101 68.8783 126.984 69.053 126.837 69.2001L113.177 82.9177L127.616 97.4176C127.91 97.7142 128.075 98.1155 128.075 98.5338C128.075 98.9522 127.91 99.3535 127.616 99.6501ZM35.7688 74.1297L39.3138 77.7037L68.7447 107.253C68.9204 107.433 69.1302 107.576 69.3616 107.673C69.593 107.771 69.8414 107.821 70.0923 107.821C70.3433 107.821 70.5917 107.771 70.8231 107.673C71.0545 107.576 71.2642 107.433 71.44 107.253L109.103 69.4323C109.283 69.2557 109.426 69.0449 109.523 68.8121C109.621 68.5793 109.671 68.3292 109.671 68.0767C109.671 67.8241 109.621 67.5741 109.523 67.3413C109.426 67.1085 109.283 66.8976 109.103 66.721L71.44 28.9049C71.2642 28.725 71.0545 28.5822 70.8231 28.4846C70.5917 28.3871 70.3433 28.3369 70.0923 28.3369C69.8414 28.3369 69.593 28.3871 69.3616 28.4846C69.1302 28.5822 68.9204 28.725 68.7447 28.9049L31.0816 66.721C30.9018 66.8976 30.7589 67.1085 30.6613 67.3413C30.5638 67.5741 30.5135 67.8241 30.5135 68.0767C30.5135 68.3292 30.5638 68.5793 30.6613 68.8121C30.7589 69.0449 30.9018 69.2557 31.0816 69.4323L35.7688 74.1297ZM109.877 97.1758L104.454 91.7011L71.2417 125.052C71.0953 125.2 70.9213 125.317 70.7297 125.396C70.5381 125.476 70.3328 125.517 70.1254 125.517C69.918 125.517 69.7126 125.476 69.521 125.396C69.3295 125.317 69.1555 125.2 69.009 125.052L35.7924 91.7011L30.3405 97.1758C30.1607 97.3524 30.0178 97.5633 29.9202 97.7961C29.8227 98.0289 29.7724 98.2789 29.7724 98.5315C29.7724 98.784 29.8227 99.0341 29.9202 99.2669C30.0178 99.4997 30.1607 99.7105 30.3405 99.8871L69.009 138.718C69.1555 138.865 69.3295 138.982 69.521 139.062C69.7126 139.142 69.918 139.183 70.1254 139.183C70.3328 139.183 70.5381 139.142 70.7297 139.062C70.9213 138.982 71.0953 138.865 71.2417 138.718L109.882 99.8871C110.062 99.7105 110.205 99.4997 110.302 99.2669C110.4 99.0341 110.45 98.784 110.45 98.5315C110.45 98.2789 110.4 98.0289 110.302 97.7961C110.205 97.5633 110.062 97.3524 109.882 97.1758H109.877ZM56.2029 82.9177L64.9543 91.7011L70.0994 86.5297L75.2634 91.7153L84.0148 82.9177L70.0994 68.9441L56.2029 82.9177Z" fill="white"></path><defs><clipPath id="clip0_225_18249"><rect width="213.826" height="54.4549" fill="white" transform="translate(142.301 63.2832)"></rect></clipPath></defs></svg>