<svg xmlns="http://www.w3.org/2000/svg" width="52" height="52" viewBox="0 0 52 52" fill="none"><rect x="0.242188" y="0.210938" width="51.601" height="51.601" rx="15.4738" fill="white" fill-opacity="0.05"></rect><path d="M40.3974 19.2129C40.4194 19.5067 40.4194 19.8005 40.4194 20.097C40.4194 29.1314 32.968 39.5508 19.3428 39.5508V39.5454C15.3179 39.5508 11.3766 38.4866 7.98828 36.4802C8.57354 36.5452 9.16173 36.5777 9.75138 36.579C13.0869 36.5817 16.3271 35.5487 18.9512 33.6465C15.7814 33.591 13.0018 31.6834 12.0308 28.8985C13.1412 29.0962 14.2853 29.0556 15.3751 28.7807C11.9193 28.1363 9.43309 25.3338 9.43309 22.0791C9.43309 22.0493 9.43309 22.0209 9.43309 21.9924C10.4628 22.5218 11.6157 22.8156 12.795 22.8481C9.54016 20.8403 8.53687 16.8437 10.5024 13.7189C14.2633 17.9904 19.8122 20.5871 25.7689 20.862C25.1719 18.4873 25.9875 15.9989 27.9119 14.3295C30.8954 11.7409 35.5877 11.8736 38.3923 14.626C40.0512 14.3241 41.6412 13.7623 43.0963 12.9662C42.5433 14.5489 41.386 15.8933 39.84 16.7476C41.3083 16.5878 42.7428 16.225 44.0937 15.6712C43.0992 17.0468 41.8466 18.2449 40.3974 19.2129Z" fill="white"></path></svg>