<svg xmlns="http://www.w3.org/2000/svg" width="222" height="72" viewBox="0 0 222 72" fill="none"><g filter="url(#filter0_b_203_156)"><rect width="222" height="72" rx="15" fill="url(#paint0_radial_203_156)" fill-opacity="0.3"></rect><path d="M37.048 47H41.22L43.936 34.652L46.624 47H50.824L56.228 27.792H52.364L48.808 42.128L45.756 27.792H42.088L39.036 42.128L35.508 27.792H31.616L37.048 47ZM62.8791 47.392C64.5311 47.392 66.3511 46.636 67.4151 45.488V47H70.7751V33H67.4151V34.512C66.3511 33.364 64.5311 32.608 62.8791 32.608C58.5111 32.608 55.5991 35.576 55.5991 40C55.5991 44.424 58.5111 47.392 62.8791 47.392ZM63.2151 44.424C60.6671 44.424 58.9591 42.66 58.9591 40C58.9591 37.34 60.6671 35.576 63.2151 35.576C65.7351 35.576 67.4151 37.34 67.4151 40C67.4151 42.66 65.7351 44.424 63.2151 44.424ZM79.1954 47.392C80.1194 47.392 81.0714 47.224 81.5754 47V44.592H79.1394C78.4114 44.592 77.9074 44.116 77.9074 43.416V35.8H81.4354V33H77.9074V27.792H74.5474V33H72.3074V35.8H74.5474V43.416C74.5474 45.796 76.3954 47.392 79.1954 47.392ZM90.1207 47.392C93.9287 47.392 96.8687 44.956 97.4567 41.316H94.2367C93.8167 43.192 92.1647 44.424 90.1207 44.424C87.5727 44.424 85.8927 42.66 85.8927 40C85.8927 37.34 87.5727 35.576 90.1207 35.576C92.1367 35.576 93.7607 36.752 94.2087 38.544H97.4287C96.8127 34.988 93.9007 32.608 90.1207 32.608C85.5567 32.608 82.5327 35.576 82.5327 40C82.5327 44.424 85.5567 47.392 90.1207 47.392ZM99.4716 47H102.832V38.684C102.832 36.808 104.204 35.576 106.248 35.576C108.292 35.576 109.664 36.808 109.664 38.684V47H113.024V38.292C113.024 34.876 110.476 32.608 106.64 32.608C105.268 32.608 103.756 33.168 102.832 34.036V27.792H99.4716V47ZM128.188 47H132.052L139.92 27.792H135.916L130.092 42.688L124.296 27.792H120.264L128.188 47ZM141.28 30.872H144.64V27.792H141.28V30.872ZM141.28 47H144.64V33H141.28V47ZM154.046 47.392C155.754 47.392 157.63 46.608 158.694 45.46V47H162.054V27.792H158.694V34.54C157.63 33.392 155.754 32.608 154.046 32.608C149.622 32.608 146.654 35.576 146.654 40C146.654 44.424 149.622 47.392 154.046 47.392ZM154.382 44.424C151.75 44.424 150.014 42.66 150.014 40C150.014 37.34 151.75 35.576 154.382 35.576C156.958 35.576 158.694 37.34 158.694 40C158.694 42.66 156.958 44.424 154.382 44.424ZM171.66 47.392C175.076 47.392 177.988 45.32 178.912 42.24H175.496C174.852 43.64 173.312 44.592 171.66 44.592C169.476 44.592 167.796 43.136 167.488 40.924H178.968L179.248 40.644V40C179.248 35.576 176.224 32.608 171.66 32.608C167.096 32.608 164.072 35.576 164.072 40C164.072 44.424 167.096 47.392 171.66 47.392ZM167.712 38.124C168.356 36.388 169.784 35.408 171.66 35.408C173.536 35.408 174.964 36.388 175.608 38.124H167.712ZM188.285 47.392C192.849 47.392 195.873 44.424 195.873 40C195.873 35.576 192.849 32.608 188.285 32.608C183.721 32.608 180.697 35.576 180.697 40C180.697 44.424 183.721 47.392 188.285 47.392ZM188.285 44.424C185.737 44.424 184.057 42.66 184.057 40C184.057 37.34 185.737 35.576 188.285 35.576C190.833 35.576 192.513 37.34 192.513 40C192.513 42.66 190.833 44.424 188.285 44.424Z" fill="white"></path><rect x="0.5" y="0.5" width="221" height="71" rx="14.5" stroke="url(#paint1_radial_203_156)"></rect><rect x="0.5" y="0.5" width="221" height="71" rx="14.5" stroke="url(#paint2_radial_203_156)"></rect><rect x="0.5" y="0.5" width="221" height="71" rx="14.5" stroke="url(#paint3_radial_203_156)" stroke-opacity="0.8"></rect></g><defs><filter id="filter0_b_203_156" x="-5" y="-5" width="232" height="82" filterUnits="userSpaceOnUse" color-interpolation-filters="sRGB"><feGaussianBlur stdDeviation="2.5"></feGaussianBlur></filter><radialGradient id="paint0_radial_203_156" cx="0" cy="0" r="1" gradientUnits="userSpaceOnUse" gradientTransform="translate(18.5704) rotate(19.8215) scale(235.981 109.971)"><stop stop-color="white" stop-opacity="0.36"></stop><stop offset="1" stop-color="white" stop-opacity="0"></stop></radialGradient><radialGradient id="paint1_radial_203_156" cx="0" cy="0" r="1" gradientUnits="userSpaceOnUse" gradientTransform="translate(-60.41 9.08251) rotate(16.8913) scale(158.408 43.1106)"><stop stop-color="#B5FEFE"></stop><stop offset="1" stop-color="#B5FEFE" stop-opacity="0.06"></stop></radialGradient><radialGradient id="paint2_radial_203_156" cx="0" cy="0" r="1" gradientUnits="userSpaceOnUse" gradientTransform="translate(286.993 48.1867) rotate(173.749) scale(176.836 42.7619)"><stop stop-color="#B5FEFE"></stop><stop offset="1" stop-color="#1AEEF9" stop-opacity="0"></stop></radialGradient><radialGradient id="paint3_radial_203_156" cx="0" cy="0" r="1" gradientUnits="userSpaceOnUse" gradientTransform="translate(113.417 -16.4554) rotate(19.3584) scale(89.191 40.2176)"><stop></stop><stop offset="1" stop-color="white" stop-opacity="0"></stop></radialGradient></defs></svg>