<svg xmlns="http://www.w3.org/2000/svg" width="194" height="72" viewBox="0 0 194 72" fill="none"><rect x="0.5" y="0.5" width="193" height="71" rx="14.5" fill="url(#paint0_radial_285_259)" fill-opacity="0.3"></rect><path d="M32.624 47H36.376V39.748H41.164C45.14 39.748 47.8 37.34 47.8 33.728C47.8 30.172 45.14 27.792 41.164 27.792H32.624V47ZM36.376 36.388V31.152H41.164C42.9 31.152 44.048 32.188 44.048 33.728C44.048 35.324 42.9 36.388 41.164 36.388H36.376ZM49.8153 47H53.1753V27.792H49.8153V47ZM62.4689 47.392C64.1209 47.392 65.9409 46.636 67.0049 45.488V47H70.3649V33H67.0049V34.512C65.9409 33.364 64.1209 32.608 62.4689 32.608C58.1009 32.608 55.1889 35.576 55.1889 40C55.1889 44.424 58.1009 47.392 62.4689 47.392ZM62.8049 44.424C60.2569 44.424 58.5489 42.66 58.5489 40C58.5489 37.34 60.2569 35.576 62.8049 35.576C65.3249 35.576 67.0049 37.34 67.0049 40C67.0049 42.66 65.3249 44.424 62.8049 44.424ZM74.3685 52.208H77.9805L85.5405 33H81.9285L78.4845 41.792L75.0125 33H71.4285L76.7765 46.104L74.3685 52.208ZM101.662 47.392C107.29 47.392 111.042 43.388 111.042 37.368V36.108H100.822V39.468H107.15C106.45 42.212 104.238 44.032 101.662 44.032C97.9095 44.032 95.4175 41.372 95.4175 37.368C95.4175 33.392 97.9095 30.76 101.662 30.76C103.51 30.76 105.414 31.936 106.422 33.7L109.922 32.832C108.242 29.584 104.938 27.4 101.662 27.4C95.6695 27.4 91.6655 31.376 91.6655 37.368C91.6655 43.388 95.6695 47.392 101.662 47.392ZM119.781 47.392C121.433 47.392 123.253 46.636 124.317 45.488V47H127.677V33H124.317V34.512C123.253 33.364 121.433 32.608 119.781 32.608C115.413 32.608 112.501 35.576 112.501 40C112.501 44.424 115.413 47.392 119.781 47.392ZM120.117 44.424C117.569 44.424 115.861 42.66 115.861 40C115.861 37.34 117.569 35.576 120.117 35.576C122.637 35.576 124.317 37.34 124.317 40C124.317 42.66 122.637 44.424 120.117 44.424ZM130.261 47H133.621V37.564C133.621 36.36 134.629 35.576 136.169 35.576C137.709 35.576 138.717 36.36 138.717 37.564V47H142.077V37.564C142.077 36.36 143.085 35.576 144.625 35.576C146.165 35.576 147.173 36.36 147.173 37.564V47H150.533V37.228C150.533 34.456 148.293 32.608 144.961 32.608C143.421 32.608 141.741 33.28 140.761 34.288C139.809 33.28 138.325 32.608 137.037 32.608C135.693 32.608 134.461 33.196 133.621 34.26V33H130.261V47ZM159.875 47.392C163.291 47.392 166.203 45.32 167.127 42.24H163.711C163.067 43.64 161.527 44.592 159.875 44.592C157.691 44.592 156.011 43.136 155.703 40.924H167.183L167.463 40.644V40C167.463 35.576 164.439 32.608 159.875 32.608C155.311 32.608 152.287 35.576 152.287 40C152.287 44.424 155.311 47.392 159.875 47.392ZM155.927 38.124C156.571 36.388 157.999 35.408 159.875 35.408C161.751 35.408 163.179 36.388 163.823 38.124H155.927Z" fill="white"></path><rect x="0.5" y="0.5" width="193" height="71" rx="14.5" stroke="url(#paint1_radial_285_259)"></rect><rect x="0.5" y="0.5" width="193" height="71" rx="14.5" stroke="url(#paint2_radial_285_259)"></rect><rect x="0.5" y="0.5" width="193" height="71" rx="14.5" stroke="url(#paint3_radial_285_259)" stroke-opacity="0.8"></rect><defs><radialGradient id="paint0_radial_285_259" cx="0" cy="0" r="1" gradientUnits="userSpaceOnUse" gradientTransform="translate(16.2282) rotate(22.4146) scale(209.855 108.065)"><stop stop-color="white" stop-opacity="0.36"></stop><stop offset="1" stop-color="white" stop-opacity="0"></stop></radialGradient><radialGradient id="paint1_radial_285_259" cx="0" cy="0" r="1" gradientUnits="userSpaceOnUse" gradientTransform="translate(-52.7907 9.08251) rotate(19.1616) scale(140.225 42.5582)"><stop stop-color="#B5FEFE"></stop><stop offset="1" stop-color="#B5FEFE" stop-opacity="0.06"></stop></radialGradient><radialGradient id="paint2_radial_285_259" cx="0" cy="0" r="1" gradientUnits="userSpaceOnUse" gradientTransform="translate(250.796 48.1867) rotate(172.856) scale(154.816 42.6837)"><stop stop-color="#B5FEFE"></stop><stop offset="1" stop-color="#1AEEF9" stop-opacity="0"></stop></radialGradient><radialGradient id="paint3_radial_285_259" cx="0" cy="0" r="1" gradientUnits="userSpaceOnUse" gradientTransform="translate(99.1122 -16.4554) rotate(21.9025) scale(79.2558 39.5507)"><stop></stop><stop offset="1" stop-color="white" stop-opacity="0"></stop></radialGradient></defs></svg>